<?xml version="1.0" encoding="UTF-8"?>
<svg width="445px" height="223px" viewBox="0 0 445 223" version="1.1" xmlns="http://www.w3.org/2000/svg" xmlns:xlink="http://www.w3.org/1999/xlink">
    <!-- Generator: Sketch 64 (93537) - https://sketch.com -->
    <title>add-product-illustration</title>
    <desc>Created with Sketch.</desc>
    <g id="Page-1" stroke="none" stroke-width="1" fill="none" fill-rule="evenodd">
        <g id="08-queckoo-web-app---admin-panel---add-product---message" transform="translate(-738.000000, -340.000000)">
            <g id="popup" transform="translate(561.333333, 202.000000)">
                <g id="add-product-illustration" transform="translate(176.666667, 140.000000)">
                    <g id="freepik--background-simple--inject-1--inject-70" transform="translate(17.000000, 119.666667)" fill-rule="nonzero">
                        <path d="M0.233333333,97.8433333 L419.533333,97.8433333 C419.533333,97.8433333 409.413333,77.6133333 396.263333,71.0333333 C383.113333,64.4533333 376.033333,77.6133333 359.843333,68.5033333 C343.653333,59.3933333 347.203333,38.1633333 328.993333,25.5033333 C310.783333,12.8433333 291.563333,27.0233333 274.873333,26.0133333 C258.183333,25.0033333 253.123333,2.74333333 234.873333,0.213333333 C216.623333,-2.31666667 217.163333,18.7433333 200.473333,25.0033333 C183.783333,31.2633333 172.273333,21.0733333 160.523333,21.4633333 C148.773333,21.8533333 150.913333,29.0433333 139.783333,34.1033333 C128.653333,39.1633333 126.633333,36.6333333 105.393333,38.6533333 C84.1533333,40.6733333 79.0933333,62.4233333 71.5033333,68.4933333 C63.9133333,74.5633333 53.8033333,64.9533333 38.1233333,68.4933333 C22.4433333,72.0333333 0.233333333,97.8433333 0.233333333,97.8433333 Z" id="Path" fill="#50C96C"></path>
                        <g id="Group" opacity="0.8" fill="#FFFFFF">
                            <path d="M0.233333333,97.8433333 L419.533333,97.8433333 C419.533333,97.8433333 409.413333,77.6133333 396.263333,71.0333333 C383.113333,64.4533333 376.033333,77.6133333 359.843333,68.5033333 C343.653333,59.3933333 347.203333,38.1633333 328.993333,25.5033333 C310.783333,12.8433333 291.563333,27.0233333 274.873333,26.0133333 C258.183333,25.0033333 253.123333,2.74333333 234.873333,0.213333333 C216.623333,-2.31666667 217.163333,18.7433333 200.473333,25.0033333 C183.783333,31.2633333 172.273333,21.0733333 160.523333,21.4633333 C148.773333,21.8533333 150.913333,29.0433333 139.783333,34.1033333 C128.653333,39.1633333 126.633333,36.6333333 105.393333,38.6533333 C84.1533333,40.6733333 79.0933333,62.4233333 71.5033333,68.4933333 C63.9133333,74.5633333 53.8033333,64.9533333 38.1233333,68.4933333 C22.4433333,72.0333333 0.233333333,97.8433333 0.233333333,97.8433333 Z" id="Path"></path>
                        </g>
                    </g>
                    <g id="freepik--Plants--inject-1--inject-70" transform="translate(0.000000, 111.666667)" fill-rule="nonzero">
                        <path d="M368.543333,28.9033333 C369.333333,33.0933333 378.823333,46.7433333 382.323333,54.4233333 C381.513333,53.4233333 380.573333,52.2433333 379.643333,51.1533333 C378.913333,49.8833333 378.263333,48.4633333 377.533333,47.3733333 C376.403333,45.6833333 375.213333,44.0333333 373.923333,42.4633333 C371.946269,39.9712609 369.684201,37.7192606 367.183333,35.7533333 C364.29254,33.3934618 360.774947,31.9301154 357.063333,31.5433333 C356.063333,31.4733333 350.353333,31.0433333 351.683333,33.3433333 C351.927651,33.6958253 352.253579,33.9840143 352.633333,34.1833333 C356.143333,36.3333333 360.023333,37.4833333 363.723333,39.1833333 C369.263333,41.7733333 376.583333,48.6733333 379.633333,51.6733333 L381.183333,53.7233333 C375.733333,48.6433333 366.833333,45.7233333 363.783333,47.1533333 C360.013333,48.8733333 368.123333,50.6333333 375.003333,52.4133333 C378.081793,53.1135406 380.94394,54.5514778 383.343333,56.6033333 C384.663333,58.3833333 386.153333,60.3833333 387.643333,62.4333333 C387.823333,62.7533333 388.003333,63.0533333 388.183333,63.3533333 C387.127066,62.12643 385.932465,61.0257864 384.623333,60.0733333 C381.103333,57.6633333 371.413333,56.2033333 370.393333,59.4633333 C369.373333,62.7233333 376.243333,61.2333333 382.153333,62.1733333 C385.351982,62.7646187 388.291469,64.3251299 390.573333,66.6433333 L390.963333,67.0633333 C391.633333,68.0633333 392.273333,68.9333333 392.873333,69.8133333 C394.283333,71.8733333 395.623333,73.8133333 396.873333,75.6833333 C394.885061,73.0779259 392.526826,70.7769629 389.873333,68.8533333 C384.713333,65.3133333 377.823333,64.5633333 375.313333,66.4633333 C372.803333,68.3633333 384.383333,70.0833333 390.073333,72.0833333 C393.352292,73.3308771 396.25769,75.3963255 398.513333,78.0833333 C400.383333,80.7333333 402.233333,83.3133333 404.223333,86.0133333 C401.052041,83.2055239 397.657504,80.660457 394.073333,78.4033333 C388.243333,74.5833333 382.203333,75.1033333 380.593333,77.4033333 C378.983333,79.7033333 383.913333,79.8533333 393.083333,81.8233333 C397.919185,82.848879 402.401583,85.124558 406.083333,88.4233333 L408.713333,91.9233333 C409.713333,93.2933333 410.963333,94.6933333 412.233333,96.0733333 C410.683333,95.3733333 408.393333,94.3733333 405.853333,93.2833333 C403.014025,92.1170605 400.269173,90.7329329 397.643333,89.1433333 C394.643333,87.2633333 390.563333,85.2733333 386.973333,86.8733333 C386.422289,87.0521009 385.975832,87.4610214 385.749481,87.9942881 C385.52313,88.5275548 385.539128,89.1327688 385.793333,89.6533333 C386.190069,90.3773287 386.811234,90.9528712 387.563333,91.2933333 C391.563333,93.4833333 396.493333,94.0633333 400.863333,95.0333333 C404.874006,95.9303694 408.939507,96.5617414 413.033333,96.9233333 C414.223333,98.1733333 415.463333,99.4033333 416.693333,100.563333 L414.853333,100.903333 C412.683333,101.313333 402.103333,98.3833333 396.853333,97.7333333 C391.603333,97.0833333 387.353333,100.533333 393.053333,102.533333 C398.753333,104.533333 412.943333,101.673333 412.943333,101.673333 L417.043333,100.903333 C421.913333,105.493333 426.423333,109.003333 426.423333,109.003333 L428.323333,107.723333 C428.323333,107.723333 424.393333,106.643333 417.793333,100.403333 C417.63873,99.1691614 417.618612,97.9218493 417.733333,96.6833333 C418.153333,89.6833333 423.923333,81.7833333 419.493333,75.0133333 C418.423333,73.3733333 416.113333,72.4733333 414.833333,74.2733333 C413.913333,75.5733333 413.963333,77.7633333 414.253333,79.2733333 C415.253333,84.2233333 416.803333,88.6133333 416.423333,93.7733333 C416.423333,94.0033333 416.423333,97.4633333 416.663333,99.3433333 C415.763333,98.4533333 414.833333,97.4833333 413.853333,96.4133333 C413.046143,94.4688407 412.397366,92.4623138 411.913333,90.4133333 C410.643333,84.9633333 411.913333,79.1833333 411.003333,73.6333333 C410.713333,71.9333333 408.063333,67.9033333 406.763333,71.4033333 C406.193333,72.9533333 406.923333,75.8933333 407.023333,77.5433333 C407.323333,82.2133333 407.783333,87.0933333 409.623333,91.4533333 L408.833333,90.4533333 C407.250135,86.1025561 406.019499,81.631469 405.153333,77.0833333 C403.743333,69.5733333 403.983333,63.1833333 401.563333,61.1833333 C399.143333,59.1833333 399.273333,67.5433333 401.563333,76.3333333 C402.613126,80.3398522 404.319573,84.1447216 406.613333,87.5933333 C404.033333,84.2933333 401.463333,80.9033333 399.013333,77.5933333 C396.738893,73.9885613 395.319342,69.9112003 394.863333,65.6733333 C394.433333,59.0033333 394.033333,53.5533333 390.953333,50.2433333 C387.873333,46.9333333 387.733333,49.4133333 390.163333,56.9433333 C391.833333,62.1033333 393.833333,69.0433333 396.163333,73.7133333 C394.253333,71.1233333 392.463333,68.6633333 390.853333,66.4333333 C389.783333,64.1233333 387.183333,58.1533333 386.373333,52.9933333 C385.373333,46.4333333 384.093333,42.9933333 382.373333,44.7333333 C381.183333,45.9533333 383.373333,53.9133333 386.563333,60.3933333 C385.213333,58.4833333 384.203333,57.0133333 383.563333,56.1433333 C383.296667,55.7433333 382.996667,55.3233333 382.663333,54.8833333 C381.112681,49.588356 379.225508,44.3977959 377.013333,39.3433333 C373.143333,30.5033333 367.693333,24.3333333 368.543333,28.9033333 Z" id="Path" fill="#50C96C"></path>
                        <g id="Group" opacity="0.6" transform="translate(351.333333, 27.333333)" fill="#FFFFFF">
                            <path d="M17.21,1.57 C18,5.76 27.49,19.41 30.99,27.09 C30.18,26.09 29.24,24.91 28.31,23.82 C27.58,22.55 26.93,21.13 26.2,20.04 C25.07,18.35 23.88,16.7 22.59,15.13 C20.612936,12.6379276 18.3508672,10.3859273 15.85,8.42 C12.9592068,6.06012849 9.441614,4.59678209 5.73,4.21 C4.73,4.14 -0.98,3.71 0.35,6.01 C0.594317467,6.36249199 0.920245427,6.65068092 1.3,6.85 C4.81,9 8.69,10.15 12.39,11.85 C17.93,14.44 25.25,21.34 28.3,24.34 L29.85,26.39 C24.4,21.31 15.5,18.39 12.45,19.82 C8.68,21.54 16.79,23.3 23.67,25.08 C26.7484592,25.7802072 29.6106063,27.2181445 32.01,29.27 C33.33,31.05 34.82,33.05 36.31,35.1 C36.49,35.42 36.67,35.72 36.85,36.02 C35.7937326,34.7930967 34.5991316,33.6924531 33.29,32.74 C29.77,30.33 20.08,28.87 19.06,32.13 C18.04,35.39 24.91,33.9 30.82,34.84 C34.0186489,35.4312854 36.9581353,36.9917966 39.24,39.31 L39.63,39.73 C40.3,40.73 40.94,41.6 41.54,42.48 C42.95,44.54 44.29,46.48 45.54,48.35 C43.5517275,45.7445926 41.193493,43.4436295 38.54,41.52 C33.38,37.98 26.49,37.23 23.98,39.13 C21.47,41.03 33.05,42.75 38.74,44.75 C42.0189591,45.9975438 44.9243566,48.0629922 47.18,50.75 C49.05,53.4 50.9,55.98 52.89,58.68 C49.718708,55.8721906 46.3241707,53.3271237 42.74,51.07 C36.91,47.25 30.87,47.77 29.26,50.07 C27.65,52.37 32.58,52.52 41.75,54.49 C46.5858516,55.5155457 51.0682496,57.7912247 54.75,61.09 L57.38,64.59 C58.38,65.96 59.63,67.36 60.9,68.74 C59.35,68.04 57.06,67.04 54.52,65.95 C51.680692,64.7837271 48.93584,63.3995995 46.31,61.81 C43.31,59.93 39.23,57.94 35.64,59.54 C35.0889554,59.7187676 34.6424982,60.127688 34.4161476,60.6609547 C34.189797,61.1942215 34.2057942,61.7994355 34.46,62.32 C34.8567355,63.0439954 35.4779003,63.6195379 36.23,63.96 C40.23,66.15 45.16,66.73 49.53,67.7 C53.5406723,68.5970361 57.6061732,69.228408 61.7,69.59 C62.89,70.84 64.13,72.07 65.36,73.23 L63.52,73.57 C61.35,73.98 50.77,71.05 45.52,70.4 C40.27,69.75 36.02,73.2 41.72,75.2 C47.42,77.2 61.61,74.34 61.61,74.34 L65.71,73.57 C70.58,78.16 75.09,81.67 75.09,81.67 L76.99,80.39 C76.99,80.39 73.06,79.31 66.46,73.07 C66.3053965,71.835828 66.2852786,70.5885159 66.4,69.35 C66.82,62.35 72.59,54.45 68.16,47.68 C67.09,46.04 64.78,45.14 63.5,46.94 C62.58,48.24 62.63,50.43 62.92,51.94 C63.92,56.89 65.47,61.28 65.09,66.44 C65.09,66.67 65.09,70.13 65.33,72.01 C64.43,71.12 63.5,70.15 62.52,69.08 C61.7128094,67.1355074 61.0640323,65.1289804 60.58,63.08 C59.31,57.63 60.58,51.85 59.67,46.3 C59.38,44.6 56.73,40.57 55.43,44.07 C54.86,45.62 55.59,48.56 55.69,50.21 C55.99,54.88 56.45,59.76 58.29,64.12 L57.5,63.12 C55.9168013,58.7692228 54.6861655,54.2981357 53.82,49.75 C52.41,42.24 52.65,35.85 50.23,33.85 C47.81,31.85 47.94,40.21 50.23,49 C51.279793,53.0065189 52.9862398,56.8113882 55.28,60.26 C52.7,56.96 50.13,53.57 47.68,50.26 C45.4055597,46.6552279 43.9860087,42.5778669 43.53,38.34 C43.1,31.67 42.7,26.22 39.62,22.91 C36.54,19.6 36.4,22.08 38.83,29.61 C40.5,34.77 42.5,41.71 44.83,46.38 C42.92,43.79 41.13,41.33 39.52,39.1 C38.45,36.79 35.85,30.82 35.04,25.66 C34.04,19.1 32.76,15.66 31.04,17.4 C29.85,18.62 32.04,26.58 35.23,33.06 C33.88,31.15 32.87,29.68 32.23,28.81 C31.9633333,28.41 31.6633333,27.99 31.33,27.55 C29.7793473,22.2550227 27.8921745,17.0644626 25.68,12.01 C21.81,3.17 16.36,-3 17.21,1.57 Z" id="Path"></path>
                        </g>
                        <path d="M439.423333,9.41333333 C437.103333,12.9833333 434.563333,29.4133333 431.803333,37.4133333 C431.943333,36.0933333 432.043333,34.6333333 432.113333,33.2033333 C432.463333,31.7833333 432.973333,30.3133333 433.203333,29.0033333 C433.543333,27.0033333 433.813333,25.0033333 433.973333,23.0033333 C434.261982,19.8341717 434.174709,16.6419896 433.713333,13.4933333 C433.237955,9.80084988 431.698763,6.3263741 429.283333,3.49333333 C428.653333,2.78333333 424.773333,-1.50666667 424.153333,1.08333333 C424.084889,1.50595461 424.122692,1.93896556 424.263333,2.34333333 C425.313333,6.34333333 427.333333,9.83333333 428.823333,13.6433333 C431.043333,19.3433333 431.583333,29.3833333 431.723333,33.6433333 C431.643333,34.3333333 431.543333,35.2033333 431.433333,36.1933333 C430.993333,28.7633333 426.533333,20.5233333 423.363333,19.4333333 C419.443333,18.0933333 424.103333,24.9533333 427.863333,30.9833333 C429.606386,33.6129644 430.687147,36.6253732 431.013333,39.7633333 C430.743333,41.9733333 430.433333,44.4433333 430.103333,46.9533333 C430.013333,47.3133333 429.933333,47.6533333 429.863333,48.0033333 C429.941226,46.3830791 429.833864,44.7592291 429.543333,43.1633333 C428.653333,38.9933333 422.643333,31.2533333 419.653333,32.9133333 C416.663333,34.5733333 422.653333,38.2333333 426.303333,42.9833333 C428.211372,45.6191147 429.259087,48.7797202 429.303333,52.0333333 C429.303333,52.2233333 429.303333,52.4133333 429.303333,52.6033333 C429.133333,53.7533333 428.963333,54.8633333 428.793333,55.9133333 C428.393333,58.3733333 428.033333,60.6933333 427.683333,62.9133333 C428.040257,59.6605895 427.925743,56.3733545 427.343333,53.1533333 C426.033333,47.0333333 421.563333,41.7333333 418.433333,41.3833333 C415.303333,41.0333333 422.503333,50.2533333 425.253333,55.6333333 C426.778068,58.7860494 427.466773,62.2777821 427.253333,65.7733333 C426.783333,68.9733333 426.343333,72.1233333 425.923333,75.4533333 C425.558278,71.2306827 424.856038,67.043998 423.823333,62.9333333 C422.233333,56.1533333 417.493333,52.3533333 414.713333,52.9333333 C411.933333,53.5133333 415.433333,56.9933333 420.713333,64.7433333 C423.495985,68.8161031 425.164574,73.5460707 425.553333,78.4633333 C425.383333,79.8633333 425.213333,81.3033333 425.043333,82.8033333 C424.853333,84.5133333 424.753333,86.3633333 424.733333,88.2433333 C424.083333,86.6633333 423.123333,84.3533333 422.033333,81.8233333 C420.783119,79.0200419 419.750081,76.1248593 418.943333,73.1633333 C418.043333,69.7133333 416.483333,65.4733333 412.783333,64.1633333 C412.261093,63.9133938 411.656168,63.9020296 411.124909,64.1321781 C410.593649,64.3623265 410.188192,64.8114012 410.013333,65.3633333 C409.799708,66.1608284 409.848802,67.0059387 410.153333,67.7733333 C411.513333,72.0933333 414.713333,75.9333333 417.203333,79.6533333 C419.495777,83.0662417 422.007745,86.3264546 424.723333,89.4133333 C424.723333,91.1433333 424.773333,92.8833333 424.863333,94.5733333 L423.293333,93.5733333 C421.433333,92.3733333 415.803333,82.9533333 412.453333,78.8733333 C409.103333,74.7933333 403.643333,74.3433333 406.383333,79.7233333 C409.123333,85.1033333 421.383333,92.8133333 421.383333,92.8133333 L424.883333,95.0933333 C425.253333,101.773333 426.093333,107.423333 426.093333,107.423333 L428.353333,107.803333 C428.353333,107.803333 426.253333,104.313333 425.773333,95.2533333 C426.512492,94.2490407 427.36104,93.33006 428.303333,92.5133333 C433.423333,87.7333333 443.053333,85.9933333 444.513333,78.0233333 C444.863333,76.1033333 443.823333,73.8633333 441.643333,74.2833333 C440.083333,74.5833333 438.643333,76.2133333 437.803333,77.4833333 C435.093333,81.7333333 433.203333,86.0033333 429.383333,89.4833333 C429.213333,89.6433333 426.843333,92.1633333 425.713333,93.6833333 C425.713333,92.4233333 425.663333,91.0733333 425.713333,89.6233333 C426.474101,87.653694 427.390323,85.7476841 428.453333,83.9233333 C431.293333,79.1033333 436.203333,75.8033333 439.363333,71.1433333 C440.363333,69.7133333 441.183333,64.9733333 437.833333,66.6133333 C436.343333,67.3433333 434.833333,69.9733333 433.833333,71.2333333 C430.833333,74.8233333 427.833333,78.6833333 426.113333,83.1033333 C426.113333,82.6833333 426.193333,82.2633333 426.223333,81.8433333 C428.081315,77.6019148 430.27495,73.5156 432.783333,69.6233333 C436.943333,63.2133333 441.513333,58.7433333 441.143333,55.6233333 C440.773333,52.5033333 435.143333,58.6233333 430.673333,66.6233333 C428.67373,70.250512 427.288337,74.1836755 426.573333,78.2633333 C426.983333,74.0833333 427.453333,69.8633333 427.933333,65.8033333 C428.7664,61.6228112 430.552723,57.6908461 433.153333,54.3133333 C437.433333,49.1833333 440.903333,44.9633333 440.953333,40.4433333 C441.003333,35.9233333 439.193333,37.6133333 435.763333,44.7433333 C433.413333,49.6333333 430.083333,56.0433333 428.523333,61.0133333 C428.933333,57.8233333 429.333333,54.8033333 429.713333,52.0833333 C430.523333,49.6733333 432.713333,43.5533333 435.713333,39.2633333 C439.493333,33.8033333 440.953333,30.4333333 438.503333,30.5233333 C436.803333,30.5833333 432.863333,37.8233333 430.743333,44.7433333 C431.083333,42.4333333 431.363333,40.6733333 431.543333,39.6333333 C431.623333,39.1666667 431.693333,38.6566667 431.753333,38.1033333 C434.266086,33.1672846 436.463815,28.0771038 438.333333,22.8633333 C441.653333,13.7333333 441.943333,5.53333333 439.423333,9.41333333 Z" id="Path" fill="#50C96C"></path>
                        <g id="Group" opacity="0.6" transform="translate(405.333333, 0.000000)" fill="#FFFFFF">
                            <path d="M34.09,9.41333333 C31.77,12.9833333 29.23,29.4133333 26.47,37.4133333 C26.61,36.0933333 26.71,34.6333333 26.78,33.2033333 C27.13,31.7833333 27.64,30.3133333 27.87,29.0033333 C28.21,27.0033333 28.48,25.0033333 28.64,23.0033333 C28.9286487,19.8341717 28.8413756,16.6419896 28.38,13.4933333 C27.904622,9.80084988 26.3654292,6.3263741 23.95,3.49333333 C23.32,2.78333333 19.44,-1.50666667 18.82,1.08333333 C18.7515559,1.50595461 18.7893585,1.93896556 18.93,2.34333333 C19.98,6.34333333 22,9.83333333 23.49,13.6433333 C25.71,19.3433333 26.25,29.3833333 26.39,33.6433333 C26.31,34.3333333 26.21,35.2033333 26.1,36.1933333 C25.66,28.7633333 21.2,20.5233333 18.03,19.4333333 C14.11,18.0933333 18.77,24.9533333 22.53,30.9833333 C24.2730524,33.6129644 25.3538141,36.6253732 25.68,39.7633333 C25.41,41.9733333 25.1,44.4433333 24.77,46.9533333 C24.68,47.3133333 24.6,47.6533333 24.53,48.0033333 C24.6078923,46.3830791 24.5005303,44.7592291 24.21,43.1633333 C23.32,38.9933333 17.31,31.2533333 14.32,32.9133333 C11.33,34.5733333 17.32,38.2333333 20.97,42.9833333 C22.878039,45.6191147 23.9257535,48.7797202 23.97,52.0333333 C23.97,52.2233333 23.97,52.4133333 23.97,52.6033333 C23.8,53.7533333 23.63,54.8633333 23.46,55.9133333 C23.06,58.3733333 22.7,60.6933333 22.35,62.9133333 C22.7069239,59.6605895 22.5924095,56.3733545 22.01,53.1533333 C20.7,47.0333333 16.23,41.7333333 13.1,41.3833333 C9.97,41.0333333 17.17,50.2533333 19.92,55.6333333 C21.4447349,58.7860494 22.1334396,62.2777821 21.92,65.7733333 C21.45,68.9733333 21.01,72.1233333 20.59,75.4533333 C20.2249445,71.2306827 19.522705,67.043998 18.49,62.9333333 C16.9,56.1533333 12.16,52.3533333 9.38,52.9333333 C6.6,53.5133333 10.1,56.9933333 15.38,64.7433333 C18.162652,68.8161031 19.8312411,73.5460707 20.22,78.4633333 C20.05,79.8633333 19.88,81.3033333 19.71,82.8033333 C19.52,84.5133333 19.42,86.3633333 19.4,88.2433333 C18.75,86.6633333 17.79,84.3533333 16.7,81.8233333 C15.4497861,79.0200419 14.4167475,76.1248593 13.61,73.1633333 C12.71,69.7133333 11.15,65.4733333 7.45,64.1633333 C6.92775963,63.9133938 6.32283467,63.9020296 5.79157533,64.1321781 C5.260316,64.3623265 4.85485913,64.8114012 4.68,65.3633333 C4.46637466,66.1608284 4.51546821,67.0059387 4.82,67.7733333 C6.18,72.0933333 9.38,75.9333333 11.87,79.6533333 C14.1624439,83.0662417 16.6744112,86.3264546 19.39,89.4133333 C19.39,91.1433333 19.44,92.8833333 19.53,94.5733333 L17.96,93.5733333 C16.1,92.3733333 10.47,82.9533333 7.12,78.8733333 C3.77,74.7933333 -1.69,74.3433333 1.05,79.7233333 C3.79,85.1033333 16.05,92.8133333 16.05,92.8133333 L19.55,95.0933333 C19.92,101.773333 20.76,107.423333 20.76,107.423333 L23.02,107.803333 C23.02,107.803333 20.92,104.313333 20.44,95.2533333 C21.1791587,94.2490407 22.0277066,93.33006 22.97,92.5133333 C28.09,87.7333333 37.72,85.9933333 39.18,78.0233333 C39.53,76.1033333 38.49,73.8633333 36.31,74.2833333 C34.75,74.5833333 33.31,76.2133333 32.47,77.4833333 C29.76,81.7333333 27.87,86.0033333 24.05,89.4833333 C23.88,89.6433333 21.51,92.1633333 20.38,93.6833333 C20.38,92.4233333 20.33,91.0733333 20.38,89.6233333 C21.1407676,87.653694 22.0569899,85.7476841 23.12,83.9233333 C25.96,79.1033333 30.87,75.8033333 34.03,71.1433333 C35.03,69.7133333 35.85,64.9733333 32.5,66.6133333 C31.01,67.3433333 29.5,69.9733333 28.5,71.2333333 C25.5,74.8233333 22.5,78.6833333 20.78,83.1033333 C20.78,82.6833333 20.86,82.2633333 20.89,81.8433333 C22.7479813,77.6019148 24.9416168,73.5156 27.45,69.6233333 C31.61,63.2133333 36.18,58.7433333 35.81,55.6233333 C35.44,52.5033333 29.81,58.6233333 25.34,66.6233333 C23.3403966,70.250512 21.9550039,74.1836755 21.24,78.2633333 C21.65,74.0833333 22.12,69.8633333 22.6,65.8033333 C23.4330665,61.6228112 25.21939,57.6908461 27.82,54.3133333 C32.1,49.1833333 35.57,44.9633333 35.62,40.4433333 C35.67,35.9233333 33.86,37.6133333 30.43,44.7433333 C28.08,49.6333333 24.75,56.0433333 23.19,61.0133333 C23.6,57.8233333 24,54.8033333 24.38,52.0833333 C25.19,49.6733333 27.38,43.5533333 30.38,39.2633333 C34.16,33.8033333 35.62,30.4333333 33.17,30.5233333 C31.47,30.5833333 27.53,37.8233333 25.41,44.7433333 C25.75,42.4333333 26.03,40.6733333 26.21,39.6333333 C26.29,39.1666667 26.36,38.6566667 26.42,38.1033333 C28.9327524,33.1672846 31.1304814,28.0771038 33,22.8633333 C36.32,13.7333333 36.61,5.53333333 34.09,9.41333333 Z" id="Path"></path>
                        </g>
                        <path d="M12.9133333,45.3333333 C13.3833333,48.4733333 20.0733333,58.9433333 22.4533333,64.7633333 C21.8833333,63.9533333 21.2233333,63.0933333 20.5533333,62.2533333 C20.0433333,61.2533333 19.6033333,60.2033333 19.0833333,59.3633333 C18.2933333,58.0733333 17.4533333,56.8133333 16.5433333,55.6033333 C15.1365054,53.6855339 13.5086171,51.9401691 11.6933333,50.4033333 C9.6074001,48.5608932 7.0282272,47.3686341 4.27333333,46.9733333 C3.56333333,46.8933333 -0.726666667,46.4033333 0.203333333,48.1533333 C0.371124925,48.4277592 0.60938764,48.6522095 0.893333333,48.8033333 C3.45333333,50.5133333 6.30333333,51.4833333 9.02333333,52.8933333 C13.0833333,54.9333333 18.3333333,60.3333333 20.5333333,62.6233333 L21.6233333,64.1933333 C17.7133333,60.2433333 11.1533333,57.8333333 8.83333333,58.7833333 C5.97333333,59.9633333 11.9733333,61.5133333 17.0533333,63.0433333 C19.3311018,63.6469938 21.4257744,64.8007807 23.1533333,66.4033333 C24.0933333,67.7633333 25.1533333,69.3133333 26.1533333,70.8833333 C26.2733333,71.1233333 26.4033333,71.3533333 26.5333333,71.5833333 C25.7828819,70.6359456 24.923651,69.7800711 23.9733333,69.0333333 C21.4133333,67.1333333 14.2233333,65.7633333 13.3633333,68.1633333 C12.5033333,70.5633333 17.6833333,69.6533333 22.0633333,70.5233333 C24.434573,71.0583434 26.5846214,72.3078845 28.2233333,74.1033333 C28.3133333,74.2233333 28.4033333,74.3233333 28.5033333,74.4333333 C28.9733333,75.1533333 29.4233333,75.8633333 29.8433333,76.5333333 C30.8433333,78.1133333 31.7733333,79.5933333 32.7033333,81.0233333 C31.2943095,79.0331664 29.6109841,77.2522082 27.7033333,75.7333333 C23.9533333,72.9433333 18.8233333,72.1833333 16.9033333,73.5333333 C14.9833333,74.8833333 23.5633333,76.5333333 27.7533333,78.1533333 C30.1627716,79.1690459 32.2728078,80.7834129 33.8833333,82.8433333 C35.1933333,84.8433333 36.5033333,86.8433333 37.8833333,88.9233333 C35.59723,86.7265315 33.1357339,84.7198772 30.5233333,82.9233333 C26.2833333,79.9233333 21.7633333,80.1133333 20.5233333,81.8133333 C19.2833333,83.5133333 22.9333333,83.7433333 29.7133333,85.4733333 C33.2852415,86.3809037 36.5571431,88.2082039 39.2033333,90.7733333 C39.7933333,91.6433333 40.4133333,92.5333333 41.0633333,93.4633333 C41.8427851,94.5678131 42.6771676,95.6324852 43.5633333,96.6533333 C42.4233333,96.0933333 40.7533333,95.2733333 38.8833333,94.3933333 C36.8014922,93.4376654 34.7956618,92.3244296 32.8833333,91.0633333 C30.6733333,89.5733333 27.7133333,87.9733333 24.9833333,89.0633333 C24.5658023,89.166822 24.214552,89.4480035 24.0221763,89.8327548 C23.8298007,90.2175062 23.8156057,90.6672154 23.9833333,91.0633333 C24.2687103,91.6523466 24.74432,92.1279563 25.3333333,92.4133333 C28.2333333,94.1633333 31.9133333,94.7333333 35.1533333,95.5833333 C38.1115611,96.3664271 41.1180332,96.9543594 44.1533333,97.3433333 C45.0133333,98.3433333 45.9033333,99.2633333 46.7833333,100.163333 L45.4033333,100.373333 C43.7633333,100.613333 35.9633333,98.1233333 32.0733333,97.4733333 C28.1833333,96.8233333 24.9033333,99.2933333 29.0733333,100.953333 C33.2433333,102.613333 43.9333333,100.883333 43.9333333,100.883333 L47.0233333,100.433333 C50.5233333,103.993333 53.7833333,106.743333 53.7833333,106.743333 L55.2333333,105.843333 C55.2333333,105.843333 52.3433333,104.923333 47.5933333,100.083333 C47.5157953,99.1568698 47.5392666,98.2247205 47.6633333,97.3033333 C48.1733333,92.0933333 52.6633333,86.3633333 49.5933333,81.1833333 C48.8433333,79.9333333 47.1533333,79.1833333 46.1333333,80.5033333 C45.5011435,81.6231664 45.2985122,82.9349376 45.5633333,84.1933333 C46.1433333,87.9133333 47.1933333,91.1933333 46.7733333,95.0633333 C46.7733333,95.2433333 46.6733333,97.8233333 46.7733333,99.2233333 C46.1333333,98.5433333 45.4633333,97.7933333 44.7733333,96.9633333 C44.2282961,95.4824866 43.8003155,93.9611494 43.4933333,92.4133333 C42.7133333,88.3133333 43.8333333,84.0333333 43.3033333,79.8733333 C43.1333333,78.5933333 41.3033333,75.5133333 40.2033333,78.0833333 C39.7333333,79.2233333 40.2033333,81.4433333 40.2033333,82.6733333 C40.1316363,86.2180899 40.6521213,89.7499528 41.7433333,93.1233333 C41.5533333,92.8733333 41.3633333,92.6233333 41.1833333,92.3633333 C40.1446932,89.0869634 39.3689025,85.7330058 38.8633333,82.3333333 C38.0333333,76.6933333 38.3933333,71.9333333 36.6433333,70.3333333 C34.8933333,68.7333333 34.7533333,75.0233333 36.1833333,81.6333333 C36.8568455,84.6563321 38.0223625,87.5481655 39.6333333,90.1933333 C37.8033333,87.6433333 35.9833333,85.0533333 34.2533333,82.5333333 C32.6581708,79.7841114 31.7172133,76.7046138 31.5033333,73.5333333 C31.3733333,68.5333333 31.2233333,64.4733333 29.0233333,61.9133333 C26.8233333,59.3533333 26.6433333,61.1933333 28.2433333,66.9133333 C29.3433333,70.8133333 30.6333333,76.0433333 32.2433333,79.6033333 C30.9033333,77.6033333 29.6333333,75.7233333 28.5033333,74.0133333 C27.0785202,70.7668615 26.0705038,67.3530461 25.5033333,63.8533333 C24.9333333,58.9333333 24.0933333,56.3233333 22.7533333,57.5833333 C21.8333333,58.4533333 23.2033333,64.4533333 25.4333333,69.3833333 C24.4333333,67.9133333 23.7633333,66.7933333 23.3533333,66.1233333 C23.1666667,65.8233333 22.9566667,65.49 22.7233333,65.1233333 C21.7168917,61.1188257 20.4611096,57.1811473 18.9633333,53.3333333 C16.3333333,46.6033333 12.4133333,41.8633333 12.9133333,45.3333333 Z" id="Path" fill="#50C96C"></path>
                        <path d="M12.9133333,45.3333333 C13.3833333,48.4733333 20.0733333,58.9433333 22.4533333,64.7633333 C21.8833333,63.9533333 21.2233333,63.0933333 20.5533333,62.2533333 C20.0433333,61.2533333 19.6033333,60.2033333 19.0833333,59.3633333 C18.2933333,58.0733333 17.4533333,56.8133333 16.5433333,55.6033333 C15.1365054,53.6855339 13.5086171,51.9401691 11.6933333,50.4033333 C9.6074001,48.5608932 7.0282272,47.3686341 4.27333333,46.9733333 C3.56333333,46.8933333 -0.726666667,46.4033333 0.203333333,48.1533333 C0.371124925,48.4277592 0.60938764,48.6522095 0.893333333,48.8033333 C3.45333333,50.5133333 6.30333333,51.4833333 9.02333333,52.8933333 C13.0833333,54.9333333 18.3333333,60.3333333 20.5333333,62.6233333 L21.6233333,64.1933333 C17.7133333,60.2433333 11.1533333,57.8333333 8.83333333,58.7833333 C5.97333333,59.9633333 11.9733333,61.5133333 17.0533333,63.0433333 C19.3311018,63.6469938 21.4257744,64.8007807 23.1533333,66.4033333 C24.0933333,67.7633333 25.1533333,69.3133333 26.1533333,70.8833333 C26.2733333,71.1233333 26.4033333,71.3533333 26.5333333,71.5833333 C25.7828819,70.6359456 24.923651,69.7800711 23.9733333,69.0333333 C21.4133333,67.1333333 14.2233333,65.7633333 13.3633333,68.1633333 C12.5033333,70.5633333 17.6833333,69.6533333 22.0633333,70.5233333 C24.434573,71.0583434 26.5846214,72.3078845 28.2233333,74.1033333 C28.3133333,74.2233333 28.4033333,74.3233333 28.5033333,74.4333333 C28.9733333,75.1533333 29.4233333,75.8633333 29.8433333,76.5333333 C30.8433333,78.1133333 31.7733333,79.5933333 32.7033333,81.0233333 C31.2943095,79.0331664 29.6109841,77.2522082 27.7033333,75.7333333 C23.9533333,72.9433333 18.8233333,72.1833333 16.9033333,73.5333333 C14.9833333,74.8833333 23.5633333,76.5333333 27.7533333,78.1533333 C30.1627716,79.1690459 32.2728078,80.7834129 33.8833333,82.8433333 C35.1933333,84.8433333 36.5033333,86.8433333 37.8833333,88.9233333 C35.59723,86.7265315 33.1357339,84.7198772 30.5233333,82.9233333 C26.2833333,79.9233333 21.7633333,80.1133333 20.5233333,81.8133333 C19.2833333,83.5133333 22.9333333,83.7433333 29.7133333,85.4733333 C33.2852415,86.3809037 36.5571431,88.2082039 39.2033333,90.7733333 C39.7933333,91.6433333 40.4133333,92.5333333 41.0633333,93.4633333 C41.8427851,94.5678131 42.6771676,95.6324852 43.5633333,96.6533333 C42.4233333,96.0933333 40.7533333,95.2733333 38.8833333,94.3933333 C36.8014922,93.4376654 34.7956618,92.3244296 32.8833333,91.0633333 C30.6733333,89.5733333 27.7133333,87.9733333 24.9833333,89.0633333 C24.5658023,89.166822 24.214552,89.4480035 24.0221763,89.8327548 C23.8298007,90.2175062 23.8156057,90.6672154 23.9833333,91.0633333 C24.2687103,91.6523466 24.74432,92.1279563 25.3333333,92.4133333 C28.2333333,94.1633333 31.9133333,94.7333333 35.1533333,95.5833333 C38.1115611,96.3664271 41.1180332,96.9543594 44.1533333,97.3433333 C45.0133333,98.3433333 45.9033333,99.2633333 46.7833333,100.163333 L45.4033333,100.373333 C43.7633333,100.613333 35.9633333,98.1233333 32.0733333,97.4733333 C28.1833333,96.8233333 24.9033333,99.2933333 29.0733333,100.953333 C33.2433333,102.613333 43.9333333,100.883333 43.9333333,100.883333 L47.0233333,100.433333 C50.5233333,103.993333 53.7833333,106.743333 53.7833333,106.743333 L55.2333333,105.843333 C55.2333333,105.843333 52.3433333,104.923333 47.5933333,100.083333 C47.5157953,99.1568698 47.5392666,98.2247205 47.6633333,97.3033333 C48.1733333,92.0933333 52.6633333,86.3633333 49.5933333,81.1833333 C48.8433333,79.9333333 47.1533333,79.1833333 46.1333333,80.5033333 C45.5011435,81.6231664 45.2985122,82.9349376 45.5633333,84.1933333 C46.1433333,87.9133333 47.1933333,91.1933333 46.7733333,95.0633333 C46.7733333,95.2433333 46.6733333,97.8233333 46.7733333,99.2233333 C46.1333333,98.5433333 45.4633333,97.7933333 44.7733333,96.9633333 C44.2282961,95.4824866 43.8003155,93.9611494 43.4933333,92.4133333 C42.7133333,88.3133333 43.8333333,84.0333333 43.3033333,79.8733333 C43.1333333,78.5933333 41.3033333,75.5133333 40.2033333,78.0833333 C39.7333333,79.2233333 40.2033333,81.4433333 40.2033333,82.6733333 C40.1316363,86.2180899 40.6521213,89.7499528 41.7433333,93.1233333 C41.5533333,92.8733333 41.3633333,92.6233333 41.1833333,92.3633333 C40.1446932,89.0869634 39.3689025,85.7330058 38.8633333,82.3333333 C38.0333333,76.6933333 38.3933333,71.9333333 36.6433333,70.3333333 C34.8933333,68.7333333 34.7533333,75.0233333 36.1833333,81.6333333 C36.8568455,84.6563321 38.0223625,87.5481655 39.6333333,90.1933333 C37.8033333,87.6433333 35.9833333,85.0533333 34.2533333,82.5333333 C32.6581708,79.7841114 31.7172133,76.7046138 31.5033333,73.5333333 C31.3733333,68.5333333 31.2233333,64.4733333 29.0233333,61.9133333 C26.8233333,59.3533333 26.6433333,61.1933333 28.2433333,66.9133333 C29.3433333,70.8133333 30.6333333,76.0433333 32.2433333,79.6033333 C30.9033333,77.6033333 29.6333333,75.7233333 28.5033333,74.0133333 C27.0785202,70.7668615 26.0705038,67.3530461 25.5033333,63.8533333 C24.9333333,58.9333333 24.0933333,56.3233333 22.7533333,57.5833333 C21.8333333,58.4533333 23.2033333,64.4533333 25.4333333,69.3833333 C24.4333333,67.9133333 23.7633333,66.7933333 23.3533333,66.1233333 C23.1666667,65.8233333 22.9566667,65.49 22.7233333,65.1233333 C21.7168917,61.1188257 20.4611096,57.1811473 18.9633333,53.3333333 C16.3333333,46.6033333 12.4133333,41.8633333 12.9133333,45.3333333 Z" id="Path" fill="#FFFFFF" opacity="0.6"></path>
                        <path d="M85.3333333,42.8533333 C82.6633333,44.5733333 75.8933333,54.9833333 71.5733333,59.5633333 C72.0733333,58.7033333 72.5733333,57.7433333 73.0733333,56.7933333 C73.7433333,55.9233333 74.5433333,55.0833333 75.0733333,54.2633333 C75.9233333,53.0033333 76.7233333,51.7133333 77.4533333,50.3833333 C78.61649,48.3143419 79.5327596,46.1159662 80.1833333,43.8333333 C81.0076457,41.1719478 81.0285168,38.3265245 80.2433333,35.6533333 C80.0333333,34.9733333 78.7033333,30.8633333 77.4933333,32.4433333 C77.3140709,32.7078478 77.2071933,33.01469 77.1833333,33.3333333 C76.6733333,36.3333333 76.9733333,39.3333333 76.8133333,42.4233333 C76.5833333,46.9833333 73.8733333,53.9833333 72.6533333,56.9433333 C72.3933333,57.3833333 72.0633333,57.9433333 71.6533333,58.5833333 C73.6533333,53.3933333 73.1233333,46.4233333 71.3033333,44.7033333 C69.0433333,42.5833333 70.1133333,48.7033333 70.8233333,53.9433333 C71.203928,56.270423 71.0152147,58.6550727 70.2733333,60.8933333 C69.4133333,62.3033333 68.4433333,63.8933333 67.4533333,65.5033333 L66.9633333,66.1433333 C67.5530014,65.0717475 68.0129088,63.9337285 68.3333333,62.7533333 C69.0033333,59.6433333 67.3333333,52.5333333 64.7433333,52.7533333 C62.1533333,52.9733333 65.1733333,57.2933333 66.1833333,61.6433333 C66.6824264,64.024251 66.4308729,66.5013544 65.4633333,68.7333333 L65.2833333,69.1233333 C64.8133333,69.8533333 64.3633333,70.5533333 63.9233333,71.2133333 C62.9233333,72.7733333 61.9233333,74.2133333 61.0033333,75.6633333 C62.2425845,73.5610417 63.1721535,71.2910073 63.7633333,68.9233333 C64.7633333,64.3533333 63.3333333,59.3733333 61.3133333,58.1733333 C59.2933333,56.9733333 61.3133333,65.4633333 61.5833333,69.9633333 C61.6520236,72.5783413 61.0495316,75.1673353 59.8333333,77.4833333 C58.5333333,79.4833333 57.2733333,81.4833333 55.9633333,83.6633333 C56.9991888,80.6721286 57.7917654,77.6021482 58.3333333,74.4833333 C59.3333333,69.3833333 57.2733333,65.3433333 55.1933333,64.8933333 C53.1133333,64.4433333 54.4333333,67.8933333 55.6533333,74.7733333 C56.3013401,78.4008408 55.9875889,82.1348248 54.7433333,85.6033333 C54.1933333,86.5033333 53.6433333,87.4333333 53.0633333,88.4033333 C52.4833333,89.3733333 51.7833333,90.7333333 51.1833333,92.0133333 C51.1833333,90.7333333 51.2833333,88.8733333 51.3133333,86.8133333 C51.3259137,84.5194932 51.5097581,82.2297943 51.8633333,79.9633333 C52.3133333,77.3433333 52.5533333,73.9633333 50.4333333,71.9633333 C50.1559706,71.6280222 49.7434927,71.4339111 49.3083333,71.4339111 C48.873174,71.4339111 48.4606961,71.6280222 48.1833333,71.9633333 C47.7917848,72.4381395 47.5669394,73.0283586 47.5433333,73.6433333 C47.1433333,77.0133333 48.1433333,80.6433333 48.6933333,83.9033333 C49.2080844,86.9462131 49.9195766,89.9525183 50.8233333,92.9033333 C50.2933333,94.0733333 49.8233333,95.2833333 49.3333333,96.4533333 L48.5733333,95.2833333 C47.6833333,93.8933333 46.7333333,85.7533333 45.7133333,81.9433333 C44.6933333,78.1333333 41.0933333,76.1633333 41.3133333,80.6633333 C41.5333333,85.1633333 47.5133333,94.1833333 47.5133333,94.1833333 L49.2033333,96.8033333 C47.4033333,101.453333 46.2033333,105.563333 46.2033333,105.563333 L47.6133333,106.513333 C47.6133333,106.513333 47.2633333,103.513333 49.7133333,97.1833333 C50.5367955,96.6849478 51.4162146,96.285517 52.3333333,95.9933333 C57.3333333,94.3133333 64.3333333,96.0733333 67.8133333,91.1033333 C68.6433333,89.9033333 68.6233333,88.1033333 67.0133333,87.6733333 C65.7313076,87.553935 64.450107,87.909824 63.4133333,88.6733333 C60.2633333,90.7333333 57.6733333,93.0633333 54.0033333,94.2533333 C53.8333333,94.3133333 51.4533333,95.3033333 50.2133333,95.9833333 C50.5733333,95.1233333 50.9833333,94.1933333 51.4533333,93.2233333 C52.5712383,92.1247851 53.7787504,91.1213124 55.0633333,90.2233333 C58.4733333,87.8133333 62.8333333,87.0733333 66.4133333,84.8633333 C67.5033333,84.1933333 69.5433333,81.2233333 66.7633333,81.3133333 C65.5233333,81.3133333 63.6933333,82.6833333 62.5933333,83.2233333 C59.332939,84.6187733 56.3283237,86.5486218 53.7033333,88.9333333 C53.8533333,88.6633333 54.0033333,88.3833333 54.1633333,88.1133333 C56.7127259,85.7788783 59.4447723,83.6520956 62.3333333,81.7533333 C67.1333333,78.6733333 71.6133333,77.0333333 72.3333333,74.7533333 C73.0533333,72.4733333 67.3333333,74.9633333 61.8533333,79.0033333 C59.3759008,80.8592674 57.2233719,83.1131714 55.4833333,85.6733333 C57.0433333,82.9533333 58.6633333,80.2233333 60.2333333,77.6133333 C62.0933919,75.0322776 64.52283,72.9142181 67.3333333,71.4233333 C71.8333333,69.2433333 75.4833333,67.4233333 76.9033333,64.4233333 C78.3233333,61.4233333 76.5733333,61.9633333 72.0533333,65.7633333 C68.9533333,68.3733333 64.7233333,71.7033333 62.1333333,74.6133333 C63.3933333,72.6133333 64.5933333,70.6133333 65.6833333,68.9033333 C68.0482901,66.2779962 70.7363634,63.9628931 73.6833333,62.0133333 C77.9333333,59.4633333 79.9633333,57.6133333 78.2633333,56.9233333 C77.0833333,56.4433333 72.1833333,60.1633333 68.6133333,64.2233333 L70.7233333,60.9933333 C70.9233333,60.6933333 71.1333333,60.3633333 71.3433333,59.9933333 C74.5636769,57.4240451 77.6196778,54.6552748 80.4933333,51.7033333 C85.5433333,46.4733333 88.2533333,40.9833333 85.3333333,42.8533333 Z" id="Path" fill="#50C96C"></path>
                        <path d="M85.3333333,42.8533333 C82.6633333,44.5733333 75.8933333,54.9833333 71.5733333,59.5633333 C72.0733333,58.7033333 72.5733333,57.7433333 73.0733333,56.7933333 C73.7433333,55.9233333 74.5433333,55.0833333 75.0733333,54.2633333 C75.9233333,53.0033333 76.7233333,51.7133333 77.4533333,50.3833333 C78.61649,48.3143419 79.5327596,46.1159662 80.1833333,43.8333333 C81.0076457,41.1719478 81.0285168,38.3265245 80.2433333,35.6533333 C80.0333333,34.9733333 78.7033333,30.8633333 77.4933333,32.4433333 C77.3140709,32.7078478 77.2071933,33.01469 77.1833333,33.3333333 C76.6733333,36.3333333 76.9733333,39.3333333 76.8133333,42.4233333 C76.5833333,46.9833333 73.8733333,53.9833333 72.6533333,56.9433333 C72.3933333,57.3833333 72.0633333,57.9433333 71.6533333,58.5833333 C73.6533333,53.3933333 73.1233333,46.4233333 71.3033333,44.7033333 C69.0433333,42.5833333 70.1133333,48.7033333 70.8233333,53.9433333 C71.203928,56.270423 71.0152147,58.6550727 70.2733333,60.8933333 C69.4133333,62.3033333 68.4433333,63.8933333 67.4533333,65.5033333 L66.9633333,66.1433333 C67.5530014,65.0717475 68.0129088,63.9337285 68.3333333,62.7533333 C69.0033333,59.6433333 67.3333333,52.5333333 64.7433333,52.7533333 C62.1533333,52.9733333 65.1733333,57.2933333 66.1833333,61.6433333 C66.6824264,64.024251 66.4308729,66.5013544 65.4633333,68.7333333 L65.2833333,69.1233333 C64.8133333,69.8533333 64.3633333,70.5533333 63.9233333,71.2133333 C62.9233333,72.7733333 61.9233333,74.2133333 61.0033333,75.6633333 C62.2425845,73.5610417 63.1721535,71.2910073 63.7633333,68.9233333 C64.7633333,64.3533333 63.3333333,59.3733333 61.3133333,58.1733333 C59.2933333,56.9733333 61.3133333,65.4633333 61.5833333,69.9633333 C61.6520236,72.5783413 61.0495316,75.1673353 59.8333333,77.4833333 C58.5333333,79.4833333 57.2733333,81.4833333 55.9633333,83.6633333 C56.9991888,80.6721286 57.7917654,77.6021482 58.3333333,74.4833333 C59.3333333,69.3833333 57.2733333,65.3433333 55.1933333,64.8933333 C53.1133333,64.4433333 54.4333333,67.8933333 55.6533333,74.7733333 C56.3013401,78.4008408 55.9875889,82.1348248 54.7433333,85.6033333 C54.1933333,86.5033333 53.6433333,87.4333333 53.0633333,88.4033333 C52.4833333,89.3733333 51.7833333,90.7333333 51.1833333,92.0133333 C51.1833333,90.7333333 51.2833333,88.8733333 51.3133333,86.8133333 C51.3259137,84.5194932 51.5097581,82.2297943 51.8633333,79.9633333 C52.3133333,77.3433333 52.5533333,73.9633333 50.4333333,71.9633333 C50.1559706,71.6280222 49.7434927,71.4339111 49.3083333,71.4339111 C48.873174,71.4339111 48.4606961,71.6280222 48.1833333,71.9633333 C47.7917848,72.4381395 47.5669394,73.0283586 47.5433333,73.6433333 C47.1433333,77.0133333 48.1433333,80.6433333 48.6933333,83.9033333 C49.2080844,86.9462131 49.9195766,89.9525183 50.8233333,92.9033333 C50.2933333,94.0733333 49.8233333,95.2833333 49.3333333,96.4533333 L48.5733333,95.2833333 C47.6833333,93.8933333 46.7333333,85.7533333 45.7133333,81.9433333 C44.6933333,78.1333333 41.0933333,76.1633333 41.3133333,80.6633333 C41.5333333,85.1633333 47.5133333,94.1833333 47.5133333,94.1833333 L49.2033333,96.8033333 C47.4033333,101.453333 46.2033333,105.563333 46.2033333,105.563333 L47.6133333,106.513333 C47.6133333,106.513333 47.2633333,103.513333 49.7133333,97.1833333 C50.5367955,96.6849478 51.4162146,96.285517 52.3333333,95.9933333 C57.3333333,94.3133333 64.3333333,96.0733333 67.8133333,91.1033333 C68.6433333,89.9033333 68.6233333,88.1033333 67.0133333,87.6733333 C65.7313076,87.553935 64.450107,87.909824 63.4133333,88.6733333 C60.2633333,90.7333333 57.6733333,93.0633333 54.0033333,94.2533333 C53.8333333,94.3133333 51.4533333,95.3033333 50.2133333,95.9833333 C50.5733333,95.1233333 50.9833333,94.1933333 51.4533333,93.2233333 C52.5712383,92.1247851 53.7787504,91.1213124 55.0633333,90.2233333 C58.4733333,87.8133333 62.8333333,87.0733333 66.4133333,84.8633333 C67.5033333,84.1933333 69.5433333,81.2233333 66.7633333,81.3133333 C65.5233333,81.3133333 63.6933333,82.6833333 62.5933333,83.2233333 C59.332939,84.6187733 56.3283237,86.5486218 53.7033333,88.9333333 C53.8533333,88.6633333 54.0033333,88.3833333 54.1633333,88.1133333 C56.7127259,85.7788783 59.4447723,83.6520956 62.3333333,81.7533333 C67.1333333,78.6733333 71.6133333,77.0333333 72.3333333,74.7533333 C73.0533333,72.4733333 67.3333333,74.9633333 61.8533333,79.0033333 C59.3759008,80.8592674 57.2233719,83.1131714 55.4833333,85.6733333 C57.0433333,82.9533333 58.6633333,80.2233333 60.2333333,77.6133333 C62.0933919,75.0322776 64.52283,72.9142181 67.3333333,71.4233333 C71.8333333,69.2433333 75.4833333,67.4233333 76.9033333,64.4233333 C78.3233333,61.4233333 76.5733333,61.9633333 72.0533333,65.7633333 C68.9533333,68.3733333 64.7233333,71.7033333 62.1333333,74.6133333 C63.3933333,72.6133333 64.5933333,70.6133333 65.6833333,68.9033333 C68.0482901,66.2779962 70.7363634,63.9628931 73.6833333,62.0133333 C77.9333333,59.4633333 79.9633333,57.6133333 78.2633333,56.9233333 C77.0833333,56.4433333 72.1833333,60.1633333 68.6133333,64.2233333 L70.7233333,60.9933333 C70.9233333,60.6933333 71.1333333,60.3633333 71.3433333,59.9933333 C74.5636769,57.4240451 77.6196778,54.6552748 80.4933333,51.7033333 C85.5433333,46.4733333 88.2533333,40.9833333 85.3333333,42.8533333 Z" id="Path" fill="#FFFFFF" opacity="0.6"></path>
                        <path d="M114.653333,43.1233333 C111.973333,44.8533333 105.203333,55.2633333 100.883333,59.8333333 C101.383333,58.9833333 101.883333,58.0233333 102.383333,57.0633333 C103.053333,56.2033333 103.853333,55.3533333 104.383333,54.5433333 C105.233333,53.2833333 106.033333,51.9933333 106.763333,50.6633333 C107.924759,48.5934986 108.840942,46.3953304 109.493333,44.1133333 C110.3162,41.4521978 110.340538,38.6081614 109.563333,35.9333333 C109.343333,35.2533333 108.013333,31.1433333 106.803333,32.7133333 C106.625307,32.9821693 106.518626,33.2918891 106.493333,33.6133333 C105.993333,36.6133333 106.283333,39.6133333 106.123333,42.6933333 C105.893333,47.2633333 103.183333,54.2633333 101.963333,57.2233333 C101.703333,57.6633333 101.373333,58.2233333 100.963333,58.8633333 C102.963333,53.6633333 102.443333,46.6933333 100.613333,44.9833333 C98.3533333,42.8633333 99.4233333,48.9833333 100.133333,54.2233333 C100.519963,56.5468498 100.331119,58.9297201 99.5833333,61.1633333 C98.7233333,62.5833333 97.7533333,64.1633333 96.7633333,65.7833333 C96.5933333,65.9933333 96.4333333,66.2133333 96.2733333,66.4233333 C96.8284711,65.3471927 97.2547488,64.2093331 97.5433333,63.0333333 C98.2233333,59.9233333 96.5433333,52.8133333 93.9533333,53.0333333 C91.3633333,53.2533333 94.3833333,57.5733333 95.3933333,61.9233333 C95.8936311,64.3008796 95.642008,66.7751741 94.6733333,69.0033333 L94.4933333,69.4033333 C94.0233333,70.1233333 93.5733333,70.8333333 93.1333333,71.4933333 C92.1333333,73.0433333 91.1333333,74.4933333 90.2133333,75.9433333 C91.4543509,73.8383631 92.3839982,71.5647692 92.9733333,69.1933333 C93.9733333,64.6333333 92.5433333,59.6533333 90.5233333,58.4533333 C88.5033333,57.2533333 90.5733333,65.7433333 90.7933333,70.2433333 C90.8620236,72.8583413 90.2595316,75.4473353 89.0433333,77.7633333 C87.7433333,79.7633333 86.4833333,81.7633333 85.1733333,83.9433333 C86.2209974,80.9561555 87.0269245,77.8896197 87.5833333,74.7733333 C88.5833333,69.6733333 86.5233333,65.6333333 84.4433333,65.1833333 C82.3633333,64.7333333 83.6833333,68.1833333 84.9133333,75.0633333 C85.5530045,78.6919434 85.2359167,82.4246193 83.9933333,85.8933333 C83.4433333,86.7933333 82.8933333,87.7233333 82.3133333,88.6933333 C81.7333333,89.6633333 81.0333333,91.0233333 80.4333333,92.2933333 C80.4333333,91.0233333 80.5333333,89.1633333 80.5633333,87.0933333 C80.5762996,84.8028278 80.7601432,82.5164817 81.1133333,80.2533333 C81.5633333,77.6333333 81.8033333,74.2533333 79.6833333,72.2533333 C79.4059706,71.9180222 78.9934927,71.7239111 78.5583333,71.7239111 C78.123174,71.7239111 77.7106961,71.9180222 77.4333333,72.2533333 C77.0417848,72.7281395 76.8169394,73.3183586 76.7933333,73.9333333 C76.3933333,77.2933333 77.3933333,80.9333333 77.9433333,84.1933333 C78.4586099,87.2163916 79.1701139,90.2027045 80.0733333,93.1333333 C79.5433333,94.3133333 79.0733333,95.5133333 78.5833333,96.6933333 L77.8233333,95.5133333 C76.9333333,94.1233333 75.9833333,85.9933333 74.9633333,82.1833333 C73.9433333,78.3733333 70.3433333,76.4033333 70.5633333,80.9033333 C70.7833333,85.4033333 76.7633333,94.4133333 76.7633333,94.4133333 L78.4533333,97.0333333 C76.6533333,101.693333 75.4533333,105.803333 75.4533333,105.803333 L76.8633333,106.753333 C76.8633333,106.753333 76.5133333,103.753333 78.9633333,97.4233333 C79.7733761,96.9631524 80.6319577,96.5942306 81.5233333,96.3233333 C86.5233333,94.6433333 93.5233333,96.4133333 97.0033333,91.4433333 C97.8333333,90.2333333 97.8133333,88.3933333 96.2033333,88.0133333 C94.9208852,87.8891547 93.6380033,88.2455108 92.6033333,89.0133333 C89.4533333,91.0733333 86.8633333,93.4033333 83.1933333,94.5933333 C83.0233333,94.6433333 80.6433333,95.6433333 79.4033333,96.3233333 C79.7633333,95.4533333 80.1733333,94.5333333 80.6433333,93.5533333 C81.7636288,92.4574325 82.9709156,91.454147 84.2533333,90.5533333 C87.6733333,88.1433333 92.0233333,87.4033333 95.6033333,85.1933333 C96.7033333,84.5233333 98.7333333,81.5533333 95.9533333,81.6333333 C94.7133333,81.6333333 92.8833333,83.0133333 91.7833333,83.5433333 C88.5245137,84.9460904 85.5205308,86.8789118 82.8933333,89.2633333 L83.3533333,88.4333333 C85.9182255,86.1154761 88.6635635,84.0054781 91.5633333,82.1233333 C96.3633333,79.0333333 100.843333,77.4033333 101.563333,75.1233333 C102.283333,72.8433333 96.5633333,75.3333333 91.0833333,79.3733333 C88.6059008,81.2292674 86.4533719,83.4831714 84.7133333,86.0433333 C86.2733333,83.3233333 87.8933333,80.5933333 89.4633333,77.9733333 C91.3140476,75.3872678 93.7325678,73.2595174 96.5333333,71.7533333 C101.033333,69.5733333 104.683333,67.7533333 106.103333,64.7033333 C107.523333,61.6533333 105.773333,62.2333333 101.253333,66.0433333 C98.1533333,68.6433333 93.9233333,71.9833333 91.3333333,74.8933333 C92.5933333,72.8433333 93.7933333,70.8933333 94.8833333,69.1733333 C97.2516613,66.5543376 99.9393317,64.242941 102.883333,62.2933333 C107.133333,59.7333333 109.163333,57.8933333 107.463333,57.2033333 C106.283333,56.7233333 101.383333,60.4433333 97.8133333,64.5033333 C98.8133333,63.0333333 99.4933333,61.9233333 99.9233333,61.2733333 C100.123333,60.9733333 100.333333,60.6433333 100.543333,60.2733333 C103.765878,57.7064998 106.825152,54.9411291 109.703333,51.9933333 C114.843333,46.7533333 117.553333,41.2633333 114.653333,43.1233333 Z" id="Path" fill="#50C96C"></path>
                        <path d="M114.653333,43.1233333 C111.973333,44.8533333 105.203333,55.2633333 100.883333,59.8333333 C101.383333,58.9833333 101.883333,58.0233333 102.383333,57.0633333 C103.053333,56.2033333 103.853333,55.3533333 104.383333,54.5433333 C105.233333,53.2833333 106.033333,51.9933333 106.763333,50.6633333 C107.924759,48.5934986 108.840942,46.3953304 109.493333,44.1133333 C110.3162,41.4521978 110.340538,38.6081614 109.563333,35.9333333 C109.343333,35.2533333 108.013333,31.1433333 106.803333,32.7133333 C106.625307,32.9821693 106.518626,33.2918891 106.493333,33.6133333 C105.993333,36.6133333 106.283333,39.6133333 106.123333,42.6933333 C105.893333,47.2633333 103.183333,54.2633333 101.963333,57.2233333 C101.703333,57.6633333 101.373333,58.2233333 100.963333,58.8633333 C102.963333,53.6633333 102.443333,46.6933333 100.613333,44.9833333 C98.3533333,42.8633333 99.4233333,48.9833333 100.133333,54.2233333 C100.519963,56.5468498 100.331119,58.9297201 99.5833333,61.1633333 C98.7233333,62.5833333 97.7533333,64.1633333 96.7633333,65.7833333 C96.5933333,65.9933333 96.4333333,66.2133333 96.2733333,66.4233333 C96.8284711,65.3471927 97.2547488,64.2093331 97.5433333,63.0333333 C98.2233333,59.9233333 96.5433333,52.8133333 93.9533333,53.0333333 C91.3633333,53.2533333 94.3833333,57.5733333 95.3933333,61.9233333 C95.8936311,64.3008796 95.642008,66.7751741 94.6733333,69.0033333 L94.4933333,69.4033333 C94.0233333,70.1233333 93.5733333,70.8333333 93.1333333,71.4933333 C92.1333333,73.0433333 91.1333333,74.4933333 90.2133333,75.9433333 C91.4543509,73.8383631 92.3839982,71.5647692 92.9733333,69.1933333 C93.9733333,64.6333333 92.5433333,59.6533333 90.5233333,58.4533333 C88.5033333,57.2533333 90.5733333,65.7433333 90.7933333,70.2433333 C90.8620236,72.8583413 90.2595316,75.4473353 89.0433333,77.7633333 C87.7433333,79.7633333 86.4833333,81.7633333 85.1733333,83.9433333 C86.2209974,80.9561555 87.0269245,77.8896197 87.5833333,74.7733333 C88.5833333,69.6733333 86.5233333,65.6333333 84.4433333,65.1833333 C82.3633333,64.7333333 83.6833333,68.1833333 84.9133333,75.0633333 C85.5530045,78.6919434 85.2359167,82.4246193 83.9933333,85.8933333 C83.4433333,86.7933333 82.8933333,87.7233333 82.3133333,88.6933333 C81.7333333,89.6633333 81.0333333,91.0233333 80.4333333,92.2933333 C80.4333333,91.0233333 80.5333333,89.1633333 80.5633333,87.0933333 C80.5762996,84.8028278 80.7601432,82.5164817 81.1133333,80.2533333 C81.5633333,77.6333333 81.8033333,74.2533333 79.6833333,72.2533333 C79.4059706,71.9180222 78.9934927,71.7239111 78.5583333,71.7239111 C78.123174,71.7239111 77.7106961,71.9180222 77.4333333,72.2533333 C77.0417848,72.7281395 76.8169394,73.3183586 76.7933333,73.9333333 C76.3933333,77.2933333 77.3933333,80.9333333 77.9433333,84.1933333 C78.4586099,87.2163916 79.1701139,90.2027045 80.0733333,93.1333333 C79.5433333,94.3133333 79.0733333,95.5133333 78.5833333,96.6933333 L77.8233333,95.5133333 C76.9333333,94.1233333 75.9833333,85.9933333 74.9633333,82.1833333 C73.9433333,78.3733333 70.3433333,76.4033333 70.5633333,80.9033333 C70.7833333,85.4033333 76.7633333,94.4133333 76.7633333,94.4133333 L78.4533333,97.0333333 C76.6533333,101.693333 75.4533333,105.803333 75.4533333,105.803333 L76.8633333,106.753333 C76.8633333,106.753333 76.5133333,103.753333 78.9633333,97.4233333 C79.7733761,96.9631524 80.6319577,96.5942306 81.5233333,96.3233333 C86.5233333,94.6433333 93.5233333,96.4133333 97.0033333,91.4433333 C97.8333333,90.2333333 97.8133333,88.3933333 96.2033333,88.0133333 C94.9208852,87.8891547 93.6380033,88.2455108 92.6033333,89.0133333 C89.4533333,91.0733333 86.8633333,93.4033333 83.1933333,94.5933333 C83.0233333,94.6433333 80.6433333,95.6433333 79.4033333,96.3233333 C79.7633333,95.4533333 80.1733333,94.5333333 80.6433333,93.5533333 C81.7636288,92.4574325 82.9709156,91.454147 84.2533333,90.5533333 C87.6733333,88.1433333 92.0233333,87.4033333 95.6033333,85.1933333 C96.7033333,84.5233333 98.7333333,81.5533333 95.9533333,81.6333333 C94.7133333,81.6333333 92.8833333,83.0133333 91.7833333,83.5433333 C88.5245137,84.9460904 85.5205308,86.8789118 82.8933333,89.2633333 L83.3533333,88.4333333 C85.9182255,86.1154761 88.6635635,84.0054781 91.5633333,82.1233333 C96.3633333,79.0333333 100.843333,77.4033333 101.563333,75.1233333 C102.283333,72.8433333 96.5633333,75.3333333 91.0833333,79.3733333 C88.6059008,81.2292674 86.4533719,83.4831714 84.7133333,86.0433333 C86.2733333,83.3233333 87.8933333,80.5933333 89.4633333,77.9733333 C91.3140476,75.3872678 93.7325678,73.2595174 96.5333333,71.7533333 C101.033333,69.5733333 104.683333,67.7533333 106.103333,64.7033333 C107.523333,61.6533333 105.773333,62.2333333 101.253333,66.0433333 C98.1533333,68.6433333 93.9233333,71.9833333 91.3333333,74.8933333 C92.5933333,72.8433333 93.7933333,70.8933333 94.8833333,69.1733333 C97.2516613,66.5543376 99.9393317,64.242941 102.883333,62.2933333 C107.133333,59.7333333 109.163333,57.8933333 107.463333,57.2033333 C106.283333,56.7233333 101.383333,60.4433333 97.8133333,64.5033333 C98.8133333,63.0333333 99.4933333,61.9233333 99.9233333,61.2733333 C100.123333,60.9733333 100.333333,60.6433333 100.543333,60.2733333 C103.765878,57.7064998 106.825152,54.9411291 109.703333,51.9933333 C114.843333,46.7533333 117.553333,41.2633333 114.653333,43.1233333 Z" id="Path" fill="#FFFFFF" opacity="0.6"></path>
                    </g>
                    <g id="Group-12" transform="translate(110.000000, 0.000000)">
                        <line x1="112.503594" y1="213.30539" x2="167.894092" y2="173.626191" id="Path" stroke="#263238" stroke-width="2.48020827" stroke-linecap="round" stroke-linejoin="round"></line>
                        <polygon id="Path" fill="#50C96C" fill-rule="nonzero" style="mix-blend-mode: multiply;" points="116.008194 -8.95283784e-14 -1.58593127e-12 79.0613961 25.3637988 183.605391 111.464095 212.47379 226.343689 130.620594 212.47379 25.4528988"></polygon>
                        <line x1="0.623699969" y1="79.0613961" x2="7.98929961" y2="111.731395" id="Path" stroke="#263238" stroke-width="2.48020827" stroke-linecap="round" stroke-linejoin="round"></line>
                        <polyline id="Path" stroke="#263238" stroke-width="2.48020827" stroke-linecap="round" stroke-linejoin="round" points="14.1074993 135.580493 25.6904987 182.714391 112.503594 213.30539 101.752195 135.580493"></polyline>
                        <line x1="100.920595" y1="128.987094" x2="97.6238952" y2="109.147495" id="Path" stroke="#263238" stroke-width="2.48020827" stroke-linecap="round" stroke-linejoin="round"></line>
                        <polyline id="Path" stroke="#263238" stroke-width="2.48020827" stroke-linecap="round" stroke-linejoin="round" points="203.44499 148.826693 226.581289 131.452194 214.998289 33.0857984"></polyline>
                        <line x1="109.177195" y1="103.355995" x2="172.022392" y2="56.2220972" id="Path" stroke="#263238" stroke-width="2.48020827" stroke-linecap="round" stroke-linejoin="round"></line>
                        <polyline id="Path" stroke="#263238" stroke-width="2.48020827" stroke-linecap="round" stroke-linejoin="round" points="168.725692 14.0480993 116.631894 1.40687452e-13 2.52449988 77.7248962"></polyline>
                        <line x1="3.35609984" y1="81.021596" x2="20.730599" y2="85.9814958" id="Path" stroke="#263238" stroke-width="2.48020827" stroke-linecap="round" stroke-linejoin="round"></line>
                        <line x1="50.4899975" y1="92.6045955" x2="97.6238952" y2="105.821095" id="Path" stroke="#263238" stroke-width="2.48020827" stroke-linecap="round" stroke-linejoin="round"></line>
                        <line x1="160.439392" y1="12.4145994" x2="89.3375956" y2="66.9734967" id="Path" stroke="#263238" stroke-width="1.3499999" stroke-linecap="round" stroke-linejoin="round"></line>
                        <line x1="83.5460959" y1="71.9333965" x2="57.9149972" y2="91.7729955" id="Path" stroke="#263238" stroke-width="1.3499999" stroke-linecap="round" stroke-linejoin="round"></line>
                        <path d="M58.7465971,71.1908965 C58.7465971,71.1908965 42.5600979,80.843396 44.1935978,84.1103959" id="Path" stroke="#263238" stroke-width="1.3499999" stroke-linecap="round" stroke-linejoin="round"></path>
                        <line x1="45.8270978" y1="74.2202964" x2="33.5609984" y2="80.754296" id="Path" stroke="#263238" stroke-width="1.3499999" stroke-linecap="round" stroke-linejoin="round"></line>
                    </g>
                </g>
            </g>
        </g>
    </g>
</svg>