<?xml version="1.0" encoding="UTF-8"?>
<svg width="67px" height="68px" viewBox="0 0 67 68" version="1.1" xmlns="http://www.w3.org/2000/svg" xmlns:xlink="http://www.w3.org/1999/xlink">
    <!-- Generator: Sketch 64 (93537) - https://sketch.com -->
    <title>admin-imoji</title>
    <desc>Created with Sketch.</desc>
    <defs>
        <rect id="path-1" x="0" y="0" width="66.6666667" height="66.6666667" rx="16.6666667"></rect>
    </defs>
    <g id="Page-1" stroke="none" stroke-width="1" fill="none" fill-rule="evenodd">
        <g id="03-queckoo-web-app---admin-panel---dashboard" transform="translate(-1733.000000, -90.000000)">
            <g id="top" transform="translate(466.666667, 66.666667)">
                <g id="admin" transform="translate(1134.333333, 24.000000)">
                    <g id="admin-imoji" transform="translate(132.333333, 0.000000)">
                        <g id="Bitmap">
                            <mask id="mask-2" fill="white">
                                <use xlink:href="#path-1"></use>
                            </mask>
                            <use id="Mask" fill="#F3F3F3" xlink:href="#path-1"></use>
                            <g id="freepik--Character--inject-72" mask="url(#mask-2)">
                                <g transform="translate(0.000000, 12.000000)">
                                    <path d="M8.82944195,62.4960075 C8.82944195,62.4960075 14.1113626,44.7580853 14.6499226,43.9948852 C15.5369628,42.7305651 24.0876838,38.9289646 24.0876838,38.9289646 L26.391684,34.2518441 L40.5929657,31.9680038 L44.1152062,36.5011244 L54.0137673,43.7760052 L53.3225673,68.8665682 L52.9539272,86.3856103 L54.8288074,108.256333 L9.87200208,108.172813 L11.9052823,103.564812 L14.0393626,63.7862476 L8.82944195,62.4960075 Z" id="Path" fill="#50C96C" fill-rule="nonzero"></path>
                                    <path d="M42.1942459,13.7721616 L40.4979257,37.7942445 C40.2212098,41.7159783 36.958689,44.755883 33.0272048,44.7552225 L33.0272048,44.7552225 C30.9534501,44.7596432 28.9707165,43.9038839 27.5514795,42.3918506 C26.1322424,40.8798173 25.4036072,38.846926 25.5392039,36.7776044 C25.688964,34.4908841 25.827204,32.6160039 25.827204,32.6160039 C25.827204,32.6160039 20.0124833,31.7116838 19.9404833,25.8969631 C19.9001633,22.5388827 20.4790433,14.9184018 20.9744034,9.08064108 C21.3115468,5.12704246 24.624069,2.09254673 28.5920043,2.10237632 L32.1027247,2.10237632 C35.0033409,2.27279571 37.7118249,3.60876826 39.6124056,5.80658584 C41.5129862,8.00440341 42.4441674,10.8773131 42.1942459,13.7721616 Z" id="Path" fill="#FFBE9D" fill-rule="nonzero"></path>
                                    <path d="M25.838724,32.6160039 C25.838724,32.6160039 29.5049644,32.8320039 33.4102449,30.3782436 C33.4102449,30.3782436 31.5382447,34.6089641 25.735044,34.0848041 L25.838724,32.6160039 Z" id="Path" fill="#EB996E" fill-rule="nonzero"></path>
                                    <path d="M22.0774435,15.0768018 C22.1811235,15.1862418 22.8089636,14.7196818 23.7046437,14.7225618 C24.6003238,14.7254418 25.2512039,15.1718418 25.3491239,15.0624018 C25.3952039,15.0134418 25.2915239,14.8204818 25.0064039,14.6102417 C24.6193545,14.3438423 24.1601074,14.202149 23.6902437,14.2041617 C23.2252625,14.2047857 22.7721158,14.3507996 22.3942436,14.6217617 C22.1206435,14.8348818 22.0284835,15.0307218 22.0774435,15.0768018 Z" id="Path" fill="#263238" fill-rule="nonzero"></path>
                                    <path d="M31.7599968,16.1049619 C31.7580711,16.5541785 32.1118086,16.9244577 32.5606448,16.943042 C32.7751838,16.9612797 32.9879854,16.8920224 33.1506949,16.7510075 C33.3134045,16.6099925 33.4122045,16.4091951 33.4246449,16.1942419 C33.4296077,15.7438244 33.074179,15.3717749 32.6240048,15.3561618 C32.4092847,15.3371019 32.1960311,15.4060668 32.0331314,15.5472465 C31.8702318,15.6884262 31.7716569,15.8897127 31.7599968,16.1049619 L31.7599968,16.1049619 Z" id="Path" fill="#263238" fill-rule="nonzero"></path>
                                    <path d="M22.8838436,16.1049619 C22.8804052,16.5547766 23.2349813,16.9259337 23.6844837,16.943042 C23.8992038,16.9621019 24.1124575,16.8931371 24.2753571,16.7519574 C24.4382568,16.6107777 24.5368316,16.4094912 24.5484838,16.1942419 C24.555027,15.7443008 24.2004408,15.3717933 23.7507237,15.3561618 C23.5353514,15.3354352 23.3208759,15.4037244 23.1571364,15.5451606 C22.9933968,15.6865967 22.8946505,15.8888646 22.8838436,16.1049619 Z" id="Path" fill="#263238" fill-rule="nonzero"></path>
                                    <path d="M30.7721646,15.0796818 C30.8758446,15.1862418 31.5065647,14.7196818 32.3993648,14.7225618 C33.2921649,14.7254418 33.9459249,15.1718418 34.043845,15.0624018 C34.089925,15.0134418 33.986245,14.8204818 33.7011249,14.6102417 C33.3140755,14.3438423 32.8548284,14.202149 32.3849648,14.2041617 C31.9199835,14.2047857 31.4668369,14.3507996 31.0889646,14.6217617 C30.8153646,14.8348818 30.7232046,15.0307218 30.7721646,15.0796818 Z" id="Path" fill="#263238" fill-rule="nonzero"></path>
                                    <path d="M27.5292842,21.7036826 C27.5292842,21.6547226 26.9792041,21.5596826 26.089284,21.4444826 C25.861764,21.4185626 25.645764,21.3753625 25.608324,21.2198425 C25.5875775,20.9842176 25.6398652,20.7479176 25.758084,20.5430424 L26.4348841,18.8150422 C27.3708842,16.3411219 28.0505642,14.3078417 27.9497642,14.2704017 C27.8489642,14.2329617 27.0080041,16.2086419 26.072004,18.6825622 C25.832004,19.2835223 25.616004,19.8624024 25.4240039,20.4192024 C25.2825482,20.6952171 25.2408335,21.0116384 25.3059239,21.3148825 C25.3737146,21.4782662 25.5128176,21.6014414 25.683204,21.6489626 C25.8090339,21.6833447 25.9386959,21.7017296 26.069124,21.7036826 C26.9648041,21.7526426 27.5264042,21.7555226 27.5292842,21.7036826 Z" id="Path" fill="#263238" fill-rule="nonzero"></path>
                                    <path d="M30.1587245,22.3228827 C30.0147245,22.3228827 30.0118445,23.2848028 29.1824044,23.9731229 C28.3529643,24.6614429 27.3190442,24.5491229 27.3104042,24.6902429 C27.3104042,24.750723 27.5408042,24.877443 27.9785642,24.891843 C28.5466181,24.8990796 29.0991411,24.7064101 29.5395244,24.3475229 C29.9612044,24.0007224 30.23258,23.5044044 30.2969645,22.9622427 C30.3344045,22.5590427 30.2249645,22.3171227 30.1587245,22.3228827 Z" id="Path" fill="#263238" fill-rule="nonzero"></path>
                                    <path d="M30.5417645,12.1737615 C30.6310446,12.4156815 31.5209647,12.3004815 32.5577648,12.4272015 C33.5945649,12.5539215 34.455685,12.8390415 34.593925,12.6230415 C34.657285,12.5193615 34.507525,12.2889615 34.167685,12.0470414 C33.7133162,11.7546667 33.196163,11.5740579 32.6585648,11.5200014 C32.1222452,11.4548319 31.5781172,11.5190213 31.0716846,11.7072014 C30.6972846,11.8684814 30.5043245,12.0585614 30.5417645,12.1737615 Z" id="Path" fill="#263238" fill-rule="nonzero"></path>
                                    <path d="M22.2012835,12.5193615 C22.3596836,12.7238415 22.9760036,12.5193615 23.7161637,12.5020815 C24.4563238,12.4848015 25.0812839,12.6403215 25.2281639,12.4272015 C25.2886439,12.3235215 25.1907239,12.1190414 24.9171239,11.9289614 C24.1653559,11.455937 23.2019454,11.4855453 22.4806436,12.0038414 C22.2185635,12.2112015 22.1321635,12.4214415 22.2012835,12.5193615 Z" id="Path" fill="#263238" fill-rule="nonzero"></path>
                                    <path d="M40.2329657,18.1440022 C40.3337657,18.1008022 44.2304062,16.963202 44.1036862,20.9376025 C43.9769661,24.912003 40.0112057,23.9644829 40.0082986,23.8521628 C40.0054457,23.7398428 40.2329657,18.1440022 40.2329657,18.1440022 Z" id="Path" fill="#FFBE9D" fill-rule="nonzero"></path>
                                    <path d="M41.2640058,22.3747227 C41.2812858,22.3747227 41.3331258,22.4265627 41.4483258,22.4841627 C41.610298,22.5593463 41.7951493,22.5686405 41.9638459,22.5100827 C42.390086,22.3689627 42.764486,21.7152026 42.804806,20.9980825 C42.8276438,20.6579741 42.7724804,20.3171432 42.643526,20.0016024 C42.5759916,19.7466356 42.3876266,19.5410487 42.1395259,19.4515223 C41.9762755,19.4025851 41.8014456,19.4778591 41.7248059,19.6300823 C41.6672059,19.7395224 41.6902459,19.8201624 41.6700859,19.8259224 C41.6499259,19.8316824 41.5865659,19.7568024 41.6240059,19.5926423 C41.6504489,19.4952705 41.7081204,19.4092691 41.7881659,19.3478423 C41.9001761,19.2687496 42.03872,19.2366984 42.1740859,19.2585623 C42.5037825,19.3357854 42.7704397,19.5774095 42.879686,19.8979224 C43.0368673,20.2484918 43.1070176,20.6318489 43.084166,21.0153625 C43.032326,21.8160026 42.597446,22.5504027 42.0185659,22.7001627 C41.7999791,22.7554141 41.5681303,22.7088326 41.3878458,22.5734427 C41.2640058,22.4640027 41.2640058,22.3833627 41.2640058,22.3747227 Z" id="Path" fill="#EB996E" fill-rule="nonzero"></path>
                                    <path d="M42.444806,18.0000021 C41.8400059,17.8531221 40.7916858,18.4147222 40.5324857,18.9820823 C40.2732857,19.5494423 40.2156857,20.1916824 39.9564857,20.7590425 C39.6972856,21.3264025 39.1155256,21.8419226 38.5164855,21.6979226 C38.0979776,21.5659995 37.782432,21.2196689 37.6899254,20.7907225 C37.606335,20.3676115 37.606335,19.9322333 37.6899254,19.5091223 C37.9232054,17.6515221 38.3120055,15.8112019 38.3868855,13.9420817 C38.4617655,12.0729614 38.1968055,10.1289612 37.2147253,8.53632102 C36.2326452,6.94368083 34.429765,5.77152069 32.5635248,5.92128071 C31.3280046,6.02208072 30.1961645,6.66720079 28.9692844,6.83712082 C27.4899427,7.03296838 26.0028011,6.53690043 24.9372839,5.49216065 C24.8019239,5.35968064 24.1827238,4.94784059 24.1827238,4.94784059 C24.1827238,4.85280058 24.2720038,4.02336048 24.6003238,3.72096044 C27.0339241,1.46880018 31.4230446,0.8409601 34.640005,1.6502402 C37.8569654,2.45952029 40.8723258,4.72896056 42.2547259,7.74432092 C43.6371261,10.7596813 43.2281661,14.9443218 42.464966,18.0000021" id="Path" fill="#263238" fill-rule="nonzero"></path>
                                    <path d="M20.3494433,8.03232096 C20.8707234,9.2390411 22.2012835,9.94176119 23.5174437,10.0742412 C24.8336039,10.2067212 26.132484,9.86688118 27.3968042,9.49824113 C28.6611243,9.12960109 32.0566447,8.57664102 33.3728049,8.61696103 C33.5686449,8.61696103 33.8048049,8.61696103 33.9113649,8.45280101 C34.049605,8.23104098 33.8278449,7.96320095 33.6233649,7.80480093 C31.8953647,6.44544077 27.6992042,5.61312067 25.4988839,5.52096066 C23.2985637,5.42880065 20.9916834,6.38496076 19.7993633,8.22528098" id="Path" fill="#263238" fill-rule="nonzero"></path>
                                    <path d="M20.9225634,8.18208098 C20.9225634,8.18208098 36.1865652,3.28608039 42.776006,16.473602 C42.776006,16.473602 43.7609661,13.1702416 43.7609661,11.3990414 C43.7609661,10.2182412 43.055366,3.17376038 35.8092852,0.959040114 C35.8092852,0.959040114 24.8912039,-3.20544038 20.9225634,8.18208098 Z" id="Path" fill="#50C96C" fill-rule="nonzero"></path>
                                    <g id="Group" opacity="0.4" stroke-width="1" fill="none" fill-rule="evenodd" transform="translate(20.816003, 0.000000)">
                                        <path d="M0.106560013,8.18208098 C1.37552044,6.84580788 3.11520557,6.05654456 4.95648059,5.98176071 C9.45792113,5.78016069 17.8790421,8.31168099 21.9484826,16.473602 C21.9484826,16.473602 22.9334427,13.1702416 22.9334427,11.3990414 C22.9334427,10.2182412 22.2278426,3.17376038 14.9817618,0.959040114 C14.9932818,0.959040114 4.07520049,-3.20544038 0.106560013,8.18208098 Z" id="Path" fill="#000000" fill-rule="nonzero"></path>
                                    </g>
                                    <path d="M42.1280059,14.9270418 C39.8142686,11.4821391 36.7822895,8.57886678 33.2403249,6.41664076 C29.7440044,4.2249605 23.9465638,2.05920025 19.9520033,0.996480119 C18.7539231,0.679680081 17.504003,0.400320048 16.2800028,0.613440073 C15.0560027,0.826560099 13.8579226,1.6387202 13.5555225,2.84256034 C13.1753625,4.34880052 15.8595228,6.6729608 17.1065629,7.5859209 C18.3376045,8.40642994 19.6124558,9.15922672 20.9254434,9.84096117 C20.9254434,9.84096117 20.8908834,7.04736084 25.3635239,6.47136077 C31.4432046,5.68800068 42.1280059,14.9270418 42.1280059,14.9270418 Z" id="Path" fill="#50C96C" fill-rule="nonzero"></path>
                                    <path d="M29.6288044,3.52800042 C29.6288044,3.52800042 27.4284842,2.31264028 25.2224039,2.03040024 C25.5897532,1.7407644 25.9923187,1.49883802 26.420484,1.31040016 C27.618888,1.50898206 28.7778351,1.89789048 29.8534445,2.46240029 L29.6288044,3.52800042 Z" id="Path" fill="#FAFAFA" fill-rule="nonzero"></path>
                                    <path d="M48.7923267,43.1539251 C48.7923267,43.1539251 44.6220862,47.9203257 45.0828863,54.5529665 C45.1462463,55.4716866 45.1923263,56.7532868 45.3046463,57.6691269 C46.0073664,63.3600076 47.0960065,68.6419282 47.0960065,68.6419282 L47.4934466,68.6419282 L62.0345683,65.0505678 C62.0345683,65.0505678 59.842888,52.4275262 59.338888,50.7513661 C57.7289678,45.3859254 52.2080071,42.4339251 52.2080071,42.4339251 L48.7923267,43.1539251 Z" id="Path" fill="#50C96C" fill-rule="nonzero"></path>
                                    <path d="M25.663044,34.5830441 C25.663044,34.5830441 25.0870439,40.1155248 26.9475241,40.9766449 C29.0470444,41.944325 31.1408046,40.9968049 32.4195248,40.1760048 C35.8496052,37.9872045 40.9472058,31.9075238 40.9472058,31.9075238 L44.4032062,36.3945643 C44.4032062,36.3945643 35.6998452,46.8547256 33.9516849,46.7856056 C32.7996848,46.7424056 31.0284846,45.6336054 29.9196845,44.8531253 C29.3128898,44.4292696 28.7722919,43.9177884 28.3155243,43.3353652 L26.8092841,41.4201649 C24.9286439,42.347525 23.4080037,43.5369652 22.3568036,45.0604854 C22.3568036,45.0604854 21.8556835,41.1868849 22.7571236,39.4300847 C23.6585637,37.6732845 25.4556839,34.6406441 25.4556839,34.6406441 L25.663044,34.5830441 Z" id="Path" fill="#50C96C" fill-rule="nonzero"></path>
                                    <path d="M22.6505636,39.5798447 C22.6435728,39.612993 22.631938,39.6449886 22.6160036,39.6748847 C22.5900836,39.7440047 22.5526436,39.8332847 22.5036836,39.9456048 C22.3841083,40.3035252 22.2982941,40.6718514 22.2473636,41.0457649 C22.0801723,42.4231099 22.0801723,43.8156204 22.2473636,45.1929654 L22.1436835,45.1728054 C22.6281729,44.3544319 23.2610792,43.6336219 24.0099238,43.0473651 C24.8576683,42.3581885 25.7837466,41.7714144 26.7689641,41.2992049 L26.8150441,41.2761649 L26.8496041,41.3164849 C27.4572842,42.022085 28.0995242,42.7564851 28.7763243,43.5024052 C29.4532246,44.2838201 30.2154028,44.987072 31.0486446,45.5990454 C31.4466936,45.8808709 31.8793702,46.1102767 32.3360048,46.2816055 C32.5607086,46.3634011 32.7919345,46.4260248 33.0272048,46.4688055 C33.2575656,46.5061679 33.4916653,46.5148741 33.7241649,46.4947255 C34.660165,46.4083255 35.4521651,45.8726455 36.1088052,45.3081654 L36.1088052,45.3081654 L42.0675259,38.9548846 L43.7955261,37.1318444 L44.2592062,36.6508844 L44.3801662,36.5270444 L44.4262462,36.4896043 L44.3916862,36.5356844 L44.2764862,36.6681644 L43.8300861,37.1635244 L42.1308859,39.0153647 L36.2153652,45.4032054 L36.2153652,45.4032054 C35.8741992,45.7070353 35.5015203,45.9735104 35.1036851,46.1980855 C34.6872759,46.4342833 34.2263358,46.5813918 33.7500849,46.6300856 C33.5041541,46.6501879 33.2567168,46.6414889 33.0128048,46.6041656 C32.7685252,46.5611955 32.528543,46.496622 32.2956847,46.4112055 C31.8252323,46.2351835 31.3790894,46.0000149 30.9680046,45.7113654 C30.122781,45.0936425 29.3498993,44.3825914 28.6640043,43.5916852 C27.9843242,42.8428851 27.3420842,42.105605 26.7372841,41.3971249 L26.8208041,41.4144049 C25.8451132,41.8827788 24.9269888,42.4626469 24.0848038,43.1424051 C23.3540433,43.7165002 22.7342753,44.4192293 22.2560036,45.2160054 L22.1696035,45.3657654 L22.1523235,45.1958454 C21.9914192,43.809402 22.0069026,42.4081543 22.1984035,41.0256049 C22.2574655,40.6511337 22.3539487,40.2835328 22.4864036,39.9283248 C22.5382436,39.8073647 22.5843236,39.7209647 22.6131236,39.6604847 C22.6238453,39.6328228 22.6363516,39.6058862 22.6505636,39.5798447 L22.6505636,39.5798447 Z" id="Path" fill="#263238" fill-rule="nonzero"></path>
                                    <g id="Group" opacity="0.3" stroke-width="1" fill="none" fill-rule="evenodd" transform="translate(22.784004, 36.864004)">
                                        <path d="M0.079680019,7.37856088 C-0.0396303588,7.67630573 0.0464190914,8.01701504 0.292800044,8.22240098 C0.53731452,8.31620435 0.81370505,8.26625425 1.00992013,8.09280096 C1.19858919,7.92013742 1.36152709,7.7213144 1.49376019,7.50240089 C1.8381949,7.00593426 2.25237083,6.56168934 2.72352033,6.18336074 C3.18720039,5.80896069 3.82368047,5.49216065 4.35648053,5.75712069 C4.68966963,5.97727562 4.94234424,6.29968842 5.07648061,6.6758408 C5.7993607,8.15328097 6.6662408,9.65664115 8.08032097,10.5004813 C9.49440114,11.3443214 11.3116814,11.3817614 12.8697615,10.8316813 C14.4187136,10.2287369 15.7815433,9.22846758 16.821122,7.93152095 C17.8526291,6.63850759 18.7672622,5.25643814 19.5542423,3.80160045 C20.2051224,2.67552032 20.8646425,1.51488018 21.0662425,0.230400027 C20.8876825,0.331200039 20.4672024,0.979200117 20.2886424,1.08000013 C20.2886424,1.08000013 13.5753616,8.47296101 12.9446416,8.85600106 C12.3139215,9.2390411 10.5744013,11.7907214 5.64672068,6.26400075 L4.01664049,4.49568054 C4.01664049,4.49568054 0.912000118,6.00192072 0.079680019,7.37856088 Z" id="Path" fill="#000000" fill-rule="nonzero"></path>
                                    </g>
                                    <path d="M62.0345683,65.0505678 L61.9625683,65.0736078 L61.7494483,65.1312078 L60.9257682,65.3414478 L57.8268878,66.1075279 L47.1132865,68.6995282 L47.0355265,68.7168082 L47.0355265,68.6390482 C46.7331265,66.6604879 46.3184064,64.5264077 45.9180864,62.3030474 C45.6560063,60.8198473 45.4284863,59.3654471 45.2729663,57.9542469 C45.1174463,56.5430467 45.0483263,55.1692866 45.0281663,53.8617664 C44.9964122,52.6242943 45.0686663,51.3863416 45.2441663,50.160966 C45.4001231,49.0888544 45.7186649,48.0467956 46.1888064,47.0707256 C46.5910075,46.2708864 47.1289006,45.5468744 47.7785666,44.9308854 C48.2673981,44.46517 48.8286248,44.0819407 49.4403268,43.7961652 C49.8294142,43.622292 50.2372162,43.4937668 50.6556869,43.4131252 L50.984007,43.3728052 C51.0213468,43.368932 51.0589872,43.368932 51.096327,43.3728052 C51.0598789,43.3847086 51.0221979,43.3924381 50.984007,43.3958452 L50.6614469,43.4534452 C50.249124,43.5423698 49.8481773,43.6776289 49.4662468,43.8566452 C48.865433,44.152107 48.3152471,44.5409309 47.8361666,45.0086454 C47.2017143,45.6237731 46.6767562,46.3425468 46.2838464,47.1340856 C45.8268326,48.1028884 45.5181007,49.1349072 45.3680063,50.195526 C45.1988839,51.4156616 45.1314518,52.6477416 45.1664063,53.8790464 C45.1894463,55.1808066 45.2643263,56.5459267 45.4198463,57.9542469 C45.5753663,59.3625671 45.8057664,60.8140872 46.0678464,62.2944074 C46.4652864,64.5148877 46.8771265,66.6518479 47.1795265,68.6304082 L47.0902465,68.5699282 L57.8182478,66.0211279 L60.9257682,65.2953678 L61.7552083,65.1081678 L61.9712083,65.0620878 C61.9919199,65.0562676 62.0131335,65.0524106 62.0345683,65.0505678 L62.0345683,65.0505678 Z" id="Path" fill="#263238" fill-rule="nonzero"></path>
                                </g>
                            </g>
                        </g>
                    </g>
                </g>
            </g>
        </g>
    </g>
</svg>