<?xml version="1.0" encoding="UTF-8"?>
<svg width="24px" height="15px" viewBox="0 0 24 15" version="1.1" xmlns="http://www.w3.org/2000/svg" xmlns:xlink="http://www.w3.org/1999/xlink">
    <!-- Generator: Sketch 64 (93537) - https://sketch.com -->
    <title>back-arrow-green</title>
    <desc>Created with Sketch.</desc>
    <g id="Page-1" stroke="none" stroke-width="1" fill="none" fill-rule="evenodd">
        <g id="06-queckoo-web-app---admin-panel---delivery---order-details" transform="translate(-466.000000, -233.000000)" fill="#50C96C" fill-rule="nonzero">
            <g id="go-back" transform="translate(466.666667, 226.000000)">
                <path d="M22.550439,13.4395788 L16.417037,7.43989142 C15.9787764,7.01089108 15.3192799,6.88180651 14.7459755,7.11415875 C14.174075,7.3467857 13.7998269,7.89415931 13.7998269,8.50030765 L13.7998269,13.0001418 L1.5334909,13.0001418 C0.687010664,13.0001418 0,13.6719311 0,14.5 C0,15.328059 0.687010664,15.9998483 1.5334909,15.9998483 L13.7998269,15.9998483 L13.7998269,20.4996824 C13.7998269,21.1058307 14.174075,21.6532044 14.7459755,21.8858313 C15.3192799,22.1181836 15.9787764,21.989099 16.417037,21.5603733 L22.550439,15.5604113 C23.1498537,14.9740376 23.1498537,14.0259525 22.550439,13.4395788 Z" id="back-arrow-green" transform="translate(11.500000, 14.500000) scale(-1, 1) translate(-11.500000, -14.500000) "></path>
            </g>
        </g>
    </g>
</svg>