<?xml version="1.0" encoding="UTF-8"?>
<svg width="14px" height="14px" viewBox="0 0 14 14" version="1.1" xmlns="http://www.w3.org/2000/svg" xmlns:xlink="http://www.w3.org/1999/xlink">
    <!-- Generator: Sketch 64 (93537) - https://sketch.com -->
    <title>calendar-icon</title>
    <desc>Created with Sketch.</desc>
    <g id="Page-1" stroke="none" stroke-width="1" fill="none" fill-rule="evenodd">
        <g id="05-queckoo-web-app---admin-panel---delivery---filters" transform="translate(-816.000000, -426.000000)" fill="#272C37" fill-rule="nonzero">
            <g id="popup" transform="translate(696.666667, 180.000000)">
                <g id="Group-2" transform="translate(108.666667, 86.666667)">
                    <g id="fileds" transform="translate(0.000000, 112.666667)">
                        <g id="delivery-date">
                            <g id="Group-6" transform="translate(0.000000, 36.666667)">
                                <g id="calendar-icon" transform="translate(10.666667, 10.000000)">
                                    <path d="M3.33241283,0 C3.06948396,0 2.85634589,0.213138075 2.85634589,0.476066946 L2.85634589,1.42817294 L3.80845188,1.42817294 L3.80845188,0.476066946 C3.80845188,0.213138075 3.59531381,0 3.33241283,0 Z" id="Path"></path>
                                    <path d="M9.9972106,0 C9.73428173,0 9.52114365,0.213138075 9.52114365,0.476066946 L9.52114365,1.42817294 L10.4732497,1.42817294 L10.4732497,0.476066946 C10.4732775,0.213138075 10.2601395,0 9.9972106,0 Z" id="Path"></path>
                                    <path d="M11.9014505,1.42817294 L10.4732775,1.42817294 L10.4732775,3.33241283 C10.4732775,3.5953417 10.2601395,3.80847978 9.9972106,3.80847978 C9.73428173,3.80847978 9.52114365,3.5953417 9.52114365,3.33241283 L9.52114365,1.42817294 L3.80845188,1.42817294 L3.80845188,3.33241283 C3.80845188,3.5953417 3.59531381,3.80847978 3.33238494,3.80847978 C3.06945607,3.80847978 2.85631799,3.5953417 2.85631799,3.33241283 L2.85631799,1.42817294 L1.42817294,1.42817294 C0.639414226,1.42817294 0,2.06758717 0,2.85634589 L0,11.9014505 C0,12.6902092 0.639414226,13.3296234 1.42817294,13.3296234 L11.9014505,13.3296234 C12.6902092,13.3296234 13.3296234,12.6902092 13.3296234,11.9014505 L13.3296234,2.85634589 C13.3296234,2.06758717 12.6902092,1.42817294 11.9014505,1.42817294 Z M12.3774895,11.9014505 C12.3774895,12.1643794 12.1643515,12.3775174 11.9014226,12.3775174 L1.42817294,12.3775174 C1.16524407,12.3775174 0.952105997,12.1643794 0.952105997,11.9014505 L0.952105997,5.71269177 L12.3774895,5.71269177 L12.3774895,11.9014505 Z" id="Shape"></path>
                                    <path d="M3.80845188,6.66479777 L2.85634589,6.66479777 C2.59341702,6.66479777 2.38027894,6.87793584 2.38027894,7.14086471 C2.38027894,7.40379358 2.59341702,7.61693166 2.85634589,7.61693166 L3.80845188,7.61693166 C4.07138075,7.61693166 4.28451883,7.40379358 4.28451883,7.14086471 C4.28451883,6.87793584 4.07138075,6.66479777 3.80845188,6.66479777 Z" id="Path"></path>
                                    <path d="M7.14086471,6.66479777 L6.18875872,6.66479777 C5.92582985,6.66479777 5.71269177,6.87793584 5.71269177,7.14086471 C5.71269177,7.40379358 5.92582985,7.61693166 6.18875872,7.61693166 L7.14086471,7.61693166 C7.40379358,7.61693166 7.61693166,7.40379358 7.61693166,7.14086471 C7.61693166,6.87793584 7.40379358,6.66479777 7.14086471,6.66479777 Z" id="Path"></path>
                                    <path d="M10.4732775,6.66479777 L9.52117155,6.66479777 C9.25824268,6.66479777 9.0451046,6.87793584 9.0451046,7.14086471 C9.0451046,7.40379358 9.25824268,7.61693166 9.52117155,7.61693166 L10.4732775,7.61693166 C10.7362064,7.61693166 10.9493445,7.40379358 10.9493445,7.14086471 C10.9493445,6.87793584 10.7361785,6.66479777 10.4732775,6.66479777 Z" id="Path"></path>
                                    <path d="M3.80845188,8.56903766 L2.85634589,8.56903766 C2.59341702,8.56903766 2.38027894,8.78217573 2.38027894,9.0451046 C2.38027894,9.30803347 2.59341702,9.52117155 2.85634589,9.52117155 L3.80845188,9.52117155 C4.07138075,9.52117155 4.28451883,9.30803347 4.28451883,9.0451046 C4.28451883,8.78217573 4.07138075,8.56903766 3.80845188,8.56903766 Z" id="Path"></path>
                                    <path d="M7.14086471,8.56903766 L6.18875872,8.56903766 C5.92582985,8.56903766 5.71269177,8.78217573 5.71269177,9.0451046 C5.71269177,9.30803347 5.92582985,9.52117155 6.18875872,9.52117155 L7.14086471,9.52117155 C7.40379358,9.52117155 7.61693166,9.30803347 7.61693166,9.0451046 C7.61693166,8.78217573 7.40379358,8.56903766 7.14086471,8.56903766 Z" id="Path"></path>
                                    <path d="M10.4732775,8.56903766 L9.52117155,8.56903766 C9.25824268,8.56903766 9.0451046,8.78217573 9.0451046,9.0451046 C9.0451046,9.30803347 9.25824268,9.52117155 9.52117155,9.52117155 L10.4732775,9.52117155 C10.7362064,9.52117155 10.9493445,9.30803347 10.9493445,9.0451046 C10.9493166,8.78217573 10.7361785,8.56903766 10.4732775,8.56903766 Z" id="Path"></path>
                                    <path d="M3.80845188,10.4732775 L2.85634589,10.4732775 C2.59341702,10.4732775 2.38027894,10.6864156 2.38027894,10.9493445 C2.38027894,11.2122734 2.59341702,11.4253835 2.85634589,11.4253835 L3.80845188,11.4253835 C4.07138075,11.4253835 4.28451883,11.2122455 4.28451883,10.9493166 C4.28451883,10.6863877 4.07138075,10.4732775 3.80845188,10.4732775 Z" id="Path"></path>
                                    <path d="M7.14086471,10.4732775 L6.18875872,10.4732775 C5.92582985,10.4732775 5.71269177,10.6864156 5.71269177,10.9493445 C5.71269177,11.2122734 5.92582985,11.4254114 6.18875872,11.4254114 L7.14086471,11.4254114 C7.40379358,11.4254114 7.61693166,11.2122734 7.61693166,10.9493445 C7.61693166,10.6864156 7.40379358,10.4732775 7.14086471,10.4732775 Z" id="Path"></path>
                                    <path d="M10.4732775,10.4732775 L9.52117155,10.4732775 C9.25824268,10.4732775 9.0451046,10.6864156 9.0451046,10.9493445 C9.0451046,11.2122734 9.25824268,11.4254114 9.52117155,11.4254114 L10.4732775,11.4254114 C10.7362064,11.4254114 10.9493445,11.2122734 10.9493445,10.9493445 C10.9493445,10.6864156 10.7361785,10.4732775 10.4732775,10.4732775 Z" id="Path"></path>
                                </g>
                            </g>
                        </g>
                    </g>
                </g>
            </g>
        </g>
    </g>
</svg>