<?xml version="1.0" encoding="UTF-8"?>
<svg width="37px" height="38px" viewBox="0 0 37 38" version="1.1" xmlns="http://www.w3.org/2000/svg" xmlns:xlink="http://www.w3.org/1999/xlink">
    <!-- Generator: Sketch 64 (93537) - https://sketch.com -->
    <title>canned-foods-spices</title>
    <desc>Created with Sketch.</desc>
    <g id="Page-1" stroke="none" stroke-width="1" fill="none" fill-rule="evenodd">
        <g id="03-queckoo-web-app---admin-panel---dashboard" transform="translate(-525.000000, -1354.000000)" fill-rule="nonzero">
            <g id="Total-Items" transform="translate(466.666667, 834.666667)">
                <g id="5" transform="translate(58.266669, 519.733338)">
                    <g id="canned-foods-spices">
                        <g id="soda">
                            <path d="M0.0647285304,19.8508968 L0.0647285304,4.3510225 C0.0647285304,3.34965504 0.674224585,2.4490125 1.60427586,2.07699198 L1.60427586,2.07699198 C2.37478475,1.76893547 3.00560214,0.838148978 3.00560214,0.00808740242 L3.00560214,0 L3.00560214,0 L11.0930046,0 L19.180407,0 L19.180407,0 L19.180407,0.00808740242 C19.180407,0.838148978 19.8112244,1.76893547 20.5817332,2.07699198 L20.5817332,2.07699198 C21.5117845,2.4490125 22.1212806,3.34891982 22.1212806,4.3510225 L22.1212806,19.8508968 L22.1212806,16.1748048 L22.1212806,31.6746792 C22.1212806,32.6760466 21.5117845,33.5766892 20.5817332,33.9487097 L20.5817332,33.9487097 C19.8112244,34.2567662 19.180407,35.1882879 19.180407,36.0176143 L19.180407,36.0257017 L19.180407,36.0257017 L11.0930046,36.0257017 L3.00560214,36.0257017 L3.00560214,36.0257017 L3.00560214,36.0176143 C3.00560214,35.1875527 2.37478475,34.2567662 1.60427586,33.9487097 L1.60427586,33.9487097 C0.674224585,33.5766892 0.0647285304,32.6767819 0.0647285304,31.6746792 L0.0647285304,16.1748048" id="Path" fill="#003879"></path>
                            <circle id="Oval" fill="#F9D70B" cx="11.0930046" cy="19.1156784" r="8.08740242"></circle>
                            <path d="M10.9518426,19.2230203 C10.9518426,16.4269847 8.84470668,14.1301625 6.13028034,13.825782 C4.64660961,15.152116 3.70700049,17.0754474 3.70700049,19.2230203 C3.70700049,23.2240789 6.95078408,26.4678625 10.9518426,26.4678625 C12.8060634,26.4678625 14.4919192,25.7657289 15.7734049,24.6202586 C13.0589786,24.3158782 10.9518426,22.0190559 10.9518426,19.2230203 Z" id="Path" fill="#ED3F32"></path>
                            <path d="M6.68169415,5.14652881 L3.00560214,5.14652881 C2.59902636,5.14652881 2.27038374,4.81788619 2.27038374,4.41131041 C2.27038374,4.00473463 2.59902636,3.67609201 3.00560214,3.67609201 L6.68169415,3.67609201 C7.08826992,3.67609201 7.41691255,4.00473463 7.41691255,4.41131041 C7.41691255,4.81788619 7.08826992,5.14652881 6.68169415,5.14652881 Z" id="Path" fill="#155BA0"></path>
                            <path d="M19.180407,5.14652881 L9.62256775,5.14652881 C9.21599198,5.14652881 8.88734935,4.81788619 8.88734935,4.41131041 C8.88734935,4.00473463 9.21599198,3.67609201 9.62256775,3.67609201 L19.180407,3.67609201 C19.5869828,3.67609201 19.9156254,4.00473463 19.9156254,4.41131041 C19.9156254,4.81788619 19.5869828,5.14652881 19.180407,5.14652881 Z" id="Path" fill="#155BA0"></path>
                            <path d="M6.68169415,33.0848281 L3.00560214,33.0848281 C2.59902636,33.0848281 2.27038374,32.7561855 2.27038374,32.3496097 C2.27038374,31.9430339 2.59902636,31.6143913 3.00560214,31.6143913 L6.68169415,31.6143913 C7.08826992,31.6143913 7.41691255,31.9430339 7.41691255,32.3496097 C7.41691255,32.7561855 7.08826992,33.0848281 6.68169415,33.0848281 Z" id="Path" fill="#0A0E30"></path>
                            <path d="M19.180407,33.0848281 L9.62256775,33.0848281 C9.21599198,33.0848281 8.88734935,32.7561855 8.88734935,32.3496097 C8.88734935,31.9430339 9.21599198,31.6143913 9.62256775,31.6143913 L19.180407,31.6143913 C19.5869828,31.6143913 19.9156254,31.9430339 19.9156254,32.3496097 C19.9156254,32.7561855 19.5869828,33.0848281 19.180407,33.0848281 Z" id="Path" fill="#0A0E30"></path>
                        </g>
                        <g id="spice" transform="translate(18.800001, 19.000000) scale(-1, 1) translate(-18.800001, -19.000000) translate(0.800001, 0.000000)">
                            <g id="Group" transform="translate(0.530041, 7.269136)" fill="#FF5352">
                                <path d="M8.78952134,2.4824857 L8.78952134,2.4824857 C10.720007,2.4824857 12.2761322,4.0838158 12.1973832,6.01263563 C12.1845865,6.32642 12.1781503,6.6417945 12.1781503,6.9586834 C12.1781503,18.3691826 20.5736996,27.8177723 31.5245017,29.4641559 C30.5103057,29.617565 29.474151,29.7029773 28.4211106,29.7170613 C15.8520171,29.8847057 5.47078211,19.7497127 5.35099281,7.18024061 C5.34629815,6.6872266 5.35727758,6.19807432 5.38355248,5.71285949 C5.48145865,3.90186024 6.9759476,2.4824857 8.78952134,2.4824857 Z" id="Path"></path>
                                <path d="M5.35099281,7.18024061 C5.34629815,6.6872266 5.35727758,6.19807432 5.38355248,5.71285949 C5.44306853,4.61203969 6.01914756,3.65660261 6.86880357,3.07598037 C6.68321343,1.3824231 5.23642819,0.0547456812 3.47873594,0.0547456812 L3.47873594,0.0547456812 C1.66516221,0.0547456812 0.170673258,1.47419594 0.0727670811,3.28511947 C0.0464921829,3.77025859 0.0355127586,4.25956231 0.040207409,4.7525006 C0.136750623,14.8868121 6.9046192,23.436982 16.1105257,26.2823187 C9.72405965,22.2988322 5.42777306,15.2401224 5.35099281,7.18024061 Z" id="Path"></path>
                            </g>
                            <path d="M5.89822246,13.3074409 C5.89822246,13.3089553 5.89822246,13.3097125 5.89822246,13.3112269 C6.34504717,24.6535022 15.1457751,33.8638762 26.2399154,35.0390532 C28.0645443,35.8493348 30.0150958,36.426701 32.0544671,36.7332163 C31.0401198,36.8864739 30.0037378,36.9721891 28.9506974,36.9858188 C24.4418643,37.0465463 20.2137259,35.780278 16.6403398,33.5513034 C14.6586672,32.9390301 12.7908022,32.0612819 11.0769519,30.9611436 C6.80179122,26.4834315 4.42258783,20.6537358 4.36337466,14.4636878 C4.35883145,13.9432631 4.37018947,13.4167051 4.39828166,12.9000664 C4.4915689,11.1703148 5.46881339,9.68854689 6.87690562,8.8828843 C7.15608588,9.31380778 7.34046449,9.81151644 7.39884474,10.3448893 C6.54911302,10.9260416 5.97326114,11.8812515 5.91336649,12.9820713 C5.90730888,13.0905026 5.90276567,13.1990096 5.89822246,13.3074409 C5.89822246,13.3089553 5.89822246,13.3097125 5.89822246,13.3112269 L5.89822246,13.3074409 Z" id="Path" fill="#F23030"></path>
                            <path d="M13.2770771,14.2278195 C13.2770771,13.9206985 13.2833618,13.6101701 13.2958557,13.3049421 C13.3400005,12.2218408 12.9495873,11.1933338 12.1963988,10.4087214 C11.564514,9.7505617 10.7503708,9.33962835 9.86300615,9.21991477 L9.86300615,8.7905057 C9.86300615,6.46892536 11.3211494,4.35534832 13.4915166,3.5311343 L13.0874738,2.46734166 C11.7990194,2.95672111 10.7041815,3.81500921 9.92146212,4.94952448 C9.13881847,6.08403975 8.72500775,7.41224721 8.72500775,8.79058142 L8.72500775,9.22703247 C6.88674924,9.5031082 5.44867182,11.0397733 5.34531379,12.9511775 C5.31843313,13.4479775 5.30722655,13.9538639 5.31199692,14.4546771 C5.34205783,17.601683 5.99264551,20.6519942 7.24566284,23.5208799 C8.4548382,26.2895122 10.1702786,28.7706349 12.3440532,30.8952671 C14.5195693,33.0216408 17.0419595,34.681124 19.841107,35.827906 C22.6433589,36.9758994 25.6016702,37.5570517 28.6400933,37.5570517 C28.7460258,37.5570517 28.8524127,37.5563702 28.9585723,37.5549315 C30.026151,37.5406961 31.0964556,37.4533908 32.1394251,37.2956657 L35.8707636,36.7313233 L32.1389708,36.1703125 C21.3859498,34.5539899 13.2770771,25.1206199 13.2770771,14.2278195 Z M13.1395692,30.0815782 C8.88220282,25.9204521 6.50648256,20.3669078 6.45007104,14.4440006 C6.44552783,13.967115 6.45620437,13.4855347 6.48179779,13.0126622 C6.56334841,11.503105 7.80985381,10.3206588 9.31956251,10.3206588 C10.1028876,10.3206588 10.8330572,10.6318687 11.3755922,11.1968926 C11.9121453,11.7557832 12.1903412,12.4879972 12.1588416,13.2586013 C12.1458178,13.5792005 12.1391544,13.9053273 12.1391544,14.2278952 C12.1391544,19.8479218 14.1655775,25.2769821 17.8451233,29.5151913 C20.6418477,32.7365544 24.248475,35.1136376 28.2462727,36.4157973 C22.574605,36.3163768 17.2330772,34.0825561 13.1395692,30.0815782 Z" id="Shape" fill="#000000"></path>
                            <path d="M1.13898276,12.0162606 C1.13459099,11.5440696 1.14534326,11.0623379 1.17086095,10.5846194 C1.21000828,9.85460121 1.52356549,9.17569419 2.05428815,8.6726094 C2.58417788,8.16967604 3.27838038,7.89269167 4.00915571,7.89269167 C4.86532365,7.89269167 5.66818459,8.27257975 6.21177967,8.93497978 L7.0915723,8.21291226 C6.45279696,7.43466038 5.5578603,6.93657312 4.57788989,6.79649081 L4.57788989,6.36268996 C4.57788989,4.04110963 6.03603316,1.92753259 8.20640033,1.10331856 L7.80228179,0.0396773678 C6.51382742,0.529056811 5.41898952,1.38734491 4.63627014,2.52186018 C3.85362649,3.65637545 3.43981577,4.98458291 3.43981577,6.36291713 L3.43981577,6.79527928 C2.6289285,6.91143402 1.87399843,7.2748151 1.27103873,7.84710813 C0.52837533,8.55115425 0.0892740776,9.50182095 0.0344526763,10.5240432 C0.00764773693,11.0254622 -0.00355884788,11.5310457 0.000984362179,12.0270885 C0.0355884788,15.6367447 0.877823903,19.0932189 2.50436882,22.300498 C4.05352773,25.3553524 6.30665704,28.087639 9.02016497,30.2022004 L9.7197436,29.3045378 C4.33149647,25.1055516 1.20395067,18.804195 1.13898276,12.0162606 Z" id="Path" fill="#000000"></path>
                            <g id="Group" transform="translate(2.271605, 10.600823)" fill="#FFFFFF">
                                <path d="M8.01005793,8.20640033 C7.94001678,7.82666369 7.87792624,7.43996079 7.82530072,7.0570439 L8.95277402,6.9023476 C9.00290077,7.26807601 9.06226538,7.63736327 9.12920201,7.99998715 L8.01005793,8.20640033 Z M7.69385051,5.90034262 C7.6258538,5.1478356 7.5913254,4.38298618 7.591401,3.62699603 C7.591401,3.27323141 7.59867026,2.91583221 7.61305709,2.56486924 L8.75014685,2.61143714 C8.73636578,2.9469532 8.72939952,3.2886026 8.72939952,3.62707175 C8.7293238,4.34906355 8.76226208,5.07930884 8.82722998,5.79789323 L7.69385051,5.90034262 Z" id="Shape"></path>
                                <path d="M14.3746409,20.9033095 C14.0561619,20.6811465 13.739803,20.4473226 13.4342721,20.2082741 L14.1357438,19.3120502 C14.4246919,19.538302 14.7240895,19.7595563 15.0256072,19.9697555 L14.3746409,20.9033095 Z M12.5339593,19.4629604 C12.2421338,19.2077078 11.9534128,18.9407184 11.6756712,18.6693374 L12.470733,17.8552698 C12.7337849,18.1121884 13.0071347,18.3649423 13.2832861,18.6064896 L12.5339593,19.4629604 Z M10.8618309,17.8297521 C9.38619626,16.2213043 8.17421925,14.4078063 7.25959535,12.4397635 L8.29173695,11.9602276 C9.15699131,13.8221866 10.3039247,15.538157 11.7005075,17.0604352 L10.8618309,17.8297521 Z" id="Shape"></path>
                                <path d="M1.23272433,8.2952958 C1.10172844,7.93017315 0.979288928,7.55611553 0.868888923,7.18349658 L1.95994082,6.86002003 C2.06443465,7.21219453 2.18013507,7.56580771 2.30393754,7.91101595 L1.23272433,8.2952958 Z M0.567976977,6.05314592 C0.4787029,5.67530228 0.398893843,5.28996235 0.330821412,4.9079541 L1.45125273,4.70835574 C1.5156906,5.06969238 1.59110788,5.43405783 1.67553587,5.7913813 L0.567976977,6.05314592 Z M0.15795227,3.75125282 C0.0642864223,2.97761987 0.0128724285,2.18831284 0.00530041173,1.40529059 C0.00469465039,1.34054985 0.00446748989,1.27573338 0.00446748989,1.2108412 C0.00446748989,0.824819786 0.014916873,0.432589318 0.0355884788,0.0449020594 L1.17199675,0.105478193 C1.15238523,0.473023887 1.14246589,0.84496135 1.14246589,1.2108412 C1.14246589,1.27225026 1.14269305,1.33343215 1.14329881,1.39446261 C1.15041651,2.13546017 1.19895313,2.88243962 1.28762145,3.61442648 L0.15795227,3.75125282 Z" id="Shape"></path>
                            </g>
                        </g>
                    </g>
                </g>
            </g>
        </g>
    </g>
</svg>