<?xml version="1.0" encoding="UTF-8"?>
<svg width="34px" height="34px" viewBox="0 0 34 34" version="1.1" xmlns="http://www.w3.org/2000/svg" xmlns:xlink="http://www.w3.org/1999/xlink">
    <!-- Generator: Sketch 64 (93537) - https://sketch.com -->
    <title>cross-icon</title>
    <desc>Created with Sketch.</desc>
    <g id="Page-1" stroke="none" stroke-width="1" fill="none" fill-rule="evenodd">
        <g id="05-queckoo-web-app---admin-panel---delivery---filters" transform="translate(-1106.000000, -215.000000)" fill="#4A4E60" fill-rule="nonzero">
            <g id="popup" transform="translate(696.666667, 180.000000)">
                <g id="cross-icon" transform="translate(410.000000, 35.333333)">
                    <path d="M16.6666667,0 C25.8570353,0 33.3333333,7.47629805 33.3333333,16.6666667 C33.3333333,25.8570353 25.8570353,33.3333333 16.6666667,33.3333333 C7.47629805,33.3333333 0,25.8570353 0,16.6666667 C0,7.47629805 7.47629805,0 16.6666667,0 Z M12.4931335,10.529073 C11.9499206,9.98611452 11.0722859,9.98611452 10.529073,10.529073 C9.98611452,11.0722859 9.98611452,11.9499206 10.529073,12.4931335 L10.529073,12.4931335 L14.7028605,16.6666667 L10.529073,20.8401998 C9.98611452,21.3834127 9.98611452,22.2610474 10.529073,22.8042603 C10.7999166,23.0751038 11.1554464,23.2111613 11.5112305,23.2111613 C11.8667603,23.2111613 12.22229,23.0751038 12.4931335,22.8042603 L12.4931335,22.8042603 L16.6666667,18.6304728 L20.8401998,22.8042603 C21.1110433,23.0751038 21.466573,23.2111613 21.8221029,23.2111613 C22.177887,23.2111613 22.5334167,23.0751038 22.8042603,22.8042603 C23.3472188,22.2610474 23.3472188,21.3834127 22.8042603,20.8401998 L22.8042603,20.8401998 L18.6304728,16.6666667 L22.8042603,12.4931335 C23.3472188,11.9499206 23.3472188,11.0722859 22.8042603,10.529073 C22.2610474,9.98611452 21.3834127,9.98611452 20.8401998,10.529073 L20.8401998,10.529073 L16.6666667,14.7028605 Z" id="Combined-Shape"></path>
                </g>
            </g>
        </g>
    </g>
</svg>