<?xml version="1.0" encoding="UTF-8"?>
<svg width="60px" height="60px" viewBox="0 0 60 60" version="1.1" xmlns="http://www.w3.org/2000/svg" xmlns:xlink="http://www.w3.org/1999/xlink">
    <!-- Generator: Sketch 64 (93537) - https://sketch.com -->
    <title>dashboard-icon-hover</title>
    <desc>Created with Sketch.</desc>
    <defs>
        <filter x="-114.7%" y="-114.7%" width="329.4%" height="329.4%" filterUnits="objectBoundingBox" id="filter-1">
            <feOffset dx="0" dy="7" in="SourceAlpha" result="shadowOffsetOuter1"></feOffset>
            <feGaussianBlur stdDeviation="6.5" in="shadowOffsetOuter1" result="shadowBlurOuter1"></feGaussianBlur>
            <feColorMatrix values="0 0 0 0 0.31372549   0 0 0 0 0.788235294   0 0 0 0 0.423529412  0 0 0 0.5 0" type="matrix" in="shadowBlurOuter1" result="shadowMatrixOuter1"></feColorMatrix>
            <feMerge>
                <feMergeNode in="shadowMatrixOuter1"></feMergeNode>
                <feMergeNode in="SourceGraphic"></feMergeNode>
            </feMerge>
        </filter>
    </defs>
    <g id="Page-1" stroke="none" stroke-width="1" fill="none" fill-rule="evenodd">
        <g id="03-queckoo-web-app---admin-panel---dashboard" transform="translate(-37.000000, -220.000000)">
            <g id="Sidebar">
                <g id="tags" transform="translate(50.000000, 226.000000)">
                    <g id="dashbaord" transform="translate(0.000000, 0.166667)">
                        <g id="dashboard-icon-hover" filter="url(#filter-1)" transform="translate(0.000000, 0.500000)">
                            <rect id="Rectangle" fill="#50C96C" x="0" y="0" width="33.3333333" height="33.3333333" rx="6.66666667"></rect>
                            <g id="dashboard-icon" transform="translate(7.333333, 7.500000)" fill="#FFFFFF" fill-rule="nonzero">
                                <path d="M7.19439696,0 L1.36106363,0 C0.610534677,0 0,0.610534677 0,1.36106363 L0,4.86106363 C0,5.61173503 0.610534677,6.2222697 1.36106363,6.2222697 L7.19439696,6.2222697 C7.94506836,6.2222697 8.55560304,5.61173503 8.55560304,4.86106363 L8.55560304,1.36106363 C8.55560304,0.610534677 7.94506836,0 7.19439696,0 Z" id="Path"></path>
                                <path d="M7.19439696,7.7777303 L1.36106363,7.7777303 C0.610534677,7.7777303 0,8.38826497 0,9.13893637 L0,17.305603 C0,18.056132 0.610534677,18.6666667 1.36106363,18.6666667 L7.19439696,18.6666667 C7.94506836,18.6666667 8.55560304,18.056132 8.55560304,17.305603 L8.55560304,9.13893637 C8.55560304,8.38826497 7.94506836,7.7777303 7.19439696,7.7777303 Z" id="Path"></path>
                                <path d="M17.305603,12.444397 L11.4722697,12.444397 C10.7215983,12.444397 10.1110636,13.0549316 10.1110636,13.805603 L10.1110636,17.305603 C10.1110636,18.056132 10.7215983,18.6666667 11.4722697,18.6666667 L17.305603,18.6666667 C18.056132,18.6666667 18.6666667,18.056132 18.6666667,17.305603 L18.6666667,13.805603 C18.6666667,13.0549316 18.056132,12.444397 17.305603,12.444397 L17.305603,12.444397 Z" id="Path"></path>
                                <path d="M17.305603,0 L11.4722697,0 C10.7215983,0 10.1110636,0.610534677 10.1110636,1.36106363 L10.1110636,9.5277303 C10.1110636,10.2784017 10.7215983,10.8889364 11.4722697,10.8889364 L17.305603,10.8889364 C18.056132,10.8889364 18.6666667,10.2784017 18.6666667,9.5277303 L18.6666667,1.36106363 C18.6666667,0.610534677 18.056132,0 17.305603,0 L17.305603,0 Z" id="Path"></path>
                            </g>
                        </g>
                    </g>
                </g>
            </g>
        </g>
    </g>
</svg>