<?xml version="1.0" encoding="UTF-8"?>
<svg width="16px" height="18px" viewBox="0 0 16 18" version="1.1" xmlns="http://www.w3.org/2000/svg" xmlns:xlink="http://www.w3.org/1999/xlink">
    <!-- Generator: Sketch 64 (93537) - https://sketch.com -->
    <title>delete-icon</title>
    <desc>Created with Sketch.</desc>
    <g id="Page-1" stroke="none" stroke-width="1" fill="none" fill-rule="evenodd">
        <g id="07-queckoo-web-app---admin-panel---products" transform="translate(-1744.000000, -367.000000)" fill="#E63C3C" fill-rule="nonzero">
            <g id="orders" transform="translate(466.666667, 212.000000)">
                <g id="Group-11">
                    <g id="order-1" transform="translate(0.000000, 132.000000)">
                        <g id="delete-icon" transform="translate(1277.333333, 23.333333)">
                            <path d="M3.54521995,15.7529506 C3.62141228,16.4786826 4.24818713,17.0204379 4.97731059,16.9908437 L11.0938824,16.9908437 C11.8363395,17.0203915 12.4739392,16.4678112 12.5502245,15.7286992 L13.5453707,5.34015335 L2.3315783,5.34015335 L3.54521995,15.7529506 Z" id="Path"></path>
                            <path d="M15.3658564,2.18476868 L10.8511819,2.18476868 L10.8511819,1.40802502 C10.878128,0.657809292 10.2917723,0.0278287849 9.54160299,0.000882716049 C9.51697986,-5.21786838e-06 9.49231027,-0.000232293697 9.46768713,0.000232293697 L6.40935478,0.000232293697 C5.65876738,-0.0136588694 5.03910071,0.583521767 5.02520955,1.33410916 C5.02474496,1.35873229 5.02497726,1.38340188 5.02585997,1.40802502 L5.02585997,2.18472222 L0.51118551,2.18472222 C0.243072125,2.18472222 0.0257381417,2.40205621 0.0257381417,2.67016959 C0.0257381417,2.93828298 0.243072125,3.15561696 0.51118551,3.15561696 L15.3658564,3.15561696 C15.6339698,3.15561696 15.8513038,2.93828298 15.8513038,2.67016959 C15.8513038,2.40205621 15.6339233,2.18476868 15.3658564,2.18476868 Z M9.8802872,1.40802502 L9.8802872,2.18472222 L5.99670825,2.18472222 L5.99670825,1.40802502 C5.96934405,1.19529045 6.11963808,1.00067479 6.33237264,0.973310591 C6.35787849,0.970012021 6.38366309,0.96931514 6.40930832,0.971127031 L9.46764068,0.971127031 C9.68158317,0.955981481 9.86732521,1.11714685 9.88247076,1.33108934 C9.88432911,1.35673457 9.88358577,1.38251917 9.8802872,1.40802502 Z" id="Shape"></path>
                        </g>
                    </g>
                </g>
            </g>
        </g>
    </g>
</svg>