<?xml version="1.0" encoding="UTF-8"?>
<svg width="24px" height="25px" viewBox="0 0 24 25" version="1.1" xmlns="http://www.w3.org/2000/svg" xmlns:xlink="http://www.w3.org/1999/xlink">
    <!-- Generator: Sketch 64 (93537) - https://sketch.com -->
    <title>delivery-icon</title>
    <desc>Created with Sketch.</desc>
    <g id="Page-1" stroke="none" stroke-width="1" fill="none" fill-rule="evenodd">
        <g id="delivery-icon" transform="translate(0.666667, 0.500000)" fill-rule="nonzero">
            <path d="M10.9946446,0.0774600551 L0.257528926,5.2609146 C0.122887052,5.32591736 0.0373719008,5.46219835 0.0373719008,5.61168595 L0.0373719008,18.3662755 C0.0373719008,18.5157631 0.122933884,18.6520441 0.257528926,18.7170468 L10.9946446,23.9005014 C11.2086198,24.0038127 11.4580468,24.0038127 11.672022,23.9005014 L22.4091377,18.7170468 C22.5437796,18.6520441 22.6292948,18.5157631 22.6292948,18.3662755 L22.6292948,5.61168595 C22.6292948,5.46219835 22.5437328,5.32591736 22.4091377,5.2609146 L11.672022,0.0774600551 C11.4580468,-0.0258044077 11.2086198,-0.0258044077 10.9946446,0.0774600551 Z" id="Path" fill="#78849E"></path>
            <path d="M0.102140496,5.39846006 C0.0612093664,5.46079339 0.0373719008,5.53417906 0.0373719008,5.61168595 L0.0373719008,18.3662755 C0.0373719008,18.5157631 0.122933884,18.6520441 0.257528926,18.7170468 L10.9946446,23.9004545 C11.1016088,23.9521102 11.2174711,23.9779146 11.3333333,23.9779146 L11.3333333,10.8204298 L0.102140496,5.39846006 Z" id="Path" fill="#78849E"></path>
            <path d="M22.5645262,5.39846006 C22.6054573,5.46079339 22.6292948,5.53417906 22.6292948,5.61168595 L22.6292948,18.3662755 C22.6292948,18.5157631 22.5437328,18.6520441 22.4091377,18.7170468 L11.672022,23.9004545 C11.5650579,23.9521102 11.4491956,23.9779614 11.3333333,23.9779614 L11.3333333,10.8204298 L22.5645262,5.39846006 Z" id="Path" fill="#78849E"></path>
            <path d="M3.25046556,17.686416 C3.1937989,17.686416 3.13596143,17.673865 3.08158953,17.6476391 L1.42387879,16.8473278 C1.22990083,16.7537576 1.14888154,16.5209559 1.24245179,16.3273526 C1.33564738,16.1337493 1.56919835,16.0531047 1.762427,16.1459256 L3.42013774,16.9462837 C3.6141157,17.039854 3.69513499,17.2726556 3.60156474,17.466259 C3.53464187,17.6053967 3.39541047,17.686416 3.25046556,17.686416 Z" id="Path" fill="#FFFFFF" opacity="0.19543"></path>
            <path d="M4.77620386,16.6932507 C4.71953719,16.6932507 4.66169972,16.6806997 4.60732782,16.6544738 L1.42612672,15.118854 C1.23252342,15.0252837 1.15112948,14.7924821 1.24469972,14.5988788 C1.33789532,14.4056501 1.57182094,14.3246309 1.76467493,14.4174518 L4.9458292,15.9530716 C5.13943251,16.0466419 5.22082645,16.2794435 5.1272562,16.4730468 C5.06038017,16.6121846 4.92114876,16.6932507 4.77620386,16.6932507 Z" id="Path" fill="#FFFFFF" opacity="0.19543"></path>
            <polygon id="Path" fill="#FFFFFF" opacity="0.200125558" points="18.7584931 7.22958953 7.48782094 1.78476584 4.51680165 3.22484848 15.8127631 8.67810193"></polygon>
            <path d="M15.8127631,8.67810193 L15.8127631,12.9026722 C15.8127631,13.046259 15.9628595,13.1404848 16.0922094,13.0780579 L18.5383361,11.8971901 C18.672978,11.8321873 18.7584931,11.6959063 18.7584931,11.5464187 L18.7584931,7.22963636 L15.8127631,8.67810193 Z" id="Path" fill="#FFFFFF" opacity="0.300126"></path>
        </g>
    </g>
</svg>