<?xml version="1.0" encoding="UTF-8"?>
<svg width="60px" height="60px" viewBox="0 0 60 60" version="1.1" xmlns="http://www.w3.org/2000/svg" xmlns:xlink="http://www.w3.org/1999/xlink">
    <!-- Generator: Sketch 64 (93537) - https://sketch.com -->
    <title>delivery-icon-hover</title>
    <desc>Created with Sketch.</desc>
    <defs>
        <filter x="-114.7%" y="-114.7%" width="329.4%" height="329.4%" filterUnits="objectBoundingBox" id="filter-1">
            <feOffset dx="0" dy="7" in="SourceAlpha" result="shadowOffsetOuter1"></feOffset>
            <feGaussianBlur stdDeviation="6.5" in="shadowOffsetOuter1" result="shadowBlurOuter1"></feGaussianBlur>
            <feColorMatrix values="0 0 0 0 0.31372549   0 0 0 0 0.788235294   0 0 0 0 0.423529412  0 0 0 0.5 0" type="matrix" in="shadowBlurOuter1" result="shadowMatrixOuter1"></feColorMatrix>
            <feMerge>
                <feMergeNode in="shadowMatrixOuter1"></feMergeNode>
                <feMergeNode in="SourceGraphic"></feMergeNode>
            </feMerge>
        </filter>
    </defs>
    <g id="Page-1" stroke="none" stroke-width="1" fill="none" fill-rule="evenodd">
        <g id="04-queckoo-web-app---admin-panel---delivery" transform="translate(-36.000000, -292.000000)">
            <g id="Sidebar">
                <g id="tags" transform="translate(49.333333, 228.000000)">
                    <g id="delivery" transform="translate(0.000000, 70.166667)">
                        <g id="delivery-icon-hover" filter="url(#filter-1)">
                            <rect id="Rectangle" fill="#50C96C" x="0" y="0" width="33.3333333" height="33.3333333" rx="6.66666667"></rect>
                            <g id="box" transform="translate(7.333333, 6.666667)" fill-rule="nonzero">
                                <path d="M9.05441322,0.0637906336 L0.212082645,4.33251791 C0.101201102,4.38604959 0.0307768595,4.49828099 0.0307768595,4.62138843 L0.0307768595,15.125168 C0.0307768595,15.2482755 0.101239669,15.3605069 0.212082645,15.4140386 L9.05441322,19.6827658 C9.2306281,19.7678457 9.43603857,19.7678457 9.61225344,19.6827658 L18.454584,15.4140386 C18.5654656,15.3605069 18.6358898,15.2482755 18.6358898,15.125168 L18.6358898,4.62138843 C18.6358898,4.49828099 18.565427,4.38604959 18.454584,4.33251791 L9.61225344,0.0637906336 C9.43603857,-0.0212506887 9.2306281,-0.0212506887 9.05441322,0.0637906336 Z" id="Path" fill="#FFFFFF"></path>
                                <path d="M0.0841157025,4.44579063 C0.0504077135,4.49712397 0.0307768595,4.55755923 0.0307768595,4.62138843 L0.0307768595,15.125168 C0.0307768595,15.2482755 0.101239669,15.3605069 0.212082645,15.4140386 L9.05441322,19.6827273 C9.14250138,19.7252672 9.23791736,19.7465179 9.33333333,19.7465179 L9.33333333,8.91094215 L0.0841157025,4.44579063 Z" id="Path" fill="#FFFFFF"></path>
                                <path d="M18.582551,4.44579063 C18.616259,4.49712397 18.6358898,4.55755923 18.6358898,4.62138843 L18.6358898,15.125168 C18.6358898,15.2482755 18.565427,15.3605069 18.454584,15.4140386 L9.61225344,19.6827273 C9.52416529,19.7252672 9.42874931,19.7465565 9.33333333,19.7465565 L9.33333333,8.91094215 L18.582551,4.44579063 Z" id="Path" fill="#FFFFFF"></path>
                                <path d="M2.67685399,14.5652837 C2.63018733,14.5652837 2.58255647,14.5549477 2.53777961,14.5333499 L1.17260606,13.87427 C1.0128595,13.7972121 0.946137741,13.6054931 1.02319559,13.4460551 C1.0999449,13.2866171 1.29228099,13.2202039 1.45141047,13.2966446 L2.81658402,13.9557631 C2.97633058,14.0328209 3.04305234,14.2245399 2.96599449,14.383978 C2.91088154,14.498562 2.79622039,14.5652837 2.67685399,14.5652837 Z" id="Path" fill="#6F6F6F" opacity="0.19543"></path>
                                <path d="M3.93334435,13.7473829 C3.88667769,13.7473829 3.83904683,13.7370468 3.79426997,13.715449 L1.1744573,12.4508209 C1.01501928,12.3737631 0.947988981,12.1820441 1.02504683,12.0226061 C1.10179614,11.8634766 1.29444077,11.7967548 1.45326171,11.8731956 L4.07303581,13.1378237 C4.23247383,13.2148815 4.29950413,13.4066006 4.22244628,13.5660386 C4.1673719,13.6806226 4.05271074,13.7473829 3.93334435,13.7473829 Z" id="Path" fill="#6F6F6F" opacity="0.19543"></path>
                                <polygon id="Path" fill="#9E9E9E" opacity="0.200125558" points="15.4481708 5.95377961 6.16644077 1.46980716 3.71971901 2.65575758 13.0222755 7.14667218"></polygon>
                                <path d="M13.0222755,7.14667218 L13.0222755,10.62573 C13.0222755,10.743978 13.1458843,10.8215758 13.2524077,10.7701653 L15.266865,9.79768595 C15.3777466,9.74415427 15.4481708,9.63192287 15.4481708,9.50881543 L15.4481708,5.95381818 L13.0222755,7.14667218 Z" id="Path" fill="#9E9E9E" opacity="0.300126"></path>
                            </g>
                        </g>
                    </g>
                </g>
            </g>
        </g>
    </g>
</svg>