<?xml version="1.0" encoding="UTF-8"?>
<svg width="46px" height="38px" viewBox="0 0 46 38" version="1.1" xmlns="http://www.w3.org/2000/svg" xmlns:xlink="http://www.w3.org/1999/xlink">
    <!-- Generator: Sketch 64 (93537) - https://sketch.com -->
    <title>friut-veggies</title>
    <desc>Created with Sketch.</desc>
    <g id="Page-1" stroke="none" stroke-width="1" fill="none" fill-rule="evenodd">
        <g id="03-queckoo-web-app---admin-panel---dashboard" transform="translate(-520.000000, -1068.000000)" fill-rule="nonzero">
            <g id="Total-Items" transform="translate(466.666667, 834.666667)">
                <g id="2" transform="translate(53.466669, 233.733338)">
                    <g id="friut-veggies">
                        <g id="strawberry">
                            <path d="M33.3255636,6.36270495 C33.3334788,5.50335273 33.1750167,4.63766836 32.8958479,3.82794438 C32.4595626,2.5630178 31.6680436,1.44547207 30.5686236,0.681102134 C30.4469671,0.5965679 30.2866054,0.591660482 30.1601998,0.668833589 C29.0328392,1.35698024 28.1829061,2.40629703 27.6703975,3.6228618 C27.2536627,4.61194399 26.9935696,5.7305187 27.1083398,6.81062558 C27.2911807,8.53099221 28.0258687,10.2458974 29.3655938,11.3916212 C29.4931075,11.5006925 29.6253704,11.6043023 29.7617491,11.7021341 C29.7843074,11.7183602 29.8850678,11.7844521 29.9820289,11.8476944 C30.1050309,11.9279545 30.2638888,11.9284294 30.3872075,11.8486443 C30.701678,11.645303 30.9967563,11.4121215 31.2676141,11.1534531 C32.5377647,9.94068762 33.3093374,8.12660513 33.3255636,6.36270495 L33.3255636,6.36270495 Z" id="Path" fill="#91DEB6"></path>
                            <path d="M33.3256427,6.36286326 C33.3090208,8.12636768 32.5380813,9.94052932 31.2676932,11.1531365 C30.9969937,11.4119632 30.7017571,11.6454613 30.3875241,11.8488817 C30.2640471,11.9288251 30.1049518,11.9280336 29.9822663,11.8480902 C29.8849095,11.7847687 29.7843866,11.7182811 29.7614325,11.7024507 C29.7044431,11.6612917 29.6490368,11.6193412 29.5936305,11.5773907 C29.6537859,11.5251504 29.7123583,11.4705356 29.7701392,11.4159208 C31.0405273,10.2025221 31.8122583,8.38836048 31.8280887,6.62485606 C31.8360039,5.76526638 31.6777001,4.89934455 31.3982939,4.08962057 C31.009658,2.96249746 30.3392414,1.95251917 29.4194963,1.20611671 C29.6506198,1.00823695 29.8983653,0.828562131 30.1603581,0.668675285 C30.2862096,0.591897938 30.446888,0.596647052 30.5687819,0.681339589 C31.6682019,1.44515546 32.4597209,2.56278035 32.8958479,3.82762777 C33.1752541,4.63735175 33.3335579,5.50327358 33.3256427,6.36286326 Z" id="Path" fill="#6ED5A1"></path>
                            <path d="M35.4083668,12.0910865 C36.1670378,11.6873327 36.8517809,11.1344566 37.4295898,10.5021912 C38.3322381,9.51445462 38.9356131,8.28506725 39.0816483,6.95404883 C39.0977953,6.80682629 39.0254505,6.66364049 38.8972244,6.58939601 C37.7540335,5.9280027 36.426102,5.68286925 35.112497,5.81402395 C34.0445003,5.92064157 32.9376401,6.22672198 32.0436985,6.84379023 C30.6199141,7.82654027 29.4645337,9.2914837 29.098377,11.0158871 C29.0635502,11.1800481 29.0356887,11.3457131 29.0149509,11.5122487 C29.0115474,11.5397935 29.0015742,11.659867 28.9923135,11.7752705 C28.980599,11.9217015 29.0561099,12.0614837 29.1851275,12.1316915 C29.5140037,12.3107331 29.8598975,12.4585097 30.216556,12.5728842 C31.8888774,13.10898 33.8511322,12.919807 35.4083668,12.0910865 L35.4083668,12.0910865 Z" id="Path" fill="#00C27A"></path>
                            <path d="M39.0815692,6.95412798 C38.9359297,8.285463 38.3320007,9.51469207 37.429669,10.5025078 C36.8518601,11.13414 36.1671961,11.6874118 35.4081293,12.0910865 C33.8512114,12.919807 31.8890357,13.10898 30.216556,12.5731216 C29.8595809,12.4583514 29.513687,12.3111288 29.1852066,12.131454 C29.1028887,12.087129 29.0411502,12.0135177 29.0110725,11.9280336 C30.6534745,12.4116518 32.5515371,12.2113974 34.0665046,11.4048395 C34.8255713,11.0011648 35.5102353,10.447893 36.0880442,9.81626083 C36.9903759,8.82844507 37.5943049,7.59842448 37.7399444,6.26788097 C37.7478596,6.19743578 37.7351953,6.1277821 37.7059091,6.06683514 C38.1182905,6.19664426 38.5180076,6.36998693 38.8971453,6.5892377 C39.0253713,6.66364049 39.0973996,6.80690544 39.0815692,6.95412798 L39.0815692,6.95412798 Z" id="Path" fill="#08B865"></path>
                            <path d="M24.998625,12.0910865 C24.239954,11.6873327 23.5552109,11.1344566 22.977402,10.5021912 C22.0747537,9.51445462 21.4713787,8.28506725 21.3253434,6.95404883 C21.3091964,6.80682629 21.3815413,6.66364049 21.5097674,6.58939601 C22.6529583,5.9280027 23.9808898,5.68286925 25.2944948,5.81402395 C26.3624914,5.92064157 27.4693517,6.22672198 28.3632933,6.84379023 C29.7870777,7.82654027 30.9424581,9.2914837 31.3086148,11.0158871 C31.3434416,11.1800481 31.3713031,11.3457131 31.3920409,11.5122487 C31.3954444,11.5397935 31.4054175,11.659867 31.4146783,11.7752705 C31.4263928,11.9217015 31.3508819,12.0614837 31.2218643,12.1316915 C30.8929881,12.3107331 30.5470943,12.4585097 30.1904358,12.5728842 C28.5180352,13.10898 26.5557804,12.919807 24.998625,12.0910865 L24.998625,12.0910865 Z" id="Path" fill="#00C27A"></path>
                            <path d="M31.2217851,12.131454 C31.0009513,12.2525564 30.7714108,12.35862 30.5363296,12.4504362 C30.5276229,12.4084857 30.5189162,12.3665352 30.5102095,12.3245847 C30.1445277,10.5998647 28.9889099,9.13555445 27.5649672,8.15248781 C26.6713422,7.53510296 25.5647986,7.22957661 24.4962479,7.12272154 C23.4474851,7.0174495 22.3892242,7.15279926 21.4227794,7.5493503 C21.3800374,7.35384509 21.3475851,7.15517382 21.3254226,6.95412798 C21.3088007,6.80690544 21.3816204,6.66364049 21.5098465,6.5892377 C22.6528,5.9283193 23.980969,5.6829484 25.294099,5.81434056 C26.3626497,5.92040411 27.4691934,6.22672198 28.3636099,6.84410683 C29.7867611,7.82638196 30.9423789,9.2914837 31.3088522,11.0162037 C31.3436791,11.1800481 31.3713822,11.3454756 31.3919617,11.5124861 C31.3951278,11.5401893 31.4054175,11.6597087 31.4149158,11.7752705 C31.425997,11.9217015 31.3508027,12.0618003 31.2217851,12.131454 L31.2217851,12.131454 Z" id="Path" fill="#08B865"></path>
                            <path d="M8.80097936,10.4255722 C8.19894997,9.81230323 7.4747892,9.3122215 6.70472033,8.93712063 C5.50176969,8.35115909 4.15183397,8.12066874 2.83395477,8.35757039 C2.68815696,8.38376967 2.57132875,8.49371166 2.53650191,8.63768898 C2.22590984,9.92137456 2.36695854,11.2644241 2.86474486,12.4870835 C3.26944855,13.4811523 3.8764645,14.4559871 4.72141107,15.1385932 C6.06715174,16.2257446 7.79931201,16.9188778 9.55680089,16.7817075 C9.72412801,16.7686475 9.89090107,16.7483846 10.0564869,16.7211563 C10.0838734,16.7166447 10.2018889,16.6921867 10.3151553,16.668362 C10.4588951,16.638126 10.5715283,16.526126 10.6023975,16.3825445 C10.6809954,16.0163878 10.7247664,15.6428699 10.7333939,15.2684023 C10.7739989,13.5126547 10.036778,11.6843249 8.80097936,10.4255722 L8.80097936,10.4255722 Z" id="Path" fill="#91DEB6"></path>
                            <path d="M10.7333148,15.268244 C10.7246081,15.6426325 10.6810745,16.0162295 10.6027141,16.3827028 C10.5718449,16.5259677 10.4586577,16.6383634 10.3153927,16.6684412 C10.2022055,16.6921867 10.0842692,16.7167238 10.056566,16.7214729 C9.96237524,16.7365118 9.86739296,16.7499676 9.77241067,16.7610489 C9.77874283,16.6731903 9.78270042,16.5845401 9.78507498,16.49589 C9.82544245,14.7403008 9.08853822,12.9118918 7.85218548,11.652585 C7.25063101,11.0399493 6.52639109,10.5397092 5.75624307,10.1645292 C4.70748034,9.65399942 3.54790494,9.41258612 2.3946617,9.51627511 C2.41919879,9.22183003 2.46589842,8.92817647 2.53634361,8.63768898 C2.57117045,8.49363251 2.68831527,8.38361137 2.83395477,8.35749124 C4.15183397,8.12082704 5.50216545,8.35115909 6.70448287,8.93688317 C7.4746309,9.3120632 8.19887082,9.81230323 8.80121681,10.4257305 C10.036778,11.6842458 10.7736823,13.5126547 10.7333148,15.268244 L10.7333148,15.268244 Z" id="Path" fill="#6ED5A1"></path>
                            <path d="M14.3243575,13.0033914 C14.5753482,12.181478 14.6685891,11.3063746 14.6300422,10.4506633 C14.5698867,9.11394598 14.1271901,7.81799186 13.2892881,6.77358249 C13.1966012,6.65802071 13.0441546,6.60791755 12.901048,6.64614792 C11.624961,6.98681772 10.5126393,7.75245408 9.67655772,8.77406771 C8.99680117,9.60460864 8.43054844,10.6037431 8.23472663,11.6722147 C7.92286813,13.3739015 8.1418023,15.2267684 9.10222865,16.7049302 C9.19365195,16.8456623 9.2911671,16.9824368 9.39422288,17.114937 C9.41131969,17.1368621 9.48912601,17.2287575 9.56424117,17.3169327 C9.65946091,17.4287743 9.81174917,17.4741284 9.95256041,17.4326528 C10.3117517,17.3267475 10.6608116,17.1866487 10.9938037,17.0152848 C12.5554708,16.2118138 13.8092369,14.6905142 14.3243575,13.0033914 L14.3243575,13.0033914 Z" id="Path" fill="#00C27A"></path>
                            <path d="M14.3244367,13.003708 C13.8091578,14.6904351 12.5553916,16.2117347 10.9937246,17.0151265 C10.660495,17.1868861 10.3114351,17.326985 9.95287701,17.432257 C9.81198662,17.4742075 9.65922345,17.429091 9.56424117,17.3166952 C9.48904686,17.2288366 9.41147799,17.1370204 9.39406457,17.1148579 C9.37348508,17.0887378 9.3536971,17.0618261 9.33390912,17.035706 C9.34815647,17.0293738 9.36161229,17.0222502 9.37585963,17.0151265 C10.9375267,16.2117347 12.1912929,14.6904351 12.7065718,13.003708 C12.9574833,12.1813197 13.0508825,11.3066912 13.0120981,10.4510591 C12.9566918,9.22183003 12.5783457,8.02663628 11.8659785,7.03090533 C12.196042,6.87181 12.5427273,6.74200088 12.9012854,6.64622707 C13.0445504,6.60823416 13.196522,6.65809986 13.2891298,6.77366164 C14.1273484,7.81767525 14.5698076,9.11418344 14.629963,10.4510591 C14.6687475,11.3066912 14.5753482,12.1813197 14.3244367,13.003708 L14.3244367,13.003708 Z" id="Path" fill="#08B865"></path>
                            <path d="M6.96354706,20.3642019 C6.14163369,20.6151925 5.26653024,20.7084335 4.410819,20.6698865 C3.07410165,20.6097311 1.77814752,20.1670345 0.73373815,19.3291324 C0.61817637,19.2364455 0.568073215,19.083999 0.606303584,18.9408923 C0.946973379,17.6648053 1.71260975,16.5524836 2.73422337,15.7164021 C3.5647643,15.0366455 4.56389878,14.4703928 5.63237034,14.274571 C7.33405712,13.9627125 9.18692404,14.1816466 10.6650858,15.142073 C10.8058179,15.2334963 10.9425924,15.3310114 11.0750927,15.4340672 C11.0970178,15.451164 11.1889131,15.5289703 11.2770884,15.6040855 C11.38893,15.6993052 11.434284,15.8515935 11.3928085,15.9924047 C11.2869032,16.3515961 11.1468043,16.700656 10.9754405,17.033648 C10.1719695,18.5953151 8.65059074,19.8490813 6.96354706,20.3642019 Z" id="Path" fill="#00C27A"></path>
                            <path d="M11.3926501,15.9924839 C11.302417,16.2988018 11.1868552,16.597996 11.0491309,16.8853174 C11.014304,16.8615718 10.9786857,16.8386177 10.9438589,16.8156637 C9.4660928,15.8555511 7.61314673,15.6363003 5.9113808,15.9481588 C4.84283009,16.1444556 3.84393306,16.7103917 3.01283807,17.3903065 C2.24981372,18.014815 1.62926279,18.7944613 1.22242201,19.6809626 C1.05461997,19.573316 0.891567046,19.4561712 0.734054758,19.3295282 C0.618492978,19.2361289 0.567835759,19.0841573 0.606620192,18.9408923 C0.946973379,17.6649636 1.71237229,16.5528794 2.73422337,15.7162438 C3.56452684,15.0363289 4.56421539,14.4703928 5.63197458,14.2748876 C7.33374051,13.9630291 9.18668658,14.1814883 10.6652441,15.1423924 C10.8061345,15.2334171 10.9422758,15.330774 11.075251,15.434463 C11.096622,15.4510849 11.1892298,15.5286537 11.2770884,15.603848 C11.3886926,15.6996219 11.4346007,15.8515935 11.3926501,15.9924839 L11.3926501,15.9924839 Z" id="Path" fill="#08B865"></path>
                            <path d="M39.8694473,18.4902014 C39.8694473,13.1518012 35.5418169,8.82417086 30.2034167,8.82417086 C24.8650166,8.82417086 20.5373862,13.1518012 20.5373862,18.4902014 C20.5373862,20.2049482 21.0101605,21.6907086 21.7659821,23.2084464 C22.8277257,25.3404029 25.1362701,29.2248617 28.7030132,31.3591137 C29.6245789,31.910565 30.7763974,31.9134936 31.6992294,31.3641003 C33.8309485,30.0950578 35.561684,28.1745951 36.9383731,26.1339799 C37.29891,25.5994671 37.6382342,25.0507069 37.9572164,24.4903906 C39.0234717,22.6170233 39.8694473,20.6926823 39.8694473,18.4902014 Z" id="Path" fill="#E94444"></path>
                            <path d="M39.8691306,18.490518 C39.8691306,20.692524 39.0237883,22.6167067 37.9568206,24.4902323 C37.63863,25.0506278 37.2990683,25.599942 36.9381356,26.1342174 C35.561684,28.1747534 33.8306319,30.0949786 31.6990711,31.3645752 C30.8054461,31.896476 29.698111,31.9107233 28.7918217,31.4104833 C29.2303232,31.376448 29.6632841,31.2426812 30.0550861,31.0091831 C32.1866468,29.7403781 33.917699,27.8201529 35.2941506,25.7796168 C35.6550833,25.2453415 35.9938534,24.6960273 36.3128356,24.1356318 C37.3790117,22.2621062 38.2251456,20.3379234 38.2251456,18.1359175 C38.2251456,13.793644 35.3622212,10.1202041 31.4212479,8.9004733 C36.185401,9.49965321 39.8691306,13.5641035 39.8691306,18.490518 Z" id="Path" fill="#D83131"></path>
                            <path d="M22.0036752,14.3737483 C18.2288418,10.5989149 12.1087374,10.5989149 8.33390397,14.3737483 C4.55907052,18.1485818 4.55907052,24.2686861 8.33390397,28.0435196 C9.54635284,29.2559684 10.9312737,29.9722932 12.5390072,30.5110802 C14.7972901,31.2678515 19.1763692,32.382152 23.2076549,31.3693243 C24.2492939,31.1076481 25.0657458,30.2952329 25.3297966,29.2542271 C25.9397411,26.8495131 25.8056578,24.2677363 25.3361287,21.8513078 C25.2131266,21.2184092 25.0650334,20.590418 24.8943028,19.9686798 C24.3235384,17.8900716 23.5610681,15.9311412 22.0036752,14.3737483 Z" id="Path" fill="#E94444"></path>
                            <path d="M25.3297174,29.2543854 C25.06535,30.2952329 24.2492939,31.1073315 23.2076549,31.3693243 C22.547528,31.5355433 21.8794859,31.6439814 21.2114438,31.7065114 C21.3238395,31.6819743 21.4362352,31.6558542 21.5486309,31.6273595 C22.59027,31.3653667 23.4063261,30.5532682 23.6706935,29.5124206 C24.2809547,27.1077858 24.1463964,24.5258507 23.6770256,22.109343 C23.5543402,21.4761278 23.4063261,20.8484532 23.235358,20.2271108 C22.6646728,18.1477902 21.9016484,16.1895721 20.3447305,14.6318627 C18.2899471,12.5770792 15.5402099,11.6407122 12.8522113,11.8227616 C16.0277856,11.0423238 19.5223422,11.8924153 22.0037544,14.3738275 C23.5606723,15.9307454 24.3236967,17.889755 24.8943819,19.9690756 C25.06535,20.590418 25.2133641,21.2180926 25.3360496,21.8513078 C25.8054203,24.2678155 25.9399786,26.8497506 25.3297174,29.2543854 L25.3297174,29.2543854 Z" id="Path" fill="#D83131"></path>
                            <g id="Group" fill="#000000">
                                <path d="M32.8200995,20.5460138 C32.4922523,20.5460138 32.2264602,20.8118059 32.2264602,21.1396531 L32.2264602,22.1990221 C32.2264602,22.5268693 32.4922523,22.7926614 32.8200995,22.7926614 C33.1479467,22.7926614 33.4137388,22.5268693 33.4137388,22.1990221 L33.4137388,21.1396531 C33.4137388,20.8118059 33.1479467,20.5460138 32.8200995,20.5460138 Z" id="Path"></path>
                                <path d="M27.5868131,20.5460138 C27.2589659,20.5460138 26.9931738,20.8118059 26.9931738,21.1396531 L26.9931738,22.1990221 C26.9931738,22.5268693 27.2589659,22.7926614 27.5868131,22.7926614 C27.9146603,22.7926614 28.1804524,22.5268693 28.1804524,22.1990221 L28.1804524,21.1396531 C28.1804524,20.8118059 27.9146603,20.5460138 27.5868131,20.5460138 Z" id="Path"></path>
                                <path d="M30.2034959,16.4336766 C29.8756487,16.4336766 29.6098566,16.6994687 29.6098566,17.0273159 L29.6098566,18.086685 C29.6098566,18.4145322 29.8756487,18.6803243 30.2034959,18.6803243 C30.5313431,18.6803243 30.7971352,18.4145322 30.7971352,18.086685 L30.7971352,17.0273159 C30.7971352,16.6994687 30.5313431,16.4336766 30.2034959,16.4336766 Z" id="Path"></path>
                                <path d="M35.7925701,16.4336766 C35.4647229,16.4336766 35.1989309,16.6994687 35.1989309,17.0273159 L35.1989309,18.086685 C35.1989309,18.4145322 35.4647229,18.6803243 35.7925701,18.6803243 C36.1204173,18.6803243 36.3862094,18.4145322 36.3862094,18.086685 L36.3862094,17.0273159 C36.3862094,16.6994687 36.1204173,16.4336766 35.7925701,16.4336766 Z" id="Path"></path>
                                <path d="M30.2034959,24.1171894 C29.8756487,24.1171894 29.6098566,24.3829815 29.6098566,24.7108287 L29.6098566,25.7701977 C29.6098566,26.0980449 29.8756487,26.363837 30.2034959,26.363837 C30.5313431,26.363837 30.7971352,26.0980449 30.7971352,25.7701977 L30.7971352,24.7108287 C30.7971352,24.3829815 30.5313431,24.1171894 30.2034959,24.1171894 Z" id="Path"></path>
                                <path d="M37.4967898,11.2819958 C37.6228788,11.1597852 37.7472264,11.0345669 37.8677748,10.9026999 C38.8921587,9.78182975 39.5159548,8.43878024 39.6717258,7.01879509 C39.713518,6.63767867 39.5261654,6.26748521 39.194519,6.075621 C37.9739966,5.36942771 36.5422178,5.07466602 35.053608,5.22339245 C34.6420181,5.26447229 34.2453087,5.3315931 33.8671209,5.42325101 C33.8154347,4.97350989 33.7246475,4.51996948 33.5939677,4.06698313 C33.5031013,3.75195855 33.1742251,3.57022578 32.8590423,3.66109217 C32.5440177,3.75195855 32.3622849,4.08099302 32.4531513,4.3960176 C32.5896092,4.86926683 32.6755682,5.34124963 32.7118197,5.8055547 C32.3479584,5.96203802 32.0106922,6.14543298 31.7065114,6.35542298 C31.1402587,6.74627508 30.6368526,7.18857592 30.2031793,7.67029441 C29.7697435,7.18849677 29.2667331,6.74619593 28.7006387,6.35542298 C28.397566,6.1462245 28.0616454,5.9633836 27.6992879,5.80729604 C27.7599975,5.18658681 27.9345274,4.52511435 28.2174955,3.85343129 C28.6808507,2.75353644 29.4155387,1.85714112 30.3471566,1.25265803 C30.705873,1.5171837 31.0331661,1.82991287 31.3216748,2.18395933 C31.5287362,2.4381161 31.902729,2.47626732 32.1568857,2.26912678 C32.4110425,2.0620654 32.4491937,1.68807266 32.2420532,1.43391589 C31.8524675,0.955759241 31.4034388,0.538549555 30.9076312,0.193843013 C30.5928441,-0.0250120017 30.1781673,-0.0373596987 29.8510325,0.162261403 C28.6474486,0.896949376 27.7042745,2.0140202 27.1234578,3.39252976 C26.8337619,4.0802015 26.6415811,4.76589444 26.5502398,5.42602132 C26.168965,5.33309699 25.7689313,5.26502635 25.3536213,5.22355075 C23.865328,5.07490348 22.4331535,5.36966517 21.2126311,6.0757793 C20.8809846,6.26764352 20.6936321,6.63791612 20.7354243,7.01895339 C20.8911161,8.43893855 21.5149122,9.78198805 22.5393753,10.9028582 C22.660082,11.0349627 22.7838756,11.1620015 22.910202,11.2845286 C22.3649245,11.836534 21.8809898,12.4491698 21.4710621,13.1124627 C19.6426531,11.6871744 17.4388266,10.9680002 15.2314383,10.9546235 C15.2339712,10.7792229 15.2313592,10.6023975 15.2232857,10.4242266 C15.1550568,8.90728036 14.6465058,7.51650226 13.7525642,6.40228091 C13.5126547,6.10324501 13.1184783,5.9737525 12.7482057,6.07277153 C11.3858431,6.43647453 10.164925,7.24057872 9.21747667,8.39825447 C8.95556302,8.71818646 8.72253982,9.0461128 8.5199901,9.37823419 C8.05133167,9.0064577 7.53169942,8.67963949 6.96497179,8.40355765 C5.59975975,7.73852335 4.13497462,7.52061816 2.72915765,7.77342934 C2.35191967,7.84126252 2.04987601,8.12573446 1.95972199,8.49822332 C1.62815466,9.86873854 1.75099842,11.3255293 2.31519319,12.7110043 C2.59665736,13.4024753 2.94666708,14.0220764 3.34915451,14.5534231 C3.01339214,14.7574767 2.68190396,14.9924787 2.35848928,15.2571627 C1.20089269,16.204611 0.396709343,17.4255291 0.033006344,18.7878917 C-0.0658543841,19.1580851 0.0634006751,19.5522616 0.36251572,19.7923293 C1.47673707,20.686271 2.86751518,21.1948219 4.38446142,21.2630509 C4.52004863,21.2691456 4.65476517,21.2722325 4.78869019,21.2722325 C4.82937427,21.2722325 4.86966259,21.2708869 4.91018836,21.2702537 C4.92601874,23.987776 5.99116592,26.5401875 7.91439888,28.4634996 C8.3621612,28.9112619 8.83446061,29.2999769 9.35805046,29.6518863 C9.63025385,29.8348063 9.99902257,29.7623823 10.1818635,29.4902581 C10.3647044,29.2181338 10.2923595,28.849286 10.0202353,28.6664451 C9.56099594,28.3579109 9.14679402,28.0168454 8.75388397,27.6240145 C5.21658538,24.0867159 5.21658538,18.3310269 8.75388397,14.7937283 C12.2911034,11.2565089 18.0467133,11.2563506 21.5841702,14.7937283 C22.4524665,15.6620247 23.4567459,16.9746007 24.3221137,20.1261129 C24.4907072,20.7403317 24.6358718,21.358983 24.7536498,21.9648117 C25.2754192,24.6504358 25.275815,27.0538833 24.7546788,29.1085084 C24.5439764,29.9388119 23.8958807,30.5846123 23.0632818,30.7938108 C19.178348,31.7699121 14.9203714,30.6831564 12.7279428,29.9484685 C12.6111937,29.9093674 12.4957111,29.8692374 12.3814157,29.8280784 C12.0730399,29.7170283 11.732845,29.8769943 11.6217158,30.1854493 C11.5105865,30.4939042 11.6706316,30.83402 11.9790866,30.9451492 C12.1016929,30.989316 12.2254865,31.0322955 12.3507048,31.074246 C14.0008637,31.6272012 16.7638984,32.3674298 19.7282955,32.3674298 C20.9235684,32.3674298 22.1520851,32.2469606 23.3526611,31.9453127 C24.4626874,31.6663814 25.3547294,30.8724086 25.7671108,29.8266537 C26.5547514,30.5864328 27.4304089,31.2895392 28.398595,31.8689311 C28.9562202,32.2025564 29.5813619,32.3693294 30.2065037,32.3693294 C30.8278461,32.3693294 31.4491886,32.204456 32.003331,31.8745509 C33.9761131,30.7000949 35.8022267,28.8804718 37.4308562,26.4663387 C37.7927387,25.9299263 38.14354,25.3639902 38.4734451,24.7843608 C39.4574616,23.0553666 40.4634031,20.9555457 40.4634031,18.4904388 C40.4634031,15.6832374 39.3296313,13.1362874 37.4967898,11.2819958 Z M4.97081872,20.0806797 C4.79383506,20.0854289 4.61582243,20.0848748 4.43749319,20.0768804 C3.22567754,20.0223448 2.1162053,19.6349754 1.21901847,18.9549022 C1.53491372,17.8901508 2.1864922,16.9317795 3.11019491,16.1757997 C3.97073442,15.4715852 4.87987318,15.0159869 5.73930456,14.8584746 C6.23218346,14.7681622 6.72395424,14.7299319 7.2045646,14.7396676 C5.95443943,16.2730774 5.18444971,18.115338 4.97081872,20.0806797 Z M7.65090219,11.5652013 C7.52679201,12.2422667 7.48373337,12.9111003 7.5182436,13.5584837 C6.87093933,13.5238943 6.20226404,13.5666363 5.52535696,13.6906674 C5.163237,13.7570758 4.79652623,13.8652765 4.43005291,14.0110743 C4.03397679,13.5292766 3.6895077,12.9383285 3.41461314,12.2631628 C2.96447626,11.1576481 2.85018091,10.0043258 3.08146277,8.91820333 C4.194576,8.74953062 5.35423054,8.93949519 6.44478548,9.47076277 C7.00399368,9.74312447 7.52362593,10.0824487 7.97297129,10.465623 C7.82630281,10.8335211 7.71746894,11.2016566 7.65090219,11.5652013 L7.65090219,11.5652013 Z M14.0408354,11.0162037 C12.1311374,11.2255605 10.2697221,11.9685594 8.70037729,13.2452005 C8.69040415,12.7643526 8.72831791,12.2723444 8.81870938,11.7793072 C8.97622167,10.9197967 9.43174088,10.0106579 10.1360345,9.1501184 C10.8920144,8.22641568 11.8503065,7.57483721 12.9150579,7.25894196 C13.5952102,8.15612879 13.9825004,9.26560103 14.0370361,10.4774167 C14.0451096,10.6575664 14.045822,10.8373995 14.0408354,11.0162037 L14.0408354,11.0162037 Z M32.3808856,7.33239493 C33.0999807,6.83603334 34.0649215,6.51523067 35.171386,6.40481377 C36.3590603,6.28616506 37.497423,6.50312043 38.4737617,7.03264667 C38.3202862,8.14797615 37.8095981,9.20639541 36.9913257,10.1017617 C36.8695109,10.2350536 36.7419972,10.3616966 36.6119506,10.4846195 C35.1138426,9.2829353 33.2730067,8.49189117 31.2613611,8.28482979 C31.5938782,7.93782784 31.9685042,7.61702518 32.3808856,7.33239493 Z M21.9331509,7.03264667 C22.9093313,6.50319958 24.0476149,6.28632337 25.2355266,6.40481377 C26.3419911,6.51523067 27.306932,6.83603334 28.0261062,7.33239493 C28.4388042,7.61726263 28.8143008,7.9380653 29.1477678,8.28498809 C27.1356472,8.49173287 25.2941782,9.28222293 23.7959118,10.4843029 C23.6655486,10.36138 23.5374808,10.2352119 23.4155869,10.1017617 C22.5972354,9.20631626 22.0866264,8.14797615 21.9331509,7.03264667 L21.9331509,7.03264667 Z M37.4413043,24.1968162 C37.1262006,24.7504046 36.7914672,25.2904581 36.4462857,25.802096 C34.9162003,28.0701146 33.2169672,29.7698226 31.3956027,30.8541245 C30.6596483,31.2923095 29.7446523,31.2907264 29.0078272,30.8498503 C27.9186179,30.1980344 26.950036,29.372955 26.1013693,28.4844748 C26.4599274,26.4769451 26.3996137,24.2130423 25.9187659,21.7381206 C25.7952889,21.1029266 25.6432381,20.4547516 25.4667293,19.8115633 C24.9399734,17.8932377 24.166501,15.6971681 22.4234178,13.9540058 C22.4079832,13.9385711 22.3921528,13.9236906 22.376639,13.9084143 C23.9539782,11.2241357 26.8712799,9.4178893 30.2034167,9.4178893 C35.2059754,9.4178893 39.275808,13.4877219 39.275808,18.4902014 C39.275808,19.718164 39.0578236,21.3564501 37.4413043,24.1968162 L37.4413043,24.1968162 Z" id="Shape"></path>
                                <path d="M19.3121939,20.8121225 C19.080358,20.5802866 18.7044656,20.5802866 18.4727088,20.8121225 C18.2408729,21.0439584 18.2408729,21.4198508 18.4727088,21.6516076 L19.2218024,22.4007012 C19.3376808,22.5165796 19.4896525,22.5745979 19.641545,22.5745979 C19.7934375,22.5745979 19.9454091,22.5166587 20.0612875,22.4007012 C20.2931234,22.1688653 20.2931234,21.7929729 20.0612875,21.5612161 L19.3121939,20.8121225 Z" id="Path"></path>
                                <path d="M14.772199,24.5125531 C14.5403631,24.7443891 14.5403631,25.1202815 14.772199,25.3520382 L15.5212926,26.1011319 C15.637171,26.2170894 15.7891427,26.2750286 15.9410352,26.2750286 C16.0929277,26.2750286 16.2448993,26.2170894 16.3607777,26.1011319 C16.5926136,25.8692959 16.5926136,25.4934035 16.3607777,25.2616468 L15.6116841,24.5125531 C15.3799273,24.2807172 15.0040349,24.2807964 14.772199,24.5125531 Z" id="Path"></path>
                                <path d="M14.5541355,19.7544947 C14.3222996,19.5226588 13.9464072,19.5226588 13.7146504,19.7544947 C13.4828145,19.9863307 13.4828145,20.3622231 13.7146504,20.5939798 L14.463744,21.3430735 C14.5796224,21.4589518 14.7315941,21.5169702 14.8834866,21.5169702 C15.0353791,21.5169702 15.1873507,21.459031 15.3032291,21.3430735 C15.535065,21.1112375 15.535065,20.7353451 15.3032291,20.5035884 L14.5541355,19.7544947 Z" id="Path"></path>
                                <path d="M18.5061901,15.802361 C18.2743541,15.5704459 17.8984617,15.5705251 17.666705,15.802361 C17.434869,16.0341969 17.434869,16.4100893 17.666705,16.6418461 L18.4157986,17.3909397 C18.531677,17.5068973 18.6836486,17.5648365 18.8355411,17.5648365 C18.9874336,17.5648365 19.1394053,17.5068973 19.2552837,17.3909397 C19.4871196,17.1591038 19.4871196,16.7832114 19.2552837,16.5514546 L18.5061901,15.802361 Z" id="Path"></path>
                                <path d="M10.6020018,23.7065493 C10.3701659,23.4747134 9.99427346,23.4747134 9.76251669,23.7065493 C9.53068076,23.9383852 9.53068076,24.3142776 9.76251669,24.5460344 L10.5116103,25.295128 C10.6274887,25.4110064 10.7794603,25.4690248 10.9313529,25.4690248 C11.0832454,25.4690248 11.235217,25.4110856 11.3510954,25.295128 C11.5829313,25.0632921 11.5829313,24.6873997 11.3510954,24.4556429 L10.6020018,23.7065493 Z" id="Path"></path>
                                <path d="M19.1477162,25.1875606 C18.9158803,25.4193965 18.9158803,25.7952097 19.1477162,26.0270457 L19.8968099,26.7761393 C20.0126883,26.8920968 20.1646599,26.950036 20.3165524,26.950036 C20.4684449,26.950036 20.6204166,26.8920968 20.736295,26.7761393 C20.9681309,26.5443034 20.9681309,26.1684901 20.736295,25.9366542 L19.9872013,25.1875606 C19.7554446,24.9556455 19.3795522,24.9557247 19.1477162,25.1875606 Z" id="Path"></path>
                            </g>
                        </g>
                        <g id="veggies" transform="translate(23.708840, 4.820797)">
                            <g id="Group" transform="translate(7.418233, 2.102184)">
                                <path d="M13.8975866,22.2659008 C13.8975866,25.9112203 10.9424325,28.8665092 7.29697815,28.8665092 C3.65152381,28.8665092 0.696369719,25.9113552 0.696369719,22.2659008 C0.696369719,22.2659008 -0.552321131,4.47198875 7.01171339,0.844068415 C7.7403187,0.494602224 8.59274106,0.50674115 9.31554666,0.868076513 C10.3546387,1.38762254 10.9217963,2.52679331 10.7194809,3.67081964 C10.3025762,6.02806418 9.86678877,10.0014044 11.1181772,12.1912666 C13.8975866,17.0549296 13.8975866,22.2659008 13.8975866,22.2659008 L13.8975866,22.2659008 Z" id="Path" fill="#842582"></path>
                                <path d="M7.29711302,29.4058822 C3.36018958,29.4058822 0.156996776,26.2028243 0.156996776,22.2657659 C0.106417918,21.5621129 -1.02627875,4.10080737 6.77837626,0.357432361 C7.64846749,-0.0596071843 8.68688517,-0.0496262897 9.55711128,0.385351891 C10.8165923,1.01495752 11.4973163,2.3728987 11.251031,3.764694 C10.8690594,5.92407405 10.4052176,9.85546754 11.5868746,11.9236708 C14.4048588,16.8549071 14.4372293,22.0471304 14.4372293,22.2657659 C14.4372293,26.2028243 11.2340365,29.4058822 7.29711302,29.4058822 L7.29711302,29.4058822 Z M8.13577793,1.12987268 C7.82947237,1.12987268 7.52384119,1.19677165 7.24505052,1.33056959 C0.0984601772,4.75806277 1.22252472,22.0537394 1.23466365,22.2281353 C1.23601242,25.6080169 3.95486208,28.3268665 7.29697815,28.3268665 C10.6390942,28.3268665 13.3580788,25.6080169 13.3580788,22.2657659 C13.3580788,22.2115454 13.3199086,17.13127 10.6500193,12.4589974 C9.36733941,10.2142402 9.69090922,6.38980418 10.1882006,3.57667553 C10.3507273,2.65937735 9.90320555,1.76473851 9.07438666,1.35066626 C8.78048978,1.20365038 8.45772922,1.12987268 8.13577793,1.12987268 L8.13577793,1.12987268 Z" id="Shape" fill="#4C241D"></path>
                            </g>
                            <g id="Group" transform="translate(8.901879, 0.000000)">
                                <path d="M0.602360481,8.04028505 C0.602360481,8.04028505 3.38150014,5.95589658 5.46588861,4.56625931 C5.46588861,4.56625931 4.77113741,7.34539897 5.46588861,8.73503624 C5.46588861,8.73503624 8.24502827,8.04028505 8.93991434,5.95589658 C8.93991434,5.95589658 9.63466553,7.74854619 8.93991434,9.28398545 C8.93991434,9.28398545 11.0243028,8.04028505 10.3295516,2.48187085 L10.6206161,1.89987679 C10.8435677,1.4538387 10.6628326,0.911498463 10.2167945,0.688546856 C9.86921656,0.514690461 9.4493446,0.5829382 9.17460024,0.857682557 L8.93573315,1.09654964 C8.54054367,1.49173912 7.98565988,1.67746469 7.43172023,1.60287773 C5.81009459,1.38424219 2.19377367,1.67490203 0.602360481,8.04028505 L0.602360481,8.04028505 Z" id="Path" fill="#A9BA5A"></path>
                                <path d="M8.94004921,9.82376302 C8.81070221,9.82376302 8.68216448,9.7770956 8.58073701,9.68672804 C8.40472258,9.52973126 8.35131131,9.27656722 8.44855759,9.06184311 C8.69457316,8.51788435 8.73625014,7.92806742 8.6995636,7.42254859 C7.53624987,8.75836996 5.69517943,9.2339461 5.59685413,9.25862858 C5.34975955,9.32026735 5.09632575,9.20251977 4.98329886,8.97646599 C4.52835889,8.06604655 4.57502632,6.73197858 4.70275479,5.74022833 C2.87584644,7.011039 0.949129133,8.45462705 0.926200051,8.47175643 C0.743441777,8.60933092 0.494189163,8.61634452 0.304012657,8.48969506 C0.11383615,8.36345023 0.0237383441,8.13092236 0.0790378957,7.90931952 C1.79076133,1.06161651 5.84219531,0.843250723 7.50414915,1.06795573 C7.89380867,1.12123213 8.2769941,0.991885128 8.554436,0.714982739 L8.79316821,0.476250528 C9.23286708,0.036012147 9.9017219,-0.0724289249 10.4580893,0.20595711 C10.8027,0.377925228 11.0597754,0.674384775 11.1814345,1.0400362 C11.3033632,1.40541787 11.2754437,1.79656104 11.1032058,2.14117166 L10.8845703,2.57790324 C11.5426349,8.18473827 9.45865111,9.60283457 9.21681673,9.74742267 C9.13076523,9.79867591 9.03513747,9.82376302 8.94004921,9.82376302 Z M5.46561885,4.02688637 C5.57446455,4.02688637 5.68317538,4.05979635 5.77651023,4.12534655 C5.95859412,4.25361453 6.04316197,4.48074733 5.98934607,4.69695508 C5.83342831,5.32386317 5.54263359,6.98703091 5.79701153,8.06024684 C6.54881568,7.77916326 7.99510127,7.08454694 8.42819117,5.78527724 C8.50008059,5.56947411 8.69983336,5.4220536 8.92710103,5.41679339 C9.14708534,5.39939427 9.36100019,5.54883793 9.44314026,5.76113426 C9.45716746,5.79755104 9.60957842,6.19975412 9.70709446,6.78646887 C9.92910193,5.83046102 10.0337664,4.46564111 9.79409009,2.5489047 C9.78087215,2.44329604 9.79908054,2.33606886 9.84682698,2.24071086 L10.1378915,1.65885167 C10.1813218,1.57185603 10.1884703,1.47339586 10.1575835,1.38140977 C10.1269664,1.28942369 10.0622255,1.21497161 9.9754996,1.17140636 C9.83509269,1.10180985 9.6664965,1.12878524 9.55589739,1.23938434 L9.31716518,1.47811655 C8.80004694,1.99550455 8.08642275,2.23464139 7.35956106,2.13779974 C5.81616406,1.92941484 3.1528837,2.29978696 1.58642275,6.64269004 C2.58774926,5.91084768 3.99181836,4.90088904 5.16646177,4.11765856 C5.25736883,4.05723369 5.36162872,4.02688637 5.46561885,4.02688637 L5.46561885,4.02688637 Z" id="Shape" fill="#4C241D"></path>
                            </g>
                            <path d="M16.6338354,28.984653 C16.4241017,28.984653 16.2247536,28.8616452 16.1372184,28.6563625 C16.0202801,28.3824274 16.1477388,28.0654666 16.4219437,27.9485283 C17.916785,27.3113695 18.8827737,25.8498428 18.8827737,24.2247104 C18.8827737,23.9267672 19.1243383,23.6852026 19.4222815,23.6852026 C19.7202247,23.6852026 19.9617894,23.9267672 19.9617894,24.2247104 C19.9617894,26.2829327 18.7384554,28.1339841 16.8451876,28.9412226 C16.7761306,28.9707607 16.7045109,28.984653 16.6338354,28.984653 Z" id="Path" fill="#4C241D"></path>
                            <g id="Group" transform="translate(0.000000, 19.636188)">
                                <circle id="Oval" fill="#842582" cx="6.20433993" cy="6.2070459" r="5.66483211"></circle>
                                <path d="M6.20433993,12.4113858 C2.78318597,12.4113858 0,9.62819987 0,6.2070459 C0,2.78589194 2.78318597,0.00270596891 6.20433993,0.00270596891 C9.6254939,0.00270596891 12.4086799,2.78589194 12.4086799,6.2070459 C12.4086799,9.62819987 9.6254939,12.4113858 6.20433993,12.4113858 Z M6.20433993,1.08172161 C3.37826309,1.08172161 1.07901564,3.38096906 1.07901564,6.2070459 C1.07901564,9.03312274 3.37826309,11.3323702 6.20433993,11.3323702 C9.03041677,11.3323702 11.3296642,9.03312274 11.3296642,6.2070459 C11.3296642,3.38096906 9.03041677,1.08172161 6.20433993,1.08172161 Z" id="Shape" fill="#4C241D"></path>
                            </g>
                            <g id="Group" transform="translate(1.618523, 21.254711)">
                                <circle id="Oval" fill="#EFEFD2" cx="4.58581647" cy="4.58852244" r="4.0343046"></circle>
                                <path d="M4.58581647,9.16219999 C2.06402204,9.16219999 0.012138926,7.11031687 0.012138926,4.58852244 C0.012138926,2.06672801 2.06402204,0.0148448949 4.58581647,0.0148448949 C7.1076109,0.0148448949 9.15949402,2.06672801 9.15949402,4.58852244 C9.15949402,7.11031687 7.1076109,9.16219999 4.58581647,9.16219999 Z M4.58581647,1.09386054 C2.65882942,1.09386054 1.09115457,2.66153538 1.09115457,4.58852244 C1.09115457,6.5155095 2.65882942,8.08318435 4.58581647,8.08318435 C6.51280353,8.08318435 8.08047838,6.5155095 8.08047838,4.58852244 C8.08047838,2.66153538 6.51280353,1.09386054 4.58581647,1.09386054 Z" id="Shape" fill="#4C241D"></path>
                            </g>
                        </g>
                    </g>
                </g>
            </g>
        </g>
    </g>
</svg>