<?xml version="1.0" encoding="UTF-8"?>
<svg width="29px" height="46px" viewBox="0 0 29 46" version="1.1" xmlns="http://www.w3.org/2000/svg" xmlns:xlink="http://www.w3.org/1999/xlink">
    <!-- Generator: Sketch 64 (93537) - https://sketch.com -->
    <title>grains</title>
    <desc>Created with Sketch.</desc>
    <g id="Page-1" stroke="none" stroke-width="1" fill="none" fill-rule="evenodd">
        <g id="03-queckoo-web-app---admin-panel---dashboard" transform="translate(-529.000000, -966.000000)" fill-rule="nonzero">
            <g id="Total-Items" transform="translate(466.666667, 834.666667)">
                <g id="1" transform="translate(63.066670, 131.733338)">
                    <g id="grains">
                        <g id="Group" transform="translate(4.000000, 25.692309)" fill="#334D5C">
                            <path d="M0.898923113,0.368000015 C0.818769263,0.528307713 0.818769263,0.688461566 0.738615414,0.864769265 L0.0015384616,0.127692313 C0.322153859,0.287846165 0.562461561,0.368000015 0.898923113,0.368000015 Z" id="Path"></path>
                        </g>
                        <path d="M4.89892327,26.0603087 C4.81876942,26.2206164 4.81876942,26.3807703 4.73861557,26.557078 L4.00153862,25.820001 C4.32215402,25.9801549 4.56246172,26.0603087 4.89892327,26.0603087 Z" id="Path" fill="#000000" opacity="0.1"></path>
                        <path d="M4.89892327,26.0603087 C4.57846172,26.0603087 4.24200017,25.9801549 4.00169247,25.820001 L4.73876942,26.557078 C4.81876942,26.3967703 4.89892327,26.2206164 4.89892327,26.0603087 Z" id="Path" fill="#334D5C"></path>
                        <path d="M4.89892327,26.0603087 C4.57846172,26.0603087 4.24200017,25.9801549 4.00169247,25.820001 L4.73876942,26.557078 C4.81876942,26.3967703 4.89892327,26.2206164 4.89892327,26.0603087 Z" id="Path" fill="#000000" opacity="0.1"></path>
                        <path d="M4.89892327,26.0603087 C4.57846172,26.0603087 4.24200017,25.9801549 4.00169247,25.820001 L4.73876942,26.557078 C4.81876942,26.3967703 4.89892327,26.2206164 4.89892327,26.0603087 Z" id="Path" fill="#000000" opacity="0.1"></path>
                        <path d="M1.3581539,44.1023094 C1.33646159,44.1023094 1.31461544,44.1000018 1.29246159,44.0955402 C1.11923081,44.0593864 1.00800004,43.8896941 1.04415389,43.7164633 C7.06646182,14.828616 12.9449236,8.45430803 13.1921544,8.19707725 C13.3147698,8.06923109 13.5173852,8.06538494 13.6452313,8.18815417 C13.7726159,8.31076956 13.7767698,8.51307726 13.6544621,8.64076957 C13.5836928,8.71569265 7.63369261,15.2478468 1.67153853,43.8472325 C1.64000007,43.9983094 1.50661544,44.1023094 1.3581539,44.1023094 Z" id="Path" fill="#DC8744"></path>
                        <path d="M15.3940006,8.41892341 C17.6852315,6.0475387 18.8389238,0.0549230791 18.8389238,0.0549230791 C18.8389238,0.0549230791 14.1601544,1.28876928 12.1893851,5.96738485 C11.9490774,6.4641541 11.6126158,7.12107721 11.9490774,8.09846186 C12.2695389,8.99584651 13.4232313,10.5500004 15.3940006,8.41892341 Z" id="Path" fill="#F6C358"></path>
                        <path d="M18.8389238,0.0549230791 C18.8389238,0.0549230791 17.6852315,6.0475387 15.3940006,8.41892341 C14.0801544,9.81292347 13.1027698,9.57261576 12.5258467,9.07584651 L18.8389238,0.0549230791 Z" id="Path" fill="#FCD462"></path>
                        <path d="M11.7887697,10.1495389 C11.7887697,7.0250772 8.66430804,2.18615393 8.66430804,2.18615393 C8.66430804,2.18615393 6.29292333,6.1278464 8.00738493,10.5501543 C8.16769263,11.0469235 8.42400033,11.7038466 9.24123114,12.184462 C9.97815424,12.6009236 11.7887697,12.937539 11.7887697,10.1495389 Z" id="Path" fill="#F6C358"></path>
                        <path d="M8.66430804,2.18600009 C8.66430804,2.18600009 11.7887697,7.02492336 11.7887697,10.149385 C11.7887697,11.9600005 10.9715389,12.4406159 10.2344619,12.4406159 L8.66430804,2.18600009 Z" id="Path" fill="#FCD462"></path>
                        <path d="M13.8396929,14.5718467 C16.7880007,13.4181544 20.0726162,8.73953881 20.0726162,8.73953881 C20.0726162,8.73953881 15.5541545,8.00246186 12.0290774,11.2070774 C11.612462,11.5275389 11.1318466,11.9441543 10.9555389,13.0176928 C10.8755389,13.8347698 11.2921543,15.6453852 13.8396929,14.5718467 Z" id="Path" fill="#F6C358"></path>
                        <path d="M20.07277,8.75538496 C20.07277,8.75538496 16.7080007,13.4341544 13.8398467,14.5878467 C12.1093851,15.2447698 11.3723081,14.6680006 11.1320004,14.0110775 L20.07277,8.75538496 Z" id="Path" fill="#FCD462"></path>
                        <path d="M8.82461574,17.5361545 C8.82461574,14.4116929 5.70015407,9.57276961 5.70015407,9.57276961 C5.70015407,9.57276961 3.32876936,13.5144621 5.04323097,17.9367699 C5.20353867,18.4335392 5.45984637,19.0904623 6.27707717,19.5710777 C7.03000028,19.9875393 8.82461574,20.3241547 8.82461574,17.5361545 Z" id="Path" fill="#F6C358"></path>
                        <path d="M5.71615407,9.57261576 C5.71615407,9.57261576 8.84061574,14.411539 8.84061574,17.5360007 C8.84061574,19.3466162 8.02338493,19.8272316 7.28630798,19.8272316 L5.71615407,9.57261576 Z" id="Path" fill="#FCD462"></path>
                        <path d="M11.532462,20.4843085 C14.4807698,19.41077 18.005693,14.8281544 18.005693,14.8281544 C18.005693,14.8281544 13.5833852,13.9309236 9.88200039,17.0393853 C9.46538499,17.3598468 8.90461574,17.7764622 8.72830804,18.7698469 C8.58415419,19.5870777 8.92076959,21.3815393 11.532462,20.4843085 Z" id="Path" fill="#F6C358"></path>
                        <path d="M18.0218469,14.8281544 C18.0218469,14.8281544 14.4967698,19.42677 11.5486158,20.4843085 C9.81815424,21.1412316 9.08107728,20.4843085 8.84076958,19.8273854 L18.0218469,14.8281544 Z" id="Path" fill="#FCD462"></path>
                        <path d="M6.53323103,23.7690779 C6.53323103,20.6446162 3.40876937,15.8056929 3.40876937,15.8056929 C3.40876937,15.8056929 1.03738466,19.7473854 2.75184626,24.1696933 C2.91200012,24.6664625 3.16846166,25.3233856 3.98569247,25.804001 C4.72261557,26.2206164 6.53323103,26.557078 6.53323103,23.7690779 Z" id="Path" fill="#F6C358"></path>
                        <path d="M3.42476937,15.8055391 C3.42476937,15.8055391 6.54923103,20.6444624 6.54923103,23.768924 C6.54923103,25.5795395 5.73200023,26.0601549 4.99492328,26.0601549 L3.42476937,15.8055391 Z" id="Path" fill="#FCD462"></path>
                        <path d="M9.16107729,26.8775395 C12.1893851,26.1404626 16.1310776,21.9584624 16.1310776,21.9584624 C16.1310776,21.9584624 11.7887697,20.5644624 7.84723108,23.3524625 C7.43061568,23.672924 6.86984643,24.0093856 6.53338487,24.9867702 C6.37307718,25.6436933 6.53323103,27.5344626 9.16107729,26.8775395 Z" id="Path" fill="#F6C358"></path>
                        <path d="M16.2112314,21.8783086 C16.2112314,21.8783086 12.2695389,26.0603087 9.24123114,26.7973857 C7.43061568,27.2140011 6.77369258,26.557078 6.61338488,25.820001 L16.2112314,21.8783086 Z" id="Path" fill="#FCD462"></path>
                        <path d="M4.48230787,31.0595397 C4.48230787,27.935078 1.35784621,23.0961548 1.35784621,23.0961548 C1.35784621,23.0961548 -1.0135385,27.0378472 0.700923105,31.4601551 C0.861230803,31.9569243 1.11753851,32.6138474 1.93476931,33.0944629 C2.67169241,33.5270783 4.48230787,33.8475398 4.48230787,31.0595397 Z" id="Path" fill="#F6C358"></path>
                        <path d="M1.37384621,23.1121548 C1.37384621,23.1121548 4.49830787,27.951078 4.49830787,31.0755397 C4.49830787,32.8861552 3.68107707,33.3667706 2.94400012,33.3667706 L1.37384621,23.1121548 Z" id="Path" fill="#FCD462"></path>
                        <path d="M7.27030798,33.8475398 C10.2186158,32.8701552 13.8396929,28.2715396 13.8396929,28.2715396 C13.8396929,28.2715396 9.41738499,27.2941549 5.63584638,30.3224627 C5.21923098,30.6429243 4.65846172,31.0595397 4.48215402,32.0529244 C4.32215402,32.8701552 4.64261557,34.7607706 7.27030798,33.8475398 Z" id="Path" fill="#F6C358"></path>
                        <path d="M13.7596929,28.2715396 C13.7596929,28.2715396 10.2346158,32.7900013 7.19030798,33.8475398 C5.45984637,34.4243091 4.72276942,33.8475398 4.48246172,33.1104629 L13.7596929,28.2715396 Z" id="Path" fill="#FCD462"></path>
                        <path d="M11.7887697,45.4964633 C11.7526159,45.4964633 11.7158466,45.4901557 11.6798466,45.4772326 C11.5133851,45.4170787 11.4272312,45.2335403 11.4873851,45.0669249 C18.4089238,25.9092318 23.0452317,22.1000009 23.2393855,21.9470778 C23.3781548,21.8376932 23.5800009,21.8616932 23.6895394,22.0006163 C23.7987702,22.1393855 23.7750779,22.3403086 23.636924,22.4500009 C23.5855394,22.4912317 18.9184623,26.3855395 12.090462,45.284771 C12.0430774,45.4152326 11.9200005,45.4964633 11.7887697,45.4964633 Z" id="Path" fill="#DC8744"></path>
                        <path d="M24.8315394,22.4550778 C26.6421549,21.0610778 27.9560011,17.0392314 27.9560011,17.0392314 C27.9560011,17.0392314 24.6712317,17.4558468 22.8767701,20.4040008 C22.7164624,20.7244624 22.3800009,21.1410778 22.5563086,21.8781547 C22.5243086,22.4550778 23.1812317,23.688924 24.8315394,22.4550778 Z" id="Path" fill="#F6C358"></path>
                        <path d="M27.9400011,17.0393853 C27.9400011,17.0393853 26.5460011,20.9810778 24.8155394,22.4552317 C23.7420009,23.2724625 23.1812317,23.0320009 22.7646163,22.6155394 L27.9400011,17.0393853 Z" id="Path" fill="#FCD462"></path>
                        <path d="M22.1236932,23.2723086 C22.4441547,21.1412316 20.7296931,17.5360007 20.7296931,17.5360007 C20.7296931,17.5360007 18.7589238,20.0035393 19.4958469,23.1921548 C19.5760008,23.5126163 19.6560008,24.0093856 20.2329239,24.426001 C20.6495393,24.7464625 21.8833855,25.0829241 22.1236932,23.2723086 Z" id="Path" fill="#F6C358"></path>
                        <path d="M20.7296931,17.4400007 C20.7296931,17.4400007 22.3640009,21.0452316 22.1236932,23.1763086 C21.9633855,24.4101548 21.3866162,24.6504625 20.809847,24.5703087 L20.7296931,17.4400007 Z" id="Path" fill="#FCD462"></path>
                        <path d="M23.1010778,26.4769241 C25.2321548,25.9801549 27.9400011,23.1121548 27.9400011,23.1121548 C27.9400011,23.1121548 24.9116933,22.1347701 22.2036932,24.0093856 C21.8832316,24.1696933 21.4666162,24.426001 21.3064624,25.0829241 C21.1303085,25.6436933 21.2263085,26.8775395 23.1010778,26.4769241 Z" id="Path" fill="#F6C358"></path>
                        <path d="M27.9400011,23.1121548 C27.9400011,23.1121548 25.2321548,25.9803087 23.1010778,26.4769241 C21.8672316,26.7973857 21.4667701,26.3166164 21.2904624,25.820001 L27.9400011,23.1121548 Z" id="Path" fill="#FCD462"></path>
                        <path d="M19.4158469,28.0312319 C19.7363085,25.9001549 18.0218469,22.294924 18.0218469,22.294924 C18.0218469,22.294924 16.0510776,24.7624625 16.7880007,27.951078 C16.8681545,28.2715396 16.9483084,28.7683088 17.5250776,29.1849242 C17.941693,29.5052319 19.1753854,29.9218473 19.4158469,28.0312319 Z" id="Path" fill="#F6C358"></path>
                        <path d="M18.0218469,22.294924 C18.0218469,22.294924 19.6561546,25.9001549 19.4158469,28.0312319 C19.2555392,29.2650781 18.67877,29.5053858 18.1020007,29.4252319 L18.0218469,22.294924 Z" id="Path" fill="#FCD462"></path>
                        <path d="M20.9700008,30.2423089 C23.1010778,29.8256935 25.889078,27.0376934 25.889078,27.0376934 C25.889078,27.0376934 22.9407701,25.9641549 20.15277,27.7747703 C19.8323085,27.935078 19.4156931,28.1913857 19.2555392,28.8483088 C19.0792315,29.3450781 19.0792315,30.6589243 20.9700008,30.2423089 Z" id="Path" fill="#F6C358"></path>
                        <path d="M25.889078,27.0376934 C25.889078,27.0376934 23.020924,29.8256935 20.9700008,30.2423089 C19.7361546,30.4826166 19.3356931,30.0020012 19.1593854,29.5052319 L25.889078,27.0376934 Z" id="Path" fill="#FCD462"></path>
                        <path d="M17.2847699,32.0529244 C17.6052315,29.9218473 15.8907699,26.3166164 15.8907699,26.3166164 C15.8907699,26.3166164 13.9200006,28.784155 14.6569237,31.9727705 C14.7370775,32.2932321 14.8172314,32.7900013 15.3940006,33.2066167 C15.810616,33.5270783 16.9483084,33.9436937 17.2847699,32.0529244 Z" id="Path" fill="#F6C358"></path>
                        <path d="M15.8907699,26.3006164 C15.8907699,26.3006164 17.5250776,29.9058473 17.2847699,32.0369243 C17.1244622,33.2707706 16.547693,33.5110783 15.9709237,33.4309244 L15.8907699,26.3006164 Z" id="Path" fill="#FCD462"></path>
                        <path d="M18.75877,34.3443091 C20.889847,34.1040014 24.0143086,31.6364628 24.0143086,31.6364628 C24.0143086,31.6364628 21.1461547,30.3226166 18.1820007,31.7967705 C17.8615392,31.9569243 17.4449238,32.117232 17.1084622,32.7741551 C16.9483084,33.2867706 16.8681545,34.6006168 18.75877,34.3443091 Z" id="Path" fill="#F6C358"></path>
                        <path d="M24.0144625,31.6363089 C24.0144625,31.6363089 20.8900008,34.1038475 18.7589238,34.3441552 C17.5250776,34.5044629 17.1246161,33.9275398 17.0284622,33.4469244 L24.0144625,31.6363089 Z" id="Path" fill="#FCD462"></path>
                        <path d="M15.1536929,36.8118476 C15.4741545,34.6807706 13.7596929,31.0755397 13.7596929,31.0755397 C13.7596929,31.0755397 11.7889235,33.5430783 12.5258467,36.7316938 C12.6060005,37.0521553 12.6860005,37.5489246 13.2629236,37.96554 C13.679539,38.3660015 14.8972314,38.7024631 15.1536929,36.8118476 Z" id="Path" fill="#F6C358"></path>
                        <path d="M13.7596929,31.0595397 C13.7596929,31.0595397 15.3940006,34.6647706 15.1536929,36.7958476 C14.9933852,38.0296938 14.416616,38.2700015 13.8398467,38.1898477 L13.7596929,31.0595397 Z" id="Path" fill="#FCD462"></path>
                        <path d="M16.7078468,38.9429246 C18.8389238,38.5263092 21.7070778,35.7383091 21.7070778,35.7383091 C21.7070778,35.7383091 18.75877,34.6647706 15.9707699,36.3952322 C15.6503083,36.5555399 15.2336929,36.8118476 15.0735391,37.4687707 C14.8172314,38.04554 14.8972314,39.3433862 16.7078468,38.9429246 Z" id="Path" fill="#F6C358"></path>
                        <path d="M21.7070778,35.8183091 C21.7070778,35.8183091 18.8389238,38.5261554 16.7078468,39.0229246 C15.4740006,39.2632323 15.0735391,38.7826169 14.8972314,38.2858477 L21.7070778,35.8183091 Z" id="Path" fill="#FCD462"></path>
                    </g>
                </g>
            </g>
        </g>
    </g>
</svg>