<?xml version="1.0" encoding="UTF-8"?>
<svg width="24px" height="25px" viewBox="0 0 24 25" version="1.1" xmlns="http://www.w3.org/2000/svg" xmlns:xlink="http://www.w3.org/1999/xlink">
    <!-- Generator: Sketch 64 (93537) - https://sketch.com -->
    <title>logout</title>
    <desc>Created with Sketch.</desc>
    <g id="Page-1" stroke="none" stroke-width="1" fill="none" fill-rule="evenodd">
        <g id="logout" transform="translate(0.000000, 0.500000)" fill="#E63C3C" fill-rule="nonzero">
            <path d="M15,13.0001221 C14.4470215,13.0001221 14.000061,13.4481811 14.000061,14.000061 L14.000061,18.0001831 C14.000061,18.5511474 13.552002,19.0001221 12.999939,19.0001221 L9.99993895,19.0001221 L9.99993895,4.00012209 C9.99993895,3.14611819 9.45593259,2.38311769 8.6380005,2.09912109 L8.34191897,2.00006105 L12.999939,2.00006105 C13.552002,2.00006105 14.000061,2.44903566 14.000061,3.00018311 L14.000061,6.00018311 C14.000061,6.552063 14.4470215,7.00012209 15,7.00012209 C15.5529785,7.00012209 15.999939,6.552063 15.999939,6.00018311 L15.999939,3.00018311 C15.999939,1.34619141 14.6539307,0.000183105469 12.999939,0.000183105469 L2.25,0.000183105469 C2.21191406,0.000183105469 2.18005369,0.0172119375 2.14306641,0.02215575 C2.09490966,0.0181274531 2.04895022,0.000183105469 2.00006105,0.000183105469 C0.897033703,0.000183105469 1.33226763e-15,0.897033703 1.33226763e-15,2.00006105 L1.33226763e-15,20.000061 C1.33226763e-15,20.854065 0.544006359,21.6170654 1.3619385,21.901062 L7.38006591,23.9071655 C7.58404542,23.9701538 7.78692628,24.0001831 8.00006105,24.0001831 C9.10308839,24.0001831 9.99993895,23.1031494 9.99993895,22.0001221 L9.99993895,21.0001831 L12.999939,21.0001831 C14.6539307,21.0001831 15.999939,19.6541748 15.999939,18.0001831 L15.999939,14.000061 C15.999939,13.4481811 15.5529785,13.0001221 15,13.0001221 Z" id="Path"></path>
            <path d="M23.7070312,9.29315184 L19.7069092,5.29321289 C19.4210815,5.00720213 18.9909668,4.92114258 18.6170654,5.07604978 C18.2440796,5.23114013 18,5.59606931 18,6.00018309 L18,9.00018309 L14.000061,9.00018309 C13.447998,9.00018309 12.999939,9.44805909 12.999939,10.0001221 C12.999939,10.552185 13.447998,11.000061 14.000061,11.000061 L18,11.000061 L18,14.000061 C18,14.4041748 18.2440796,14.769104 18.6170654,14.9241943 C18.9909668,15.0791016 19.4210815,14.993042 19.7069092,14.7072143 L23.7070312,10.7070923 C24.0979614,10.3161621 24.0979614,9.68408203 23.7070312,9.29315184 Z" id="Path"></path>
        </g>
    </g>
</svg>