<svg width="345" height="64" viewBox="0 0 345 64" fill="none" xmlns="http://www.w3.org/2000/svg">
<g clip-path="url(#clip0)">
<path d="M97.4069 32.1477C97.4069 29.7886 97.9154 27.6903 98.9323 25.8529C99.9493 23.9929 101.362 22.5524 103.17 21.5317C105 20.4882 107.068 19.9665 109.373 19.9665C112.198 19.9665 114.616 20.715 116.627 22.2122C118.638 23.7093 119.983 25.7509 120.661 28.3368H114.288C113.814 27.3387 113.136 26.5788 112.254 26.0571C111.395 25.5354 110.412 25.2745 109.305 25.2745C107.52 25.2745 106.074 25.8983 104.966 27.1459C103.859 28.3935 103.305 30.0608 103.305 32.1477C103.305 34.2346 103.859 35.9019 104.966 37.1495C106.074 38.3971 107.52 39.0209 109.305 39.0209C110.412 39.0209 111.395 38.7601 112.254 38.2383C113.136 37.7166 113.814 36.9567 114.288 35.9586H120.661C119.983 38.5446 118.638 40.5861 116.627 42.0833C114.616 43.5577 112.198 44.2949 109.373 44.2949C107.068 44.2949 105 43.7846 103.17 42.7638C101.362 41.7203 99.9493 40.2799 98.9323 38.4425C97.9154 36.6051 97.4069 34.5068 97.4069 32.1477Z" fill="#1D242B"/>
<path d="M139.024 39.9056H130.143L128.719 44.1248H122.651L131.261 20.2387H137.973L146.583 44.1248H140.448L139.024 39.9056ZM137.533 35.4142L134.583 26.6696L131.668 35.4142H137.533Z" fill="#1D242B"/>
<path d="M176.153 20.2387V44.1248H170.356V29.7999L165.034 44.1248H160.356L155 29.7659V44.1248H149.204V20.2387H156.051L162.729 36.7752L169.339 20.2387H176.153Z" fill="#1D242B"/>
<path d="M186.118 24.9002V29.7319H193.88V34.2233H186.118V39.4633H194.897V44.1248H180.321V20.2387H194.897V24.9002H186.118Z" fill="#1D242B"/>
<path d="M210.796 44.1248L205.847 35.108H204.457V44.1248H198.66V20.2387H208.389C210.265 20.2387 211.858 20.5676 213.169 21.2254C214.502 21.8833 215.496 22.7906 216.152 23.9475C216.807 25.0817 217.135 26.352 217.135 27.7584C217.135 29.3463 216.683 30.764 215.779 32.0116C214.898 33.2592 213.587 34.1439 211.847 34.6656L217.338 44.1248H210.796ZM204.457 30.9908H208.05C209.112 30.9908 209.903 30.73 210.423 30.2082C210.965 29.6865 211.237 28.9493 211.237 27.9966C211.237 27.0892 210.965 26.3747 210.423 25.8529C209.903 25.3312 209.112 25.0703 208.05 25.0703H204.457V30.9908Z" fill="#1D242B"/>
<path d="M235.587 39.9056H226.706L225.282 44.1248H219.214L227.824 20.2387H234.536L243.146 44.1248H237.011L235.587 39.9056ZM234.096 35.4142L231.146 26.6696L228.231 35.4142H234.096Z" fill="#1D242B"/>
<path d="M251.967 32.1477C251.967 29.7886 252.476 27.6903 253.493 25.8529C254.509 23.9929 255.922 22.5524 257.73 21.5317C259.56 20.4882 261.628 19.9665 263.933 19.9665C266.758 19.9665 269.176 20.715 271.187 22.2122C273.199 23.7093 274.543 25.7509 275.221 28.3368H268.848C268.374 27.3387 267.696 26.5788 266.814 26.0571C265.956 25.5354 264.973 25.2745 263.865 25.2745C262.08 25.2745 260.634 25.8983 259.526 27.1459C258.419 28.3935 257.865 30.0608 257.865 32.1477C257.865 34.2346 258.419 35.9019 259.526 37.1495C260.634 38.3971 262.08 39.0209 263.865 39.0209C264.973 39.0209 265.956 38.7601 266.814 38.2383C267.696 37.7166 268.374 36.9567 268.848 35.9586H275.221C274.543 38.5446 273.199 40.5861 271.187 42.0833C269.176 43.5577 266.758 44.2949 263.933 44.2949C261.628 44.2949 259.56 43.7846 257.73 42.7638C255.922 41.7203 254.509 40.2799 253.493 38.4425C252.476 36.6051 251.967 34.5068 251.967 32.1477Z" fill="#1D242B"/>
<path d="M290.025 44.363C287.788 44.363 285.731 43.8413 283.856 42.7978C282.003 41.7544 280.522 40.3026 279.415 38.4425C278.33 36.5597 277.788 34.4501 277.788 32.1137C277.788 29.7773 278.33 27.679 279.415 25.8189C280.522 23.9588 282.003 22.5071 283.856 21.4636C285.731 20.4201 287.788 19.8984 290.025 19.8984C292.262 19.8984 294.307 20.4201 296.161 21.4636C298.036 22.5071 299.505 23.9588 300.567 25.8189C301.652 27.679 302.194 29.7773 302.194 32.1137C302.194 34.4501 301.652 36.5597 300.567 38.4425C299.483 40.3026 298.014 41.7544 296.161 42.7978C294.307 43.8413 292.262 44.363 290.025 44.363ZM290.025 39.055C291.923 39.055 293.437 38.4198 294.567 37.1495C295.72 35.8792 296.296 34.2006 296.296 32.1137C296.296 30.0041 295.72 28.3255 294.567 27.0779C293.437 25.8076 291.923 25.1724 290.025 25.1724C288.104 25.1724 286.567 25.7962 285.415 27.0438C284.285 28.2915 283.72 29.9814 283.72 32.1137C283.72 34.2233 284.285 35.9132 285.415 37.1835C286.567 38.4312 288.104 39.055 290.025 39.055Z" fill="#1D242B"/>
<path d="M311.216 20.2387V44.1248H305.419V20.2387H311.216Z" fill="#1D242B"/>
<path d="M336.704 44.1248H330.908L321.213 29.3916V44.1248H315.416V20.2387H321.213L330.908 35.0399V20.2387H336.704V44.1248Z" fill="#1D242B"/>
<path d="M7.54939 7.8815H23.4548V5.45818C23.4516 4.74087 23.5899 4.03002 23.8618 3.36663C24.1337 2.70325 24.5337 2.10047 25.0388 1.59305C25.5439 1.08563 26.1441 0.683609 26.8048 0.410193C27.4655 0.136777 28.1736 -0.00263128 28.8882 1.03131e-05H53.5501C54.2647 -0.00281864 54.9728 0.136407 55.6335 0.409649C56.2943 0.682892 56.8946 1.08475 57.3998 1.59203C57.9051 2.09932 58.3053 2.70201 58.5773 3.36532C58.8494 4.02863 58.9879 4.73944 58.9849 5.45676V7.88007H74.8903C76.888 7.89462 78.7998 8.69767 80.2125 10.1157C81.6251 11.5336 82.4252 13.4527 82.4397 15.4579V56.6829C82.4252 58.6881 81.6251 60.6071 80.2125 62.0251C78.7998 63.4431 76.888 64.2462 74.8903 64.2607H7.54939C5.55165 64.2462 3.63984 63.4431 2.22719 62.0251C0.814538 60.6071 0.0145037 58.6881 6.56285e-06 56.6829V15.4594C-0.00130196 14.4639 0.193075 13.4779 0.572004 12.5579C0.950932 11.6379 1.50697 10.802 2.20825 10.0981C2.90954 9.39414 3.74229 8.83601 4.65882 8.45566C5.57534 8.0753 6.55762 7.88019 7.54939 7.8815V7.8815Z" fill="#566375"/>
<path d="M52.6432 24.6536C50.0014 22.0005 46.5253 20.3484 42.8066 19.9785C39.0878 19.6085 35.3563 20.5436 32.2471 22.6246C29.1379 24.7055 26.8433 27.8038 25.7538 31.3919C24.6642 34.98 24.8472 38.8362 26.2715 42.3041C27.6958 45.772 30.2734 48.6373 33.5655 50.4123C36.8576 52.1872 40.6608 52.7621 44.3277 52.0391C47.9946 51.3161 51.2986 49.3398 53.6772 46.4468C56.0558 43.5537 57.362 39.9226 57.3736 36.1715C57.2992 31.871 55.6097 27.7573 52.6432 24.6536V24.6536ZM41.2694 15.7615C43.9277 15.7472 46.562 16.2672 49.0168 17.2911C51.4717 18.3149 53.6975 19.8218 55.563 21.7228C59.3497 25.5323 61.4842 30.6889 61.5019 36.0703C61.5161 38.7386 60.9979 41.3828 59.9779 43.8469C58.9579 46.311 57.4568 48.5452 55.563 50.4178C51.7679 54.2189 46.6306 56.3615 41.2694 56.3791C38.6111 56.3935 35.9768 55.8734 33.522 54.8495C31.0671 53.8257 28.8413 52.3188 26.9758 50.4178C23.1891 46.6083 21.0546 41.4517 21.0369 36.0703C21.0485 30.6877 23.1839 25.5288 26.9757 21.7227C30.7675 17.9166 35.907 15.7731 41.2694 15.7615V15.7615Z" fill="#19F502"/>
<path d="M70.6625 23.643C72.886 23.643 74.6885 21.8337 74.6885 19.6018C74.6885 17.3699 72.886 15.5605 70.6625 15.5605C68.4389 15.5605 66.6364 17.3699 66.6364 19.6018C66.6364 21.8337 68.4389 23.643 70.6625 23.643Z" fill="#19F502"/>
<path d="M41.2712 47.1862C47.3865 47.1862 52.3439 42.2101 52.3439 36.0717C52.3439 29.9334 47.3865 24.9572 41.2712 24.9572C35.1559 24.9572 30.1985 29.9334 30.1985 36.0717C30.1985 42.2101 35.1559 47.1862 41.2712 47.1862Z" fill="#19F502"/>
</g>
<defs>
<clipPath id="clip0">
<rect width="345" height="64" fill="white"/>
</clipPath>
</defs>
</svg>
