<?xml version="1.0" encoding="UTF-8"?>
<svg width="41px" height="45px" viewBox="0 0 41 45" version="1.1" xmlns="http://www.w3.org/2000/svg" xmlns:xlink="http://www.w3.org/1999/xlink">
    <!-- Generator: Sketch 64 (93537) - https://sketch.com -->
    <title>meat-dairy</title>
    <desc>Created with Sketch.</desc>
    <g id="Page-1" stroke="none" stroke-width="1" fill="none" fill-rule="evenodd">
        <g id="03-queckoo-web-app---admin-panel---dashboard" transform="translate(-523.000000, -1162.000000)" fill-rule="nonzero">
            <g id="Total-Items" transform="translate(466.666667, 834.666667)">
                <g id="3" transform="translate(56.666669, 327.733338)">
                    <g id="meat-dairy">
                        <g id="Group" transform="translate(9.282701, 0.000000)">
                            <path d="M14.8455702,2.07088616 L14.8455702,5.68911415 L5.11814366,5.68911415 L5.11814366,2.07088616 C5.11814366,0.927426197 6.04556986,0 7.18902982,0 L12.7755279,0 C13.918144,0 14.8455702,0.927426197 14.8455702,2.07088616 L14.8455702,2.07088616 Z" id="Path" fill="#EDEDED"></path>
                            <path d="M19.6278489,39.6424488 C19.5330809,41.6375544 17.886583,43.2067528 15.8897053,43.2067528 L4.07434615,43.2067528 C2.07746844,43.2067528 0.430886093,41.6375544 0.336118157,39.6424488 C0.0796624504,34.2767946 -0.0264135032,28.9111404 0.0179746843,23.5455706 C0.0388185669,21.0253173 0.0935865016,18.5042201 0.180506336,15.983123 C0.181350218,15.9648951 0.182278488,15.9465829 0.18312237,15.9291989 C0.290042206,13.2846419 1.58886082,10.9513085 3.55797482,9.45426198 C4.92632931,8.41274295 6.61721545,7.77468385 8.45763747,7.71468385 C9.47392443,7.68168807 10.4902114,7.68168807 11.506414,7.71468385 C13.346836,7.77468385 15.038566,8.41274295 16.4069205,9.45426198 C18.3890303,10.9616882 19.6913088,13.3159499 19.7834607,15.983123 C20.0564565,23.8689461 20.0043046,31.7556975 19.6278489,39.6424488 L19.6278489,39.6424488 Z" id="Path" fill="#D3EFFB"></path>
                            <path d="M9.98253204,7.69071761 C9.75367127,7.69071761 9.52481051,7.69848132 9.29586535,7.71485263 C7.26590746,7.86067542 5.63957828,11.4754435 5.56911415,15.9825323 C5.44649811,23.8697056 5.46962047,31.7559506 5.63957828,39.6431239 C5.68202554,41.6373856 6.42278507,43.2066684 7.32286949,43.2066684 L4.07409299,43.2066684 C2.07696211,43.2066684 0.431308034,41.6373012 0.335696216,39.6431239 C-0.0409282717,31.7559506 -0.0930801725,23.8697056 0.180253172,15.9825323 C0.336708874,11.4754435 3.95046429,7.86067542 8.45763747,7.71485263 C8.96565436,7.69839693 9.47358687,7.69071761 9.98253204,7.69071761 Z" id="Path" fill="#B1E4F9"></path>
                            <path d="M9.32506366,21.9741781 C9.22818602,22.7887773 8.5560341,23.4166254 7.73670917,23.456963 C6.98978931,23.4936718 6.24303822,23.5220263 5.4965403,23.5420263 C3.67004234,23.5924904 1.84354438,23.5933343 0.0178902961,23.5454862 C0.0389029551,21.0075114 0.0942616071,18.4686927 0.182278488,15.9298741 C0.182616041,15.9296209 0.182784817,15.9293677 0.183037982,15.9291146 C1.97822793,15.8848108 3.77434614,15.8882707 5.56953609,15.9386504 C6.29232093,15.9583973 7.01476821,15.9862454 7.73729989,16.0219416 C8.55637165,16.0623635 9.22818602,16.6902116 9.32506366,17.5045577 C9.50227886,18.9944311 9.50227886,20.4843046 9.32506366,21.9741781 Z" id="Path" fill="#EDEDED"></path>
                            <path d="M5.56962047,15.9386504 C5.56962047,15.9534184 5.56877659,15.9681863 5.56877659,15.9829542 C5.52962047,18.5023636 5.50531667,21.0216886 5.49662469,23.5419419 C3.67012673,23.592406 1.84362877,23.5932499 0.0179746843,23.5454018 C0.0388185669,21.0251485 0.0935865016,18.5040514 0.180506336,15.9829542 C0.181350218,15.9647264 0.182278488,15.9464141 0.18312237,15.9290302 C1.97831231,15.8847264 3.77443053,15.8881863 5.56962047,15.9386504 L5.56962047,15.9386504 Z" id="Path" fill="#DBDBDB"></path>
                            <path d="M16.4069205,9.45417759 L3.55789044,9.45417759 C4.92624492,8.41265856 6.61713106,7.77459947 8.45755308,7.71459946 C9.47384004,7.68160368 10.490127,7.68160368 11.5063296,7.71459946 C13.346836,7.77459947 15.038566,8.41274295 16.4069205,9.45417759 Z" id="Path" fill="#B1E4F9"></path>
                            <polygon id="Path" fill="#DBDBDB" points="5.11814366 4.16202548 14.8455702 4.16202548 14.8455702 5.18050653 5.11814366 5.18050653"></polygon>
                            <path d="M14.8454014,4.93831243 L5.11848122,4.93831243 C4.1440508,4.93831243 3.35409296,5.72827027 3.35409296,6.70270069 C3.35409296,7.67713111 4.1440508,8.46708894 5.11848122,8.46708894 L14.8454014,8.46708894 C15.8198319,8.46708894 16.6097897,7.67713111 16.6097897,6.70270069 C16.6097897,5.72827027 15.8199162,4.93831243 14.8454014,4.93831243 Z" id="Path" fill="#EDEDED"></path>
                            <g transform="translate(3.291139, 0.000000)" fill="#DBDBDB" id="Path">
                                <path d="M4.56616052,7.95046445 C4.88582298,8.27012691 5.32717321,8.46717333 5.81392428,8.46717333 L1.82734184,8.46717333 C1.34059077,8.46717333 0.899240542,8.27012691 0.579578082,7.95046445 C0.260843892,7.63080199 0.0628692008,7.19046442 0.0628692008,6.70270069 C0.0628692008,5.72827027 0.852827038,4.93831243 1.82725746,4.93831243 L5.81383989,4.93831243 C4.83940948,4.93831243 4.04945164,5.72827027 4.04945164,6.70270069 C4.04953603,7.19038003 4.24751072,7.63080199 4.56616052,7.95046445 L4.56616052,7.95046445 Z"></path>
                                <path d="M6.86852348,0 C5.72506352,0 4.79890314,0.927088644 4.79890314,2.07054861 L4.79890314,4.9378061 L1.82734184,4.9378061 L1.82734184,2.07054861 C1.82734184,0.927088644 2.75350222,0 3.89696218,0 L6.86852348,0 Z"></path>
                            </g>
                        </g>
                        <g id="Group" transform="translate(20.337554, 21.350212)">
                            <path d="M19.2859079,15.8792411 C19.1789037,16.0305492 19.0479332,17.0913087 18.8966252,17.2121526 C13.6066672,21.4192414 6.07147703,21.4192414 0.781519018,17.2121526 C0.630210996,17.0913087 0.499240526,16.0305492 0.392236303,15.8792411 L7.68016908,1.3789874 C8.57308051,-0.395696218 11.1069203,-0.395696218 11.9998317,1.37991567 L13.0929119,3.55493685 C12.0237979,3.76523222 11.2176376,4.70700441 11.2176376,5.83696226 C11.2176376,7.12185682 12.2590722,8.16329146 13.5430385,8.16329146 C14.1444731,8.16329146 14.6932495,7.93544335 15.1055702,7.5600003 L19.2859079,15.8792411 Z" id="Path" fill="#FFD064"></path>
                            <path d="M18.8967096,18.7017729 C13.6067516,22.9079334 6.07156142,22.9079334 0.781603407,18.7017729 C0.0280168788,18.1021948 -0.198902961,17.0552749 0.233670895,16.1946842 L0.392320691,15.8792411 C0.499324914,16.0305492 0.630295384,16.1688614 0.781603407,16.2897053 C6.07156142,20.4967941 13.6067516,20.4967941 18.8967096,16.2897053 C19.0480176,16.1688614 19.1789881,16.0305492 19.2859923,15.8792411 L19.4446421,16.1946842 C19.877216,17.0552749 19.6502961,18.1021948 18.8967096,18.7017729 Z" id="Path" fill="#DB5C6E"></path>
                            <g transform="translate(6.582279, 8.185654)" fill="#FFC250" id="Oval">
                                <circle cx="6.25772177" cy="5.84438842" r="2.25130811"></circle>
                                <circle cx="1.51232074" cy="1.49704647" r="1.46464141"></circle>
                            </g>
                        </g>
                        <g id="meat" transform="translate(0.000000, 26.413503)">
                            <path d="M0.611358047,7.72970595 C0.578454441,7.82924691 0.559814096,7.93037267 0.554606874,8.03255496 C0.559436761,6.32715203 0.564266648,4.62190004 0.569096535,2.91649711 C0.574303757,2.81431481 0.592944102,2.71311358 0.625847708,2.6136481 C1.10061051,1.18136019 4.34410607,0.359977519 9.52227325,0.359977519 C14.9541604,0.359977519 19.0413769,1.04717989 21.6686845,2.40400081 C21.808072,2.47592085 21.9415731,2.54889742 22.0688105,2.62240227 C22.3905262,2.80812652 22.6742066,2.99800145 22.9242287,3.18915932 C22.9193989,4.89456226 22.914569,6.59981425 22.9097391,8.30521718 C22.6596415,8.11413478 22.3760366,7.92418437 22.0543208,7.73846012 C21.9270835,7.66495528 21.7935824,7.59205417 21.6541948,7.52005867 C19.0268872,6.16323774 14.9397462,5.47603538 9.50778359,5.47603538 C4.3296164,5.47603538 1.08612085,6.29734257 0.611358047,7.72970595 L0.611358047,7.72970595 Z" id="Path" fill="#E56353"></path>
                            <g id="Group" transform="translate(3.924283, 0.679203)" fill="#D5D6DB">
                                <path d="M9.12690172,5.50924085 C9.12041155,5.52825853 9.11739288,5.54720074 9.11739288,5.56606749 L9.13188254,0.450009632 C9.131958,0.431218353 9.13497668,0.41227614 9.14139138,0.393182993 C9.19572761,0.234626857 9.48514349,0.103314303 9.76248466,0.122331983 L9.747995,5.23838984 C9.47065383,5.21937216 9.18123794,5.35068471 9.12690172,5.50924085 Z" id="Path"></path>
                                <path d="M2.14145117,5.4099263 C1.41840199,5.43083065 0.700861891,5.52093823 0.0281491855,5.67617382 C0.0332054735,3.97077089 0.0380353605,2.26551889 0.0428652476,0.560115964 C0.715577953,0.404955842 1.43304258,0.314848262 2.1560163,0.293943907 C2.55651959,0.282397458 2.95732475,0.317112272 3.35548856,0.302773544 C3.59502077,0.293642039 3.88768174,0.284963336 4.06216141,0.385711761 C4.10925281,0.412879876 4.14774097,0.448047491 4.17415441,0.493327682 C4.1931721,0.526382221 4.2018508,0.560417832 4.20177582,0.594528909 L4.18728567,5.71058677 C4.18736114,5.67647569 4.17868243,5.64244008 4.15966475,5.60938554 C4.13317584,5.56410535 4.09476315,5.52893773 4.04767175,5.50176962 C3.87319208,5.40102119 3.58053111,5.40977536 3.3409989,5.4188314 C2.94275962,5.43309466 2.54202993,5.39837985 2.14145117,5.4099263 L2.14145117,5.4099263 Z" id="Path"></path>
                                <path d="M8.42505875,5.36698558 C8.15994323,5.21393854 7.76321329,5.13250966 7.39229306,5.17107329 L7.40678272,0.0550154322 C7.77770296,0.0164518028 8.1744329,0.0978052127 8.43954841,0.250927726 C8.56716309,0.324583503 8.6642891,0.414917484 8.71334264,0.516345112 C8.74073715,0.572643483 8.75341561,0.629922925 8.753266,0.686975966 L8.73877501,5.80303382 C8.73892594,5.74598078 8.72624749,5.68870134 8.69885298,5.63240297 C8.64979944,5.53089987 8.55267343,5.44064136 8.42505875,5.36698558 Z" id="Path"></path>
                                <path d="M6.3740925,5.85012522 C6.37243223,5.86544502 6.37152662,5.88084028 6.37152662,5.89623555 L6.38601628,0.780177692 C6.38609175,0.764782427 6.38692189,0.749462629 6.38858216,0.734067364 C6.42435351,0.41152147 6.8573076,0.11214394 7.40678272,0.0550154322 L7.39229306,5.17107329 C6.84289341,5.2282018 6.40986385,5.52765479 6.3740925,5.85012522 L6.3740925,5.85012522 Z" id="Path"></path>
                            </g>
                            <path d="M13.4685182,1.77800217 L13.4540277,6.89406003 C13.4543296,6.792406 13.3679199,6.68637488 13.2754728,6.5946825 C13.1658948,6.48555724 13.0412988,6.36775327 13.0416001,6.24527036 L13.0560903,1.1292125 C13.055713,1.25169542 13.1803844,1.36949938 13.2899625,1.47862464 C13.382485,1.57031703 13.4688192,1.67634814 13.4685182,1.77800217 Z" id="Path" fill="#E56353"></path>
                            <path d="M13.4659017,6.89398456 C13.4658017,6.91511532 13.4608017,6.93601967 13.4499017,6.95654669 C13.4563017,5.25114376 13.4627017,3.54589176 13.4691017,1.84048883 C13.4800017,1.81996181 13.4850017,1.79905746 13.4851017,1.7779267 C13.4794017,3.31277425 13.4716017,5.35921248 13.4659017,6.89398456 Z" id="Path" fill="#D5D6DB"></path>
                            <path d="M13.0925409,7.27033841 C13.0839376,7.28754489 13.0799379,7.30475136 13.0798624,7.32173143 L13.0943521,2.20567357 C13.0944275,2.1886935 13.0984273,2.17148703 13.1070305,2.15428056 C13.1593291,2.05013612 13.3469401,1.98893239 13.4262559,1.89097625 C13.439689,1.87444898 13.4495752,1.85761984 13.4564427,1.8405643 C13.4516128,3.54596723 13.4467829,5.25121923 13.441953,6.95662216 C13.4350855,6.9736777 13.4251993,6.9905823 13.4117662,7.0070341 C13.3324504,7.10499025 13.1448395,7.16626944 13.0925409,7.27033841 Z" id="Path" fill="#D5D6DB"></path>
                            <path d="M12.6775479,1.36610336 L12.6630582,6.48216122 C12.6614734,7.03359848 11.4567939,7.56948954 10.685144,7.12393246 C10.6569194,7.10763159 10.6291475,7.08997232 10.6021303,7.07095464 C10.4044823,6.93315192 10.2952816,6.75429517 10.295733,6.57543842 L10.310224,1.45938056 C10.3096958,1.63823731 10.418972,1.8170186 10.61662,1.95482132 C10.6436372,1.973839 10.6713336,1.99149827 10.6995582,2.00779914 C11.4712836,2.45343169 12.6759631,1.91754063 12.6775479,1.36610336 Z" id="Path" fill="#E56353"></path>
                            <path d="M12.3638316,0.930130592 C12.4914463,1.00378637 12.5885723,1.09412035 12.6376259,1.19554798 C12.929834,1.79618971 11.5510522,2.49946655 10.6997092,2.00787461 C10.6714845,1.99157374 10.6437126,1.97391446 10.6167709,1.95489678 C10.4021428,1.80517028 10.2917346,1.60722038 10.3130163,1.41327023 C10.3487877,1.09072434 10.7817418,0.791346806 11.3312169,0.734142831 C11.7020616,0.695654669 12.0987161,0.777083546 12.3638316,0.930130592 Z" id="Path" fill="#E56353"></path>
                            <path d="M20.4458929,7.53983102 C19.956716,7.25743356 17.3829899,6.17048257 13.6722782,5.91759271 L13.6867679,0.801534849 C17.3974796,1.05442472 19.9712811,2.1413757 20.4603826,2.42377316 C20.5028705,2.44829993 20.5296613,2.46678934 20.5401512,2.47810939 C20.5603764,2.49999482 20.5697343,2.52127651 20.5696593,2.54195446 L20.5551691,7.65801232 C20.5552446,7.63733436 20.5458112,7.61605267 20.5256616,7.59416725 C20.5152471,7.58292267 20.4884563,7.56443326 20.4458929,7.53983102 L20.4458929,7.53983102 Z" id="Path" fill="#D5D6DB"></path>
                            <path d="M9.90209175,7.28143206 C9.90769175,5.77563931 9.91339175,4.26999749 9.91899175,2.76412926 C9.91899175,2.76390286 9.91899175,2.763601 9.91909175,2.76337459 C9.91339175,4.26946922 9.90769175,5.77533744 9.90209175,7.28143206 L9.90209175,7.28143206 Z" id="Path" fill="#D5D6DB"></path>
                            <path d="M1.32323812,7.72970595 C1.18490713,7.92825959 1.11419457,8.1449253 1.11359083,8.36076088 L1.12808049,3.24470303 C1.12868423,3.02886745 1.19939679,2.81220173 1.33772778,2.6136481 C1.74328736,2.02847709 2.63711833,1.59371179 3.62241529,1.32557759 C3.73584217,1.29486253 3.85085385,1.26610961 3.96714847,1.23924336 C3.96231859,2.94464629 3.9574887,4.64989829 3.95243241,6.35530122 C3.83621326,6.382092 3.72127704,6.41084492 3.60792563,6.44155998 C2.62262867,6.70969418 1.7287977,7.14453495 1.32323812,7.72970595 Z" id="Path" fill="#D5D6DB"></path>
                            <path d="M8.12598309,1.27365631 L8.11149343,6.38971416 C8.11119156,6.50246184 8.01489569,6.61634152 7.87830045,6.69882694 C7.7003493,6.8077258 7.45991148,6.87368394 7.22769957,6.93767994 C6.9579051,7.01254319 6.68697862,7.08672724 6.41605214,7.16083582 C6.05947064,7.25879197 5.70288913,7.35682358 5.34517562,7.45545893 C4.63676703,7.65008828 3.9177176,7.84811365 3.33564074,8.1522456 C2.7716005,8.44694418 2.3450611,8.85914485 2.34377816,9.29851364 L2.35826782,4.18245578 C2.35955076,3.743087 2.78609016,3.33088632 3.3501304,3.03618775 C3.93220726,2.7320558 4.65125669,2.53403043 5.35966528,2.33940107 C5.71737879,2.24076572 6.0739603,2.14273411 6.4305418,2.04477796 C6.70146828,1.97059392 6.97239476,1.89640987 7.24218923,1.82162209 C7.47440114,1.75762608 7.71491442,1.69166794 7.89279011,1.58276908 C8.02938535,1.5002082 8.12568122,1.38640398 8.12598309,1.27365631 L8.12598309,1.27365631 Z" id="Path" fill="#E56353"></path>
                            <g id="Group" transform="translate(2.313456, 2.490411)" fill="#D5D6DB">
                                <path d="M4.05814633,5.12903818 C3.3244563,5.42434049 2.5895588,5.7189636 1.8546613,6.01358671 C1.85949118,4.30818378 1.86432107,2.60293178 1.86915096,0.897528854 C2.60404846,0.602905744 3.33894596,0.308282634 4.07263599,0.0129803214 C4.07271146,0.0129803214 4.07271146,0.0129048545 4.07278692,0.0129048545 C4.06795704,1.71830778 4.06312715,3.42355978 4.05829726,5.12896271 C4.0582218,5.12896271 4.05814633,5.12903818 4.05814633,5.12903818 L4.05814633,5.12903818 Z" id="Path"></path>
                                <path d="M1.8546613,6.01358671 C1.51936148,6.14852168 1.1531202,6.30813435 1.152441,6.56321276 L1.16693066,1.44715491 C1.16768533,1.1920765 1.53385114,1.03253929 1.86922643,0.897528854 C1.86432107,2.60300725 1.85941572,4.30818378 1.8546613,6.01358671 Z" id="Path"></path>
                                <path d="M0.041563329,6.85059104 C0.040463329,6.83640325 0.039863329,6.82229092 0.039963329,6.8081786 L0.059163329,1.69212074 C0.059063329,1.70623307 0.059663329,1.72034539 0.060763329,1.73453319 C0.054463329,3.43993612 0.047963329,5.14518811 0.041563329,6.85059104 Z" id="Path"></path>
                                <path d="M0.0435590789,6.89172055 C0.0436590789,6.87775916 0.0424590789,6.86387323 0.0410590789,6.85059104 C0.0474590789,5.14518811 0.0538590789,3.43993612 0.0602590789,1.73453319 C0.0616590789,1.74781538 0.0627590789,1.7617013 0.0627590789,1.77566269 C0.0570590789,3.31051024 0.0493590789,5.35687301 0.0435590789,6.89172055 L0.0435590789,6.89172055 Z" id="Path"></path>
                            </g>
                            <path d="M2.3612865,4.2660732 L2.34679684,9.38213106 C2.3466459,9.43692009 2.33230718,9.49321846 2.25668926,9.52197138 C2.15473336,9.56076141 2.01821358,9.51721696 1.92395532,9.4709557 C1.88493889,9.45148522 1.84750726,9.43133553 1.81135858,9.41050665 C1.34052006,9.13867457 1.11253429,8.75122706 1.11366211,8.36083635 L1.12815596,3.24477849 C1.12702396,3.63516921 1.35500972,4.02261671 1.82584824,4.29444879 C1.86199692,4.31535314 1.89950402,4.33542736 1.93844498,4.35489784 C2.03270324,4.40115911 2.16922302,4.44470356 2.27117892,4.40591353 C2.34679684,4.37723607 2.36113556,4.32086223 2.3612865,4.2660732 L2.3612865,4.2660732 Z" id="Path" fill="#E56353"></path>
                            <path d="M8.56731402,7.23501987 C7.67733187,7.09963209 7.00929811,7.36361561 6.37167756,7.61944869 C6.37650744,5.91404576 6.38133733,4.20879376 6.38616722,2.50339083 C7.02371231,2.24755775 7.69182153,1.98357424 8.58180368,2.11896201 C8.57704926,3.8239876 8.57221937,5.5287868 8.56738949,7.23381239 C8.57116284,5.91215908 8.57493619,4.59065671 8.57863407,3.2690034 C8.57969061,2.88563111 8.58187915,2.50233429 8.58187915,2.11896201 C8.9344609,2.17284544 9.25428999,2.27714081 9.50514225,2.42196195 L9.50521771,2.42196195 C9.5034065,2.62134573 9.50408571,2.82080497 9.50348197,3.02018875 C9.49933129,4.5257551 9.4949542,6.03117052 9.49072805,7.53673687 C9.49555794,5.83171128 9.50038782,4.12691208 9.50521771,2.42196195 C9.67267895,2.51863516 9.80942513,2.63342045 9.904589,2.76329913 C9.904589,2.76329913 9.904589,2.76329913 9.90466446,2.76337459 L9.90466446,2.7638274 L9.90466446,2.76397833 C9.90368339,3.12055984 9.90262686,3.47706587 9.90164578,3.83364738 C9.90058925,4.21769887 9.89945724,4.60175035 9.8984007,4.98580184 C9.89568389,5.95019444 9.89296708,6.91458705 9.89025027,7.87897965 C9.89508016,6.17372765 9.89991004,4.46862659 9.90473993,2.76337459 C10.026921,2.92970383 10.0767292,3.1035043 10.0762794,3.28024798 L10.0617867,8.39630583 C10.062315,8.21956215 10.0124313,8.04576169 9.89025027,7.87935698 C9.79501093,7.7494783 9.65826476,7.63469302 9.49080352,7.53801981 C9.23980033,7.3931232 8.91989578,7.28882783 8.56731402,7.23501987 Z" id="Path" fill="#D5D6DB"></path>
                            <path d="M10.0979985,3.28017251 L10.0787985,8.39623037 C10.0785985,8.45230234 10.0716985,8.50867617 10.0589985,8.56527641 C10.0334985,8.6807409 10.0206985,8.79650725 10.0202985,8.91219814 L10.0394985,3.79614029 C10.0398985,3.6804494 10.0526985,3.56460758 10.0781985,3.44921856 C10.0908985,3.39269378 10.0977985,3.33624448 10.0979985,3.28017251 L10.0979985,3.28017251 Z" id="Path" fill="#E56353"></path>
                            <path d="M10.2160412,9.84721522 C10.0846532,9.54121546 10.016582,9.22689547 10.0174787,8.91219814 L10.0319773,3.79614029 C10.0310717,4.11083761 10.0991429,4.42515761 10.2305309,4.73110077 L10.2305309,4.73117623 C10.2257765,6.43657916 10.2208711,8.14183116 10.2160412,9.84721522 C10.2160412,9.84721522 10.2160412,9.84721522 10.2160412,9.84721522 Z" id="Path" fill="#D5D6DB"></path>
                            <path d="M10.3130163,10.1663085 C10.2947533,10.0581643 10.2613214,9.95198226 10.2160412,9.84723409 C10.2208711,8.14183116 10.225701,6.43657916 10.2305309,4.73117623 C10.2757356,4.83592441 10.309243,4.94210646 10.327506,5.05025065 C10.3355809,5.10013432 10.3396562,5.15062174 10.3395052,5.20110915 L10.3250156,10.317167 C10.3251665,10.2666796 10.3210913,10.2162676 10.3130163,10.1663085 L10.3130163,10.1663085 Z" id="Path" fill="#D5D6DB"></path>
                            <path d="M10.3395807,5.20110915 L10.325091,10.317167 C10.3242609,10.61662 10.1745344,10.9193935 9.82391479,11.1359838 C9.23738538,11.4973197 8.22733525,11.5258462 7.43213963,11.3380844 C6.70109095,11.1657933 6.10867511,10.8470207 5.54652154,10.5224372 C5.49807174,10.4945144 5.4499238,10.4665162 5.40185133,10.4385179 C4.89622253,10.1466116 4.3918012,9.85402612 3.88737987,9.56144062 C3.75070916,9.48250215 3.6326788,9.39133803 3.55690994,9.28787279 C3.49321581,9.20153856 3.46559489,9.1239585 3.46581991,9.05354781 L3.48031095,3.93748995 C3.48008455,4.00782518 3.50770547,4.08540524 3.5713996,4.17173947 C3.64716846,4.27512924 3.76512336,4.36636883 3.90186953,4.44530729 C4.40629086,4.73789279 4.91071219,5.0304783 5.41634099,5.32238459 C5.46433799,5.35030738 5.5125614,5.37830563 5.5610112,5.40630388 C6.12316477,5.73088738 6.71565607,6.04965993 7.44662929,6.22195106 C8.24182491,6.40971292 9.25187504,6.3811864 9.83840445,6.01985047 C10.1890241,5.80333569 10.3386751,5.50056215 10.3395807,5.20110915 Z" id="Path" fill="#E56353"></path>
                            <path d="M0.553092879,8.08877787 L0.567587195,2.97272001 C0.565625054,3.67207256 1.184077,4.41376209 2.1889199,4.99395227 C2.77409091,5.33181797 3.49034806,5.61489463 4.37957555,5.8293718 L4.36508589,10.9454297 C3.4758584,10.7309525 2.75960125,10.4478004 2.17443024,10.1100101 C1.16958734,9.52981995 0.551135392,8.78820589 0.553092879,8.08877787 Z" id="Path" fill="#D5D6DB"></path>
                            <path d="M0.564763542,8.03255496 C0.563463542,8.05127078 0.562863542,8.06998659 0.562763542,8.08877787 L0.581963542,2.97272001 C0.582063542,2.95392873 0.582663542,2.93521292 0.583963542,2.91649711 C0.577563542,4.6219755 0.571163542,6.32715203 0.564763542,8.03255496 Z" id="Path" fill="#E56353"></path>
                            <path d="M20.5697343,2.54195446 L20.5552446,7.65801232 C20.5544899,7.9309764 18.8961784,8.09640003 18.5774813,8.12296441 C18.0209123,8.16922567 17.4370243,8.14952879 16.9286786,8.00931113 C16.6380553,7.92969346 16.3813166,7.81264417 16.0977117,7.72351766 C15.5446141,7.54933986 14.889938,7.48602306 14.2700522,7.54594384 C14.0176152,7.56979141 13.7617821,7.61469427 13.5102506,7.58473387 C13.4015782,7.57145168 13.2951697,7.53726514 13.2154011,7.49123028 C13.1335949,7.44398795 13.0797115,7.38429356 13.0799372,7.3218069 L13.0944275,2.20574904 C13.0942766,2.26823571 13.14816,2.32793009 13.2298908,2.37517242 C13.3096594,2.42120728 13.4159923,2.45539383 13.5247403,2.46867602 C13.7762717,2.49863641 14.0321048,2.45373355 14.2845419,2.42988599 C14.9044277,2.37004067 15.5591038,2.433282 16.1122013,2.6074598 C16.3958063,2.69658631 16.6525449,2.81363561 16.9431683,2.89325328 C17.4514384,3.03339547 18.035402,3.05316782 18.591971,3.00690656 C18.9106681,2.98034218 20.5689041,2.81491855 20.5697343,2.54195446 Z" id="Path" fill="#E56353"></path>
                            <path d="M20.4604581,2.42384863 C20.502946,2.4483754 20.5297368,2.46686481 20.5402267,2.47818486 C20.827454,2.78910884 18.9348175,2.97830457 18.591971,3.00690656 C18.035402,3.05316782 17.4515139,3.03347093 16.9431683,2.89325328 C16.6525449,2.81363561 16.3958063,2.69658631 16.1122013,2.6074598 C15.5591038,2.433282 14.9044277,2.3699652 14.2845419,2.42988599 C14.0321048,2.45373355 13.7762717,2.49863641 13.5247403,2.46867602 C13.4160678,2.45539383 13.3096594,2.42120728 13.2298908,2.37517242 C13.1258973,2.3151007 13.0669575,2.23480383 13.107106,2.15435602 C13.1594046,2.05021159 13.3470155,1.98900786 13.4263313,1.89105171 C13.5336454,1.75905996 13.4176526,1.60525824 13.2901134,1.47870011 C13.1637062,1.35282118 13.0172248,1.2153958 13.0658255,1.07246133 C13.1201618,0.91390519 13.4095777,0.782592636 13.6869188,0.801610316 C17.3974796,1.05450018 19.9712811,2.14145117 20.4604581,2.42384863 L20.4604581,2.42384863 Z" id="Path" fill="#E56353"></path>
                            <path d="M11.4935464,8.90683999 C11.3851758,9.07724444 11.3339337,9.25625213 11.3334809,9.43586355 L11.3479706,4.3198057 C11.3484988,4.14026974 11.3996654,3.96126205 11.508036,3.79078213 C11.5037344,5.32562967 11.9245383,7.43372444 11.4935464,8.90683999 L11.4935464,8.90683999 Z" id="Path" fill="#D5D6DB"></path>
                            <path d="M24.1519257,9.59879677 C23.8781314,9.18561503 23.4817788,8.74232196 22.9097391,8.30514171 C22.914569,6.59973878 22.9193989,4.89448679 22.9242287,3.18908386 C23.496344,3.6262641 23.8926211,4.06955717 24.1664153,4.48273892 C24.1616609,6.18814185 24.1567555,7.89339384 24.1519257,9.59879677 Z" id="Path" fill="#E56353"></path>
                            <path d="M15.2364824,7.9154302 C13.8039681,7.60518543 12.0198531,8.07806156 11.4935464,8.90683999 L11.508036,3.79078213 C12.0343428,2.9620037 13.8184578,2.4890521 15.2509721,2.79937235 C15.9754551,2.95589087 16.5893791,3.27911597 17.3475204,3.36688407 C18.5065424,3.50023424 19.725787,3.05248861 20.8511507,3.26273964 C21.1735456,3.32258495 21.458509,3.43337049 21.6995505,3.57253161 C21.8752376,3.67395924 22.0276055,3.79048026 22.1540882,3.91326505 C22.3426047,4.09597062 22.4819922,4.29286398 22.6021356,4.4942099 C22.5973058,6.19961283 22.5924759,7.90486483 22.587646,9.61026776 C22.4675025,9.40892184 22.3281905,9.21210394 22.1395985,9.0293229 C22.0131158,8.90653812 21.8608235,8.79001709 21.6850608,8.68858947 C21.4440193,8.54942835 21.159056,8.43864281 20.836661,8.37879749 C19.7112973,8.16854647 18.4921282,8.61629209 17.3330307,8.48294193 C16.5748894,8.39509836 15.961041,8.07187326 15.2364824,7.9154302 Z" id="Path" fill="#D5D6DB"></path>
                            <path d="M7.98636917,1.06483916 C8.03346057,1.09200727 8.07194873,1.12717489 8.09836218,1.17245508 C8.18024385,1.31463488 8.07066579,1.47522863 7.89271464,1.58276908 C7.71476349,1.69166794 7.47432568,1.75762608 7.24211376,1.82162209 C6.97231929,1.89648534 6.70139281,1.97067135 6.43046634,2.04477796 C6.07388483,2.14273411 5.71730333,2.24076572 5.35958982,2.33940107 C4.65118123,2.53403043 3.93213179,2.7320558 3.35005494,3.03618775 C2.76790261,3.3403197 2.33215624,3.76972684 2.35939982,4.2249437 C2.36445611,4.29029811 2.36611639,4.36984031 2.27110345,4.40591353 C2.16914755,4.44470356 2.03262778,4.40115911 1.93836951,4.35489784 C1.89935308,4.33542736 1.86192146,4.31527768 1.82577277,4.29444879 C1.09464862,3.87236194 0.949072805,3.17127365 1.33772778,2.6136481 C1.74328736,2.02847709 2.63711833,1.59371179 3.62241529,1.32557759 C4.39187667,1.11736418 5.23227701,0.997598077 6.08029953,0.973071306 C6.48080282,0.961524858 6.88160797,0.996164204 7.27969632,0.981900944 C7.51922853,0.972844905 7.8118895,0.964166202 7.98636917,1.06483916 L7.98636917,1.06483916 Z" id="Path" fill="#E56353"></path>
                            <path d="M22.5875705,9.61019229 C22.5640248,9.52438633 22.5881743,9.40250715 22.5884007,9.31353157 C22.5893063,8.98917447 22.5902119,8.66481737 22.5911929,8.34046026 C22.5924004,7.91731688 22.5936079,7.49417349 22.5948154,7.07103011 C22.5972303,6.21206488 22.5997207,5.35317512 22.6021356,4.4942099 C22.6739048,4.61450427 22.7388064,4.73638345 22.8031797,4.85773437 C22.8221974,4.89327932 22.8412151,4.92889973 22.8600063,4.96474655 C22.8551764,6.67014948 22.8503466,8.37540148 22.8455167,10.0808044 C22.8267254,10.0450331 22.8077077,10.0093372 22.78869,9.97379222 C22.7242412,9.85229038 22.6593396,9.7304112 22.5875705,9.61019229 L22.5875705,9.61019229 Z" id="Path" fill="#D5D6DB"></path>
                            <path d="M22.8454412,10.0807289 C22.8381209,10.0507685 22.8456676,10.0088089 22.8457431,9.97801837 C22.8464977,9.71395939 22.8472524,9.44990041 22.8480071,9.18576596 C22.8488372,8.88744497 22.8496674,8.58912398 22.850573,8.29080299 C22.8536671,7.18204204 22.8568367,6.07343203 22.8600063,4.96467108 C22.9917717,5.21544788 23.1131981,5.47241296 23.148894,5.73035912 C23.1440641,7.43576205 23.1392342,9.14101404 23.1344043,10.846417 C23.0986329,10.5884708 22.9772066,10.3315057 22.8454412,10.0807289 L22.8454412,10.0807289 Z" id="Path" fill="#D5D6DB"></path>
                            <path d="M23.1426872,10.846417 C23.1394872,10.8107966 23.1429872,10.763026 23.1430872,10.7273301 C23.1432872,10.6635605 23.1435872,10.5997909 23.1437872,10.5360967 C23.1438872,10.4964011 23.1440872,10.4434233 23.1442872,10.4036522 C23.1443872,10.383578 23.1444872,10.3568626 23.1445872,10.3368639 C23.1451872,10.1671386 23.1458872,9.99733792 23.1464872,9.82761267 C23.1515872,8.46181118 23.1567872,7.09623608 23.1618872,5.73043458 C23.1711872,5.780922 23.1760872,5.83140941 23.1758872,5.88197229 L23.1566872,10.9980301 C23.1568872,10.9473918 23.1519872,10.8969044 23.1426872,10.846417 L23.1426872,10.846417 Z" id="Path" fill="#D5D6DB"></path>
                            <path d="M24.6210284,10.5772262 C24.5329585,10.2889424 24.3879864,9.95500094 24.1519257,9.59879677 C24.1567555,7.89339384 24.1615854,6.18814185 24.1664153,4.48273892 C24.402476,4.83894309 24.5474481,5.1728845 24.6355181,5.46116838 C24.6793644,5.60448018 24.7140792,5.76862088 24.7368703,5.94898697 C24.7320404,7.6543899 24.7272105,9.3596419 24.7223806,11.0650448 C24.6995896,10.8846787 24.6648748,10.720538 24.6210284,10.5772262 Z" id="Path" fill="#E56353"></path>
                            <path d="M9.50521771,2.42196195 C9.67267895,2.51863516 9.80942513,2.63342045 9.90466446,2.76329913 C10.0656355,2.98237979 10.1010296,3.21444076 10.0612585,3.44921856 C9.98971576,3.87855023 10.050844,4.3127118 10.2306064,4.73117623 C10.2758111,4.83599987 10.3093184,4.94210646 10.3275814,5.05032611 C10.383578,5.3959649 10.2481902,5.76680967 9.83847992,6.01992594 C9.25195051,6.38126186 8.24190038,6.40978838 7.44670476,6.22202652 C6.71565607,6.0497354 6.12324024,5.73096285 5.56108667,5.40637935 C5.51263686,5.37845656 5.46448893,5.35045831 5.41641646,5.32246006 C4.91078766,5.03055376 4.40636633,4.73796826 3.901945,4.44538276 C3.76527429,4.36644429 3.64724392,4.27528018 3.57147507,4.17181494 C3.27670103,3.77236819 3.75478438,3.56007956 4.18260672,3.38793936 C4.91750422,3.09331625 5.65240172,2.79869314 6.38609175,2.50339083 C7.02371231,2.24755775 7.69182153,1.98349877 8.58187915,2.11896201 C8.9344609,2.17284544 9.25428999,2.27714081 9.50521771,2.42196195 L9.50521771,2.42196195 Z" id="Path" fill="#E56353"></path>
                            <path d="M24.727514,11.0650448 C24.723514,11.015614 24.727914,10.9662585 24.728114,10.9168277 C24.728314,10.8675477 24.728514,10.8181923 24.728714,10.7689124 C24.734714,9.16222026 24.740814,7.55567908 24.746814,5.94898697 C24.773614,6.10920338 24.788014,6.28217371 24.787314,6.46472835 L24.768114,11.5807862 C24.768714,11.3982316 24.754314,11.2252612 24.727514,11.0650448 L24.727514,11.0650448 Z" id="Path" fill="#E56353"></path>
                            <path d="M7.49266415,7.72170645 L7.47817449,12.8377643 C6.9510376,12.3467006 6.38752562,11.9671772 5.88023655,11.6742143 C5.07424915,11.2088849 4.40983781,10.9621833 4.36508589,10.9454297 L4.37957555,5.8293718 C4.42440294,5.84612547 5.08881427,6.09282705 5.89472621,6.55815648 C6.40201528,6.85111931 6.96552726,7.23071825 7.49266415,7.72170645 L7.49266415,7.72170645 Z" id="Path" fill="#D5D6DB"></path>
                            <path d="M23.1593839,5.88182135 L23.1448942,10.9978792 C23.1446678,11.0736481 23.1358382,11.1494169 23.1163677,11.2250348 C23.0462589,11.4979235 22.7988026,11.775491 22.4109023,11.9394808 C21.9602889,12.1310915 21.7516227,12.0963012 21.4822056,11.9407637 C21.4167002,11.9029548 21.347648,11.8580519 21.2706716,11.807489 C21.2079586,11.7662086 21.1429815,11.7261356 21.0758159,11.6873456 C20.3568419,11.2722772 19.3893552,11.0039166 18.3749279,10.9603721 C16.6465076,10.8861881 14.8568835,11.422381 13.2267966,11.0753838 C12.8576121,10.9967472 12.5285761,10.8697363 12.2525933,10.7104255 C11.6770821,10.3781443 11.332198,9.90519273 11.3334773,9.43586355 L11.3479706,4.3198057 C11.3466121,4.78913488 11.6915717,5.26208647 12.267083,5.59436761 C12.5429903,5.75367841 12.8720263,5.88068935 13.2412863,5.95932595 C14.8713732,6.30632315 16.6609972,5.77013022 18.3894176,5.84431426 C19.4038448,5.88785871 20.3713316,6.15621931 21.0903055,6.57128773 C21.1574712,6.61007776 21.2225237,6.65015073 21.2851613,6.69143117 C21.3622131,6.74199405 21.4312654,6.78689691 21.4966952,6.82470587 C21.7660369,6.98024332 21.9747031,7.0150336 22.425392,6.82342293 C22.8132923,6.65943317 23.0607485,6.38179013 23.1308573,6.10897698 C23.1503278,6.03335906 23.1591575,5.95759021 23.1593839,5.88182135 L23.1593839,5.88182135 Z" id="Path" fill="#E56353"></path>
                            <path d="M21.6995505,3.57253161 C21.8752376,3.67395924 22.0276055,3.79048026 22.1540882,3.91326505 C22.4552769,4.20517135 22.630964,4.53315086 22.8031797,4.85773437 C23.0204491,5.26397315 23.2390015,5.68855041 23.1309328,6.10905245 C23.060824,6.38194107 22.8133677,6.65950864 22.4254674,6.8234984 C21.9748541,7.01510907 21.7661879,6.98031879 21.4967707,6.82478133 C21.4312654,6.78697237 21.3622131,6.74206952 21.2852368,6.69150664 C21.2225992,6.6502262 21.1575466,6.61015323 21.090381,6.5713632 C20.371407,6.15629478 19.4039203,5.88793418 18.3894931,5.84438973 C16.6610727,5.77020568 14.8714486,6.30639861 13.2413617,5.95940142 C12.8721773,5.88076482 12.5431412,5.75375388 12.2671584,5.59444308 C11.47151,5.13507554 11.1165133,4.40674366 11.5081115,3.7908576 C12.0344183,2.96207917 13.8185332,2.48912757 15.2510476,2.79944781 C15.9755306,2.95596634 16.5894545,3.27911597 17.3475959,3.36695954 C18.5066178,3.5003097 19.725787,3.05256408 20.8512261,3.2628151 C21.1735456,3.32250949 21.458509,3.43337049 21.6995505,3.57253161 L21.6995505,3.57253161 Z" id="Path" fill="#E56353"></path>
                            <g id="Group" transform="translate(9.105484, 6.188293)" fill="#D5D6DB">
                                <path d="M13.0499334,6.6120399 C13.0416334,6.60615348 13.0331334,6.60026705 13.0245334,6.59438063 C13.0309334,4.8889777 13.0373334,3.1837257 13.0437334,1.47832277 C13.0524334,1.48413373 13.0609334,1.49002015 13.0691334,1.49590658 C13.0628334,3.20138498 13.0563334,4.90663697 13.0499334,6.6120399 Z" id="Path"></path>
                                <path d="M2.13139873,5.12322722 C0.916833073,5.14360331 0.0117575205,5.87850081 0.0239077051,6.58140031 L0.0383973662,1.46534245 C0.0262471816,0.762442951 0.931322734,0.0275454496 2.14588839,0.00716936359 C3.53078304,-0.015319798 4.52573977,0.81277943 5.87184438,1.00671992 C6.79359814,1.13872134 7.64871455,0.921678289 8.31274855,0.564417582 C8.80698184,0.299000195 9.2484637,0.050638347 9.96509819,0.277265703 L9.95060853,5.39332356 C9.23397404,5.16677167 8.79249218,5.41513352 8.29825889,5.68047544 C7.63422489,6.03766068 6.77903301,6.2547792 5.85735472,6.12278744 C4.51125011,5.92883729 3.51629338,5.10073806 2.13139873,5.12322722 L2.13139873,5.12322722 Z" id="Path"></path>
                                <path d="M13.0369064,6.6120399 C13.0417362,4.90663697 13.0465661,3.20138498 13.051396,1.49598205 C13.1139581,1.55514816 13.1612759,1.6183895 13.195387,1.68457404 C13.1905571,3.38997697 13.1857272,5.09522897 13.1808974,6.8006319 C13.1468618,6.73444735 13.0994685,6.67120602 13.0369064,6.6120399 Z" id="Path"></path>
                                <path d="M13.2007981,6.81783837 C13.1971981,6.81202741 13.1933981,6.80629192 13.1894981,6.80055643 C13.1958981,5.0951535 13.2022981,3.38990151 13.2086981,1.68449858 C13.2125981,1.69023407 13.2163981,1.69596956 13.2199981,1.70178051 C13.2135981,3.40725891 13.2070981,5.11243544 13.2007981,6.81783837 Z" id="Path"></path>
                                <path d="M11.7477038,6.37786585 C11.2137749,6.47144491 10.8779468,6.70848671 10.6753935,6.98779002 C10.6802233,5.28238709 10.6850532,3.5771351 10.6898831,1.87173217 C10.8924365,1.59242885 11.2282646,1.35538705 11.7621935,1.26180799 C12.1719038,1.18966155 12.6074992,1.21509393 12.9021223,1.38519651 C12.9492892,1.41244009 12.9928336,1.44330609 13.0320765,1.47817184 C13.0321519,1.4782473 13.0321519,1.4782473 13.0322274,1.47832277 C13.0273975,3.1837257 13.0225676,4.8889777 13.0177377,6.59438063 C13.0176623,6.59430516 13.0176623,6.59430516 13.0175868,6.59422969 C12.978344,6.55943941 12.9347995,6.52849795 12.8876327,6.50125437 C12.5930095,6.33122725 12.1574141,6.30571941 11.7477038,6.37786585 Z" id="Path"></path>
                                <path d="M10.6747768,7.00046848 C10.6811768,5.29506555 10.6875768,3.58981355 10.6939768,1.88441062 C10.6979768,1.88018447 10.7019768,1.87595832 10.7059768,1.87173217 C10.6995768,3.5771351 10.6931768,5.28238709 10.6867768,6.98779002 C10.6826768,6.99201617 10.6786768,6.99624232 10.6747768,7.00046848 Z" id="Path"></path>
                                <path d="M13.1901621,6.81783837 C13.1860621,6.80402791 13.1902621,6.7848593 13.1903621,6.77074697 C13.1904621,6.75580451 13.1904621,6.73580576 13.1905621,6.7208633 C13.1906621,6.68607302 13.1908621,6.65128274 13.1909621,6.61649245 C13.1912621,6.54947777 13.1914621,6.48246309 13.1917621,6.41537294 C13.1976621,4.84415031 13.2035621,3.27307861 13.2094621,1.70178051 C13.2521621,1.76939893 13.2770621,1.84003603 13.2865621,1.91248434 C13.2801621,3.61788727 13.2737621,5.32313926 13.2673621,7.02854219 C13.2576621,6.95609389 13.2328621,6.88545679 13.1901621,6.81783837 L13.1901621,6.81783837 Z" id="Path"></path>
                                <path d="M13.2610186,7.07269038 C13.2603186,7.05789885 13.2590186,7.04318279 13.2571186,7.02854219 C13.2635186,5.32313926 13.2699186,3.61788727 13.2763186,1.91248434 C13.2782186,1.92712493 13.2795186,1.94184099 13.2802186,1.95663252 C13.2738186,3.66203545 13.2673186,5.36728745 13.2610186,7.07269038 Z" id="Path"></path>
                                <path d="M13.2606188,7.07269038 C13.2572188,6.91368144 13.2618188,6.75474797 13.2624188,6.59573903 C13.2630188,6.4367301 13.2636188,6.27779663 13.2642188,6.11878769 C13.2694188,4.73132717 13.2746188,3.34401758 13.2798188,1.95655706 C13.2802188,1.9658395 13.2804188,1.9751974 13.2804188,1.98447984 L13.2612188,7.1005377 C13.2612188,7.09125526 13.2610188,7.08197282 13.2606188,7.07269038 L13.2606188,7.07269038 Z" id="Path"></path>
                                <path d="M10.6663374,7.00046848 C10.6061902,7.0854443 10.5581932,7.17419348 10.5204597,7.26392372 C10.5252896,5.55852079 10.530195,3.85319333 10.5350249,2.1477904 C10.5726829,2.05813562 10.6206799,1.96946191 10.6808271,1.88448609 C10.6763745,3.46121781 10.6718465,5.03772313 10.667394,6.61437938 C10.667243,6.67867725 10.6670166,6.74297512 10.6668657,6.80727299 C10.6668657,6.81489516 10.6667902,6.82500773 10.6667902,6.83255443 C10.6667902,6.84010113 10.6667148,6.85021371 10.6667148,6.85776041 C10.6666393,6.89790884 10.6664884,6.93805728 10.6663374,6.97828118 C10.6663374,6.98492228 10.6682996,6.99412925 10.6663374,7.00046848 L10.6663374,7.00046848 Z" id="Path"></path>
                                <path d="M10.4407666,7.51424771 C10.4105798,7.65016375 10.3954109,7.78713633 10.3950336,7.92418437 L10.4095233,2.80812652 C10.4099006,2.67107847 10.4250695,2.53403043 10.4552563,2.39818985 C10.4738211,2.31540257 10.4999327,2.23118142 10.5350249,2.14771493 C10.530195,3.85311786 10.5253651,5.55844532 10.5204597,7.26384825 C10.4854431,7.34731474 10.4593315,7.43153589 10.4407666,7.51424771 L10.4407666,7.51424771 Z" id="Path"></path>
                            </g>
                            <path d="M17.7583627,14.5339603 L17.7728523,9.41790241 C17.7741353,8.96774184 18.0048378,8.51841141 18.2339556,8.08357065 C18.5140891,7.55077373 18.8763306,7.00982638 19.0706581,6.46548302 L19.0561684,11.5815409 C18.8619164,12.1258842 18.4995994,12.6668316 18.219466,13.1996285 C17.9903482,13.6344693 17.7596456,14.0838752 17.7583627,14.5339603 Z" id="Path" fill="#E56353"></path>
                            <path d="M17.8097729,14.8340925 C17.7767729,14.7341742 17.7620729,14.634105 17.7624729,14.5340357 L17.7816729,9.41797788 C17.7812729,9.51797163 17.7959729,9.61804085 17.8289729,9.71803461 L17.8289729,9.71811008 C17.8225729,11.423513 17.8161729,13.128765 17.8097729,14.8341679 C17.8097729,14.8341679 17.8097729,14.8341679 17.8097729,14.8340925 Z" id="Path" fill="#D5D6DB"></path>
                            <path d="M18.0293646,15.6921521 C18.0301948,15.4173013 17.8635637,15.1136976 17.7940586,14.8342434 C17.7988884,13.1288405 17.8037183,11.4235885 17.8085482,9.71818554 C17.8779778,9.99763979 18.0446089,10.3012435 18.0438543,10.5760942 C18.0395527,12.1109418 18.0337417,14.1573045 18.0293646,15.6921521 Z" id="Path" fill="#D5D6DB"></path>
                            <path d="M18.0438543,10.5760942 L18.0293646,15.6921521 C18.0289118,15.8596888 17.9661988,16.0165847 17.7814556,16.1508404 C17.3544634,16.4617644 16.5343636,16.4386715 15.8654243,16.3481866 C13.9932393,16.0949194 12.2482162,15.5328413 10.8868673,14.7468526 C10.8181169,14.707157 10.7501966,14.6667822 10.6834083,14.6259545 C9.84534741,14.1149676 9.14041031,13.4732718 9.12939213,12.7696931 L9.14388179,7.65363523 C9.15489997,8.35721393 9.85983708,8.99883424 10.6978979,9.50989667 C10.7646862,9.5507243 10.8326065,9.59109914 10.9013569,9.63079478 C12.2626304,10.416708 14.0076535,10.9788615 15.8799139,11.2321287 C16.5488533,11.3226136 17.368953,11.345782 17.7959452,11.0347826 C17.9807639,10.9005268 18.0434015,10.7436309 18.0438543,10.5760942 L18.0438543,10.5760942 Z" id="Path" fill="#E56353"></path>
                            <path d="M22.3710557,8.17284809 L22.3565661,13.2889059 C22.3552831,13.7435945 21.9367432,14.2555626 21.5587291,14.5646753 C21.2719546,14.7985475 20.3640867,15.4920891 19.8989837,15.2235776 C19.8254789,15.1811651 19.7629922,15.1146787 19.7158253,15.0185338 C19.5722871,14.7240616 19.4997634,14.4181939 19.5005864,14.1126281 L19.5150832,8.99657023 C19.5141775,9.30213606 19.5867768,9.60792828 19.730315,9.90247592 C19.7774819,9.99862086 19.8399685,10.0650318 19.9134734,10.1075197 C20.3785764,10.3760313 21.2865197,9.68248966 21.5732188,9.44861747 C21.9511574,9.1395047 22.3697728,8.62753667 22.3710557,8.17284809 Z" id="Path" fill="#E56353"></path>
                            <path d="M22.8560821,10.304564 L22.8415924,15.4206219 C21.7129082,16.293624 20.1204793,16.8012904 18.1089068,16.9285277 C17.8083218,16.9475454 17.5052464,16.9571297 17.2080574,16.9564842 C14.3530659,16.9564842 12.0537378,16.0710718 10.4087085,15.1213198 C8.52316583,14.0327086 7.4971167,12.8595743 7.47817449,12.8377643 L7.49266415,7.72170645 C7.51160637,7.74351641 8.5376555,8.91665069 10.4231981,10.005262 C12.0682275,10.955014 14.3675556,11.8403926 17.2225471,11.8403926 C17.5197361,11.8410718 17.8228115,11.831563 18.1233965,11.8124698 C20.134969,11.6852325 21.7273978,11.1776416 22.8560821,10.304564 L22.8560821,10.304564 Z" id="Path" fill="#D5D6DB"></path>
                            <path d="M24.7674344,6.46472835 L24.7529447,11.5807862 C24.7496242,12.7472794 24.2826345,14.3055972 22.8415924,15.4206973 L22.8560821,10.3046395 C24.2971241,9.18953931 24.7641138,7.63122154 24.7674344,6.46472835 L24.7674344,6.46472835 Z" id="Path" fill="#D5D6DB"></path>
                            <path d="M22.0076822,7.57356476 C22.0548491,7.60080834 22.0983935,7.63167434 22.1376364,7.66654009 C22.7149588,8.18024385 22.104129,9.01445591 21.5732188,9.44861747 C21.2864442,9.68248966 20.3785764,10.3760313 19.9134734,10.1075197 C19.8399685,10.0651073 19.7774819,9.99862086 19.730315,9.90247592 C19.522328,9.47586105 19.4633883,9.02539862 19.5608161,8.58648263 C19.6662435,8.11700252 20.0133917,7.59982727 20.8677534,7.45010077 C21.2773882,7.3780298 21.7129836,7.40346218 22.0076822,7.57356476 Z" id="Path" fill="#E56353"></path>
                            <path d="M19.0706581,6.46555848 C18.8764061,7.00990185 18.5140891,7.5508492 18.2339556,8.08364611 C17.9538222,8.61508462 17.6715002,9.16825762 17.8085482,9.71803461 C17.9203148,10.1678178 18.2838393,10.6801632 17.7959452,11.0347071 C17.368953,11.3456311 16.5488533,11.3225382 15.8799139,11.2320533 C14.007729,10.9787861 12.2627059,10.416708 10.9013569,9.63071931 C10.8326065,9.59102367 10.7646862,9.55064884 10.6978979,9.5098212 C9.85983708,8.99883424 9.15489997,8.35713847 9.14388179,7.65355976 C9.13165614,6.95066027 10.0368072,6.21576276 11.2513728,6.19538668 C12.6362675,6.17289752 13.6312242,7.00099674 14.9773288,7.19493723 C15.8990826,7.32693865 16.754199,7.1098956 17.418233,6.7526349 C17.9125417,6.48736844 18.3540236,6.2390066 19.0706581,6.46555848 L19.0706581,6.46555848 Z" id="Path" fill="#E56353"></path>
                            <path d="M22.8560821,10.304564 C21.7273978,11.1775661 20.134969,11.6852325 18.1233965,11.8124698 C17.8228115,11.8314875 17.5197361,11.8410718 17.2225471,11.8404264 C14.3675556,11.8404264 12.0682275,10.955014 10.4231981,10.005262 C8.5376555,8.91665069 7.51160637,7.74351641 7.49266415,7.72170645 C6.96552726,7.23064278 6.40201528,6.85111931 5.89472621,6.55815648 C5.08873881,6.09282705 4.42432747,5.84612547 4.37957555,5.8293718 C3.49034806,5.61481916 2.77409091,5.3317425 2.1889199,4.99395227 C1.00974826,4.3131646 0.362618864,3.40997572 0.625847708,2.6136481 C1.10061051,1.18128472 4.34410607,0.359977519 9.52219778,0.359977519 C14.954085,0.359977519 19.0413014,1.04717989 21.668609,2.40400081 C21.8079966,2.47592085 21.9414977,2.54889742 22.0688105,2.62240227 C23.7609312,3.59924692 24.4007403,4.69231073 24.6355936,5.46124385 C24.9670446,6.54517615 24.7766414,8.81846815 22.8560821,10.304564 Z M11.508036,3.79078213 C11.1163624,4.4066682 11.4713591,5.13500007 12.2670075,5.59436761 C12.5429148,5.75367841 12.8719509,5.88068935 13.2412108,5.95932595 C14.8712977,6.30632315 16.6609218,5.77013022 18.3893421,5.84431426 C19.4037694,5.88785871 20.3712561,6.15621931 21.0902301,6.57128773 C21.1573957,6.61007776 21.2224482,6.65015073 21.2850858,6.69143117 C21.3621376,6.74199405 21.4311899,6.78689691 21.4966198,6.82470587 C21.7660369,6.98024332 21.9746277,7.0150336 22.4253165,6.82342293 C22.8132168,6.65943317 23.060673,6.38179013 23.1307819,6.10897698 C23.2388506,5.68847494 23.0202982,5.26389768 22.8030288,4.8576589 C22.6308886,4.5330754 22.455126,4.20509588 22.1539372,3.91318958 C22.0274546,3.7904048 21.8751622,3.67388377 21.6993996,3.57245614 C21.458358,3.43329502 21.1733947,3.32250949 20.8509997,3.26266417 C19.725636,3.05241315 18.5064669,3.50015877 17.3473695,3.36680861 C16.5892281,3.2790405 15.9753797,2.95581541 15.2508212,2.79929688 C13.8184578,2.48912757 12.0343428,2.9620037 11.508036,3.79078213 M15.8799894,11.2320533 C16.5489288,11.3225382 17.3690285,11.3457065 17.7960207,11.0347071 C18.2839148,10.6801632 17.9203148,10.1678178 17.8085482,9.71803461 C17.6715002,9.16825762 17.9538976,8.61500916 18.2339556,8.08357065 C18.5140891,7.55077373 18.8763306,7.00982638 19.0706581,6.46548302 C18.3540236,6.23893113 17.9125417,6.48729298 17.4183084,6.7526349 C16.7542744,7.10982014 15.8990826,7.32693865 14.9774043,7.19493723 C13.6312997,7.00099674 12.6363429,6.17289752 11.2514483,6.19538668 C10.0368826,6.21576276 9.13180707,6.95066027 9.14395725,7.65355976 C9.15497543,8.35713847 9.85991254,8.99875877 10.6979734,9.5098212 C10.7647617,9.55064884 10.8326065,9.59102367 10.9014324,9.63071931 C12.2627059,10.416708 14.007729,10.9787861 15.8799894,11.2320533 M7.44662929,6.22202652 C8.24174945,6.40978838 9.25187504,6.38126186 9.83840445,6.01992594 C10.2481147,5.76680967 10.3835025,5.3959649 10.327506,5.05032611 C10.309243,4.94210646 10.2758111,4.83599987 10.2305309,4.73117623 C10.050844,4.3127118 9.98964029,3.87855023 10.061183,3.44921856 C10.1010296,3.21444076 10.0656355,2.98245525 9.904589,2.76337459 C9.80934966,2.63349591 9.67260349,2.51871063 9.50514225,2.42203742 C9.25421452,2.27714081 8.93438544,2.17284544 8.58172821,2.11903748 C7.69167059,1.9836497 7.02356137,2.24763322 6.38594082,2.5034663 C5.65225079,2.79876861 4.91735328,3.09339172 4.18245578,3.38801483 C3.75463344,3.56015502 3.27655009,3.77244365 3.57132414,4.17189041 C3.64709299,4.27528018 3.76504789,4.36651976 3.90179407,4.44545823 C4.40621539,4.73804373 4.91063672,5.03062923 5.41626552,5.32253553 C5.46426253,5.35045831 5.51248593,5.37845656 5.56086027,5.40645482 C6.12316477,5.73096285 6.71565607,6.0497354 7.44662929,6.22202652 M13.6867679,0.801610316 C13.4094267,0.782592636 13.1200108,0.91390519 13.0656746,1.07246133 C13.0171493,1.21532033 13.1636308,1.35282118 13.2899625,1.47870011 C13.4175772,1.60525824 13.5335699,1.75905996 13.4261804,1.89105171 C13.3468646,1.98900786 13.1592537,2.05028705 13.106955,2.15435602 C13.0668066,2.23480383 13.1257463,2.3151007 13.2297398,2.37517242 C13.3095084,2.42120728 13.4158414,2.45539383 13.5245893,2.46867602 C13.7761208,2.49863641 14.0319539,2.45373355 14.2843909,2.42988599 C14.9042768,2.37004067 15.5589529,2.433282 16.1120504,2.6074598 C16.3956553,2.69658631 16.652394,2.81363561 16.9430174,2.89325328 C17.4512875,3.03339547 18.035251,3.05316782 18.5918201,3.00690656 C18.9346666,2.97830457 20.8272276,2.78910884 20.5400757,2.47818486 C20.5296613,2.46686481 20.5028705,2.4483754 20.4603071,2.42384863 C19.9712811,2.14145117 17.3974796,1.05450018 13.6867679,0.801610316 M2.27117892,4.40598899 C2.36611639,4.36991577 2.36453158,4.29029811 2.35947529,4.22501916 C2.33223171,3.76980231 2.76797808,3.34047063 3.3501304,3.03626321 C3.93220726,2.73213126 4.65125669,2.53410589 5.35966528,2.33947654 C5.71737879,2.24076572 6.0739603,2.14280958 6.4305418,2.04485343 C6.70146828,1.97067135 6.97239476,1.89648534 7.24218923,1.82162209 C7.47440114,1.75762608 7.71491442,1.69166794 7.89279011,1.58276908 C8.07074126,1.47522863 8.18024385,1.31463488 8.09843764,1.17245508 C8.07194873,1.12717489 8.03353603,1.09200727 7.98644464,1.06483916 C7.81196497,0.964090735 7.519304,0.972844905 7.27977179,0.981900944 C6.88160797,0.996164204 6.48087828,0.961524858 6.08029953,0.973071306 C5.23227701,0.997598077 4.3918012,1.11736418 3.62241529,1.32557759 C2.6371938,1.59371179 1.74328736,2.02847709 1.33780325,2.6136481 C0.949148272,3.17127365 1.09472409,3.87228647 1.82584824,4.29444879 C1.86199692,4.31535314 1.89950402,4.33542736 1.93844498,4.35489784 C2.03270324,4.40115911 2.16922302,4.44470356 2.27117892,4.40598899 M19.9133979,10.1075197 C20.3785009,10.3760313 21.2863688,9.68248966 21.5731433,9.44861747 C22.1040535,9.01445591 22.7148833,8.18024385 22.1375609,7.66654009 C22.0983181,7.63174981 22.0547736,7.60080834 22.0076067,7.57356476 C21.7129836,7.40346218 21.2773882,7.3780298 20.8676779,7.45017624 C20.0133162,7.59990274 19.6661681,8.11700252 19.5607407,8.58648263 C19.4633883,9.02539862 19.5222525,9.47578559 19.7302395,9.90247592 C19.7774064,9.99862086 19.8398931,10.0650318 19.9133979,10.1075197 M11.331066,0.734218298 C10.7816663,0.791346806 10.3486367,1.0907998 10.3128654,1.41327023 C10.2916592,1.60722038 10.4019919,1.80517028 10.61662,1.95489678 C10.6436372,1.97391446 10.6713336,1.99157374 10.6996337,2.00787461 C11.5510522,2.49946655 12.9297586,1.79618971 12.6375504,1.19554798 C12.5884969,1.09404488 12.4913708,1.00378637 12.3637562,0.930130592 C12.0987161,0.777083546 11.7020616,0.695654669 11.331066,0.734218298" id="Shape" fill="#FFFFFF"></path>
                            <path d="M18.1927506,11.9498952 C14.6957615,12.1711644 11.941292,11.1524356 10.0404296,10.0549947 C8.05904388,8.91106614 7.05797432,7.74298814 7.00529836,7.68148255 C6.5313657,7.24286843 5.99570104,6.88258904 5.51399527,6.60456867 C4.73200637,6.15312517 4.12457261,5.93019569 4.0925746,5.91849831 C3.23821287,5.7178316 2.45758237,5.41068097 1.81332072,5.03862873 C0.719804104,4.40727193 0.0123011186,3.77138712 0.0144896611,2.97294641 L-5.47520484e-06,8.0889288 C-0.00226400955,8.8873695 0.697767745,9.70505429 1.79128436,10.3364111 C2.43562148,10.7083879 3.21625197,11.015614 4.07053824,11.2162807 C4.10253625,11.227978 4.70997001,11.4509075 5.49195891,11.902351 C5.97358921,12.1804469 6.50925387,12.5407263 6.983262,12.9792649 C7.03593796,13.0407705 8.03700752,14.2088485 10.0183932,15.3527771 C11.9192556,16.450218 14.6737251,17.4688713 18.1707143,17.2476776 C24.0458191,16.8748707 25.2963825,13.5703978 25.3020425,11.5818427 L25.3165322,6.46578489 C25.3107967,8.45433994 24.0678554,11.5770883 18.1927506,11.9498952 Z" id="Path" fill="#D15241"></path>
                            <path d="M25.1803143,5.40539828 C25.6350783,6.89285255 25.3272485,11.678365 18.1851285,12.1316197 C14.6882148,12.3528889 11.9336698,11.3341601 10.0328829,10.2367947 C8.05149718,9.09286611 7.05042762,7.92478811 6.99775166,7.86328252 C6.52374353,7.4246684 5.98815434,7.06438901 5.50644857,6.78636864 C4.72445967,6.33492513 4.11702591,6.11199566 4.08502791,6.10029828 C3.23066617,5.89963156 2.45003567,5.59240547 1.80569855,5.2204287 C-1.3431614,3.40242902 -1.22905532,0.0394692332 9.52038658,0.0388654973 C16.4222952,0.0388654973 20.2856765,1.14075895 22.458371,2.39532211 C24.3623276,3.49464968 24.9679502,4.71132842 25.1803143,5.40539828 Z M18.1233965,11.8124698 C20.134969,11.6852325 21.7273978,11.1775661 22.8560821,10.304564 C24.7766414,8.81846815 24.9670446,6.54510069 24.6355181,5.46116838 C24.4006648,4.69223527 23.7608557,3.59924692 22.068735,2.6223268 C21.9414977,2.54882196 21.8079966,2.47592085 21.668609,2.40392534 C19.0413014,1.04710442 14.9541604,0.359902052 9.52219778,0.359902052 C4.3440306,0.359902052 1.10053504,1.18120925 0.625772241,2.61357263 C0.362543397,3.40990026 1.00967279,4.31308913 2.18884444,4.99387681 C2.77401544,5.3317425 3.4902726,5.61481916 4.29120371,5.80280742 C4.424252,5.84605 5.08866334,6.09275158 5.89465074,6.55808101 C6.40193982,6.85096838 6.96545179,7.23056731 7.46542057,7.6937082 C7.5115309,7.74344094 8.5376555,8.91657523 10.4231227,10.0051865 C12.068152,10.9549385 14.3674801,11.8403588 17.2224716,11.8403588 C17.5198115,11.8410718 17.8228115,11.831563 18.1233965,11.8124698" id="Shape" fill="#E56353"></path>
                        </g>
                    </g>
                </g>
            </g>
        </g>
    </g>
</svg>