<?xml version="1.0" encoding="UTF-8"?>
<svg width="49px" height="48px" viewBox="0 0 49 48" version="1.1" xmlns="http://www.w3.org/2000/svg" xmlns:xlink="http://www.w3.org/1999/xlink">
    <!-- Generator: Sketch 64 (93537) - https://sketch.com -->
    <title>next</title>
    <desc>Created with Sketch.</desc>
    <g id="Page-1" stroke="none" stroke-width="1" fill="none" fill-rule="evenodd">
        <g id="04-queckoo-web-app---admin-panel---delivery" transform="translate(-1218.000000, -1120.000000)" fill="#50C96C">
            <g id="Group-4" transform="translate(1000.000000, 1120.000000)">
                <g id="next" transform="translate(218.666667, 0.000000)">
                    <rect id="Mask" opacity="0.150516" x="0" y="0" width="48" height="48" rx="11.9999998"></rect>
                    <path d="M31.7002926,23.6263859 L27.611358,19.6265943 C27.3191843,19.3405941 26.8795199,19.2545377 26.497317,19.4094392 C26.11605,19.5645238 25.8665512,19.9294395 25.8665512,20.3335384 L25.8665512,23.3334279 L17.6889939,23.3334279 C17.1246738,23.3334279 16.6666667,23.7812874 16.6666667,24.3333333 C16.6666667,24.8853727 17.1246738,25.3332322 17.6889939,25.3332322 L25.8665512,25.3332322 L25.8665512,28.3331216 C25.8665512,28.7372205 26.11605,29.1021363 26.497317,29.2572208 C26.8795199,29.4121224 27.3191843,29.326066 27.611358,29.0402489 L31.7002926,25.0402742 C32.0999025,24.6493584 32.0999025,24.0173016 31.7002926,23.6263859 Z" id="Path" fill-rule="nonzero"></path>
                </g>
            </g>
        </g>
    </g>
</svg>