<?xml version="1.0" encoding="UTF-8"?>
<svg width="16px" height="11px" viewBox="0 0 16 11" version="1.1" xmlns="http://www.w3.org/2000/svg" xmlns:xlink="http://www.w3.org/1999/xlink">
    <!-- Generator: Sketch 64 (93537) - https://sketch.com -->
    <title>next-arrow</title>
    <desc>Created with Sketch.</desc>
    <g id="Page-1" stroke="none" stroke-width="1" fill="none" fill-rule="evenodd">
        <g id="next-arrow" transform="translate(0.333333, 0.166667)" fill="#78849E" fill-rule="nonzero">
            <path d="M14.7070923,4.2932107 L10.7069702,0.29327175 C10.4211426,0.0072609845 9.99102784,-0.0787985624 9.61712645,0.0761086408 C9.24414063,0.231198985 9.00006105,0.596128172 9.00006105,1.00024195 L9.00006105,4.00024195 L1.00012209,4.00024195 C0.448059094,4.00024195 0,4.44811795 0,5.00018095 C0,5.55224391 0.448059094,6.00011991 1.00012209,6.00011991 L9.00006105,6.00011991 L9.00006105,9.00011991 C9.00006105,9.40423364 9.24414062,9.76916288 9.61712645,9.92425317 C9.99102784,10.0791604 10.4211426,9.99310083 10.7069702,9.7072732 L14.7070923,5.70715116 C15.0980225,5.31622097 15.0980225,4.68414089 14.7070923,4.2932107 Z" id="Path"></path>
        </g>
    </g>
</svg>