<?xml version="1.0" encoding="UTF-8"?>
<svg width="60px" height="60px" viewBox="0 0 60 60" version="1.1" xmlns="http://www.w3.org/2000/svg" xmlns:xlink="http://www.w3.org/1999/xlink">
    <!-- Generator: Sketch 64 (93537) - https://sketch.com -->
    <title>product-icon-hover</title>
    <desc>Created with Sketch.</desc>
    <defs>
        <filter x="-114.7%" y="-114.7%" width="329.4%" height="329.4%" filterUnits="objectBoundingBox" id="filter-1">
            <feOffset dx="0" dy="7" in="SourceAlpha" result="shadowOffsetOuter1"></feOffset>
            <feGaussianBlur stdDeviation="6.5" in="shadowOffsetOuter1" result="shadowBlurOuter1"></feGaussianBlur>
            <feColorMatrix values="0 0 0 0 0.31372549   0 0 0 0 0.788235294   0 0 0 0 0.423529412  0 0 0 0.5 0" type="matrix" in="shadowBlurOuter1" result="shadowMatrixOuter1"></feColorMatrix>
            <feMerge>
                <feMergeNode in="shadowMatrixOuter1"></feMergeNode>
                <feMergeNode in="SourceGraphic"></feMergeNode>
            </feMerge>
        </filter>
    </defs>
    <g id="Page-1" stroke="none" stroke-width="1" fill="none" fill-rule="evenodd">
        <g id="07-queckoo-web-app---admin-panel---products" transform="translate(-36.000000, -410.000000)">
            <g id="Sidebar">
                <g id="tags" transform="translate(49.333333, 228.000000)">
                    <g id="products" transform="translate(0.000000, 188.166667)">
                        <g id="product-icon-hover" filter="url(#filter-1)">
                            <rect id="Rectangle" fill="#50C96C" x="0" y="0" width="33.3333333" height="33.3333333" rx="6.66666667"></rect>
                            <g id="Group-2" transform="translate(4.000000, 6.000000)" fill="#FFFFFF" fill-rule="nonzero">
                                <g id="carrot" transform="translate(9.163441, 8.500000) scale(-1, 1) translate(-9.163441, -8.500000) translate(0.163441, 0.000000)">
                                    <path d="M13.316129,1.79646202 L12.4534562,1.39354839 L11.4949309,3.97585848 L11.3548387,4.35679501 C11.3843318,4.4923205 11.4764977,4.65348595 11.59447,4.8 L13.316129,1.79646202 Z" id="Path"></path>
                                    <path d="M12.6204455,6.15294708 C12.6204455,6.15294708 12.6241673,6.14930651 12.6241673,6.14930651 C12.6278891,6.14566594 12.6353327,6.14202536 12.6390546,6.13838479 C12.7097689,6.06921391 12.7246561,5.89446641 12.6316109,5.63598573 L12.3971372,5.71971891 C12.3971372,5.71971891 12.3971372,5.71971891 12.3934153,5.71971891 C12.3896935,5.71971891 12.3896935,5.71971891 12.3896935,5.71971891 C12.3896935,5.71971891 12.3859717,5.71971891 12.3859717,5.71971891 C12.3785281,5.72335948 12.3673627,5.72335948 12.3599191,5.72700005 L12.3561973,5.72700005 C12.3524755,5.72700005 12.3524755,5.72700005 12.3487537,5.72700005 C12.3375883,5.72700005 12.3301446,5.73064062 12.3189792,5.73064062 C12.3152574,5.73064062 12.3115356,5.73064062 12.3115356,5.73064062 C12.0286783,5.71971891 11.6937158,5.54133083 11.3959713,5.24280385 C11.113114,4.96247974 10.9233019,4.6311876 10.8860839,4.36178521 C10.8860839,4.35814463 10.8860839,4.35814463 10.8860839,4.35450406 L10.8860839,4.35086349 C10.8860839,4.34722291 10.8860839,4.34722291 10.8860839,4.34358234 C10.8860839,4.33994177 10.8860839,4.33266062 10.8860839,4.32902005 C10.8860839,4.32537948 10.8860839,4.3217389 10.8860839,4.3217389 C10.8860839,4.31809833 10.8860839,4.31445776 10.8860839,4.31081718 C10.8860839,4.30717661 10.8860839,4.30353604 10.8860839,4.29989547 C10.8860839,4.29625489 10.8860839,4.29261432 10.8860839,4.28897375 C10.8860839,4.28533317 10.8860839,4.2816926 10.8898057,4.27805203 C10.8898057,4.27441146 10.8898057,4.27441146 10.8935275,4.27077088 C10.8935275,4.26713031 10.8972493,4.25984916 10.8972493,4.25620859 L10.8972493,4.25256802 L10.9902944,4.00500906 C10.7037153,3.8921513 10.5064596,3.90671359 10.4320235,3.97952505 C10.2645422,4.14335083 10.4506325,4.80229453 11.1242794,5.46123823 C11.7755955,6.09469792 12.4231898,6.28764828 12.6204455,6.15294708 Z" id="Path"></path>
                                    <path d="M11.8737409,5.12482005 C11.8700434,5.12482005 11.8700434,5.12849907 11.8737409,5.12482005 C11.9735734,5.21679552 12.0955909,5.27933884 12.228701,5.31612903 L15.9483871,2.6672354 L15.0314068,1.75483871 L11.8737409,5.12482005 Z" id="Path"></path>
                                    <path d="M13.8039371,1.64193203 C13.8224648,1.70123431 13.8150538,1.76424299 13.7854094,1.81983888 L12.8516129,3.45806452 L14.8711332,1.2935311 C14.9563606,1.20457767 15.0971712,1.19716489 15.1861042,1.28241192 C15.1898098,1.28241192 15.1898098,1.28611831 15.1935153,1.28611831 L15.2935649,1.38619092 L15.7419355,0.974781316 L14.1781969,0 L13.4482051,1.39360371 L13.6890653,1.50850188 C13.7446485,1.53444663 13.7854094,1.58262974 13.8039371,1.64193203 L13.8039371,1.64193203 Z" id="Path"></path>
                                    <path d="M12.6055491,6.66835199 C12.5540936,6.67941391 12.4989627,6.68310122 12.4438318,6.68310122 C11.9844077,6.68310122 11.3742926,6.36968005 10.8193083,5.81289656 C10.1944916,5.18605422 9.87840785,4.48915303 9.96661727,4.02086493 C9.84532932,3.98030455 9.72036598,3.94343147 9.59540263,3.91762031 C9.20948642,3.85862339 8.81621943,3.85493608 8.43030322,3.9102457 C8.29431369,4.52971342 8.54056499,5.33723385 9.0257168,5.80552195 C9.11392622,5.89033003 9.11760161,6.03044773 9.03306758,6.11894312 C8.94853356,6.20743851 8.80886864,6.21112581 8.72065922,6.12631773 C8.17670113,5.60272001 7.88634513,4.7546392 7.96720376,4.02455224 C7.45264882,4.1941684 7.0189525,4.54814996 6.75799964,5.02381268 L6.75432424,5.02749998 L1.75579047,13.3350046 C1.77784283,13.5968035 1.89913078,13.8143547 2.13803129,14.009782 C2.23359149,14.0872154 2.24829306,14.2273331 2.17110982,14.3195158 C2.09392658,14.4153858 1.95426167,14.4301351 1.86237685,14.3527016 C1.68963341,14.2162712 1.54996849,14.0466551 1.4470575,13.8512277 L0.0430575756,16.1816063 C-0.030450274,16.3106621 -0.00839791909,16.4729036 0.0981884628,16.572461 C0.201099452,16.6793929 0.362816721,16.7015167 0.487780066,16.6277706 L4.10436627,14.4375097 C3.86546576,14.3121412 3.65229299,14.1425251 3.48322494,13.9323485 C3.4060417,13.8364785 3.42074326,13.7000481 3.51630347,13.6226147 C3.61186367,13.5451812 3.7478532,13.5599304 3.82503644,13.6558004 C3.99410449,13.8622897 4.29181128,14.105652 4.60054425,14.1425251 L11.3963449,10.0274895 C10.5840832,9.73619215 9.97396806,9.2457802 9.4630885,8.48619478 C9.39325605,8.38663746 9.42265919,8.24651976 9.52189478,8.18014822 C9.62113038,8.11377668 9.76079529,8.13958784 9.82695236,8.23914515 C10.3488581,9.01716711 10.984701,9.47439329 11.8778214,9.71775561 C12.7635909,9.02454173 12.8223972,7.90728744 12.7011093,7.05551932 C12.6827323,6.91171431 12.6496538,6.79003315 12.6055491,6.66835199 Z M7.1181881,9.83206215 C7.04100486,9.92793216 6.90133994,9.93899408 6.80945513,9.86156062 C6.24712008,9.39327251 5.82077455,8.78117941 5.57452326,8.08796552 C5.53409394,7.97365898 5.59657561,7.84829051 5.71051278,7.80773013 C5.82444995,7.76716974 5.94941329,7.82985397 5.98984261,7.94416052 C6.21036616,8.55994093 6.58893158,9.10197519 7.08878496,9.52232829 C7.18434516,9.59976176 7.19904673,9.73987946 7.1181881,9.83206215 Z" id="Shape"></path>
                                    <polygon id="Path" points="17.228699 2.58064516 15.9948186 3.17590258 13.7290323 4.8 17.4967742 3.42943815"></polygon>
                                </g>
                                <g id="orange" transform="translate(11.660215, 1.703226)">
                                    <path d="M8.26289018,1.82567223 C8.47449792,1.61406449 8.81765146,1.61406449 9.02929533,1.82567223 C9.2409392,2.03727997 9.2409392,2.38043351 9.02929533,2.59207738 L7.73435858,3.88701413 C7.90615212,4.20043348 8.02393277,4.54037154 8.0835818,4.89548379 L8.39819341,4.89548379 C9.75285145,4.89548379 10.8549676,3.79336768 10.8549676,2.43870964 L10.8549676,0.541935475 C10.8549676,0.242642577 10.612325,0 10.3130321,0 L8.41625792,0 C7.08620375,0 6.00041796,1.06259095 5.96136248,2.38335996 C6.36246699,2.52296254 6.73398182,2.7416877 7.05650569,3.03209285 L8.26289018,1.82567223 Z" id="Path"></path>
                                    <path d="M7.04559472,5.51441023 L7.04566698,5.43962313 C7.04660633,4.2506167 6.08467086,3.28774188 4.89548379,3.28774188 C4.59619089,3.28774188 4.35354831,3.53038446 4.35354831,3.82967735 C4.35354831,4.12897025 4.59619089,4.37161283 4.89548379,4.37161283 C5.18046959,4.37161283 5.44836636,4.48263734 5.64978571,4.68420121 C6.00619861,5.04093927 5.95742441,5.48977023 5.96172377,5.51433797 C2.62824254,5.79047216 0,8.59133921 0,11.9948385 C0,15.5807172 2.91734705,18.4980642 6.5032257,18.4980642 C10.0891043,18.4980642 13.0064514,15.5807172 13.0064514,11.9948385 C13.0064514,8.59162824 10.3786424,5.79094184 7.04559472,5.51441023 Z M3.2534193,14.6322578 C2.96409801,14.6322578 2.72954834,14.3977081 2.72954834,14.1083869 C2.72954834,13.8190656 2.96409801,13.5845159 3.2534193,13.5845159 C3.54274058,13.5845159 3.77729026,13.8190656 3.77729026,14.1083869 C3.77729026,14.3977081 3.54274058,14.6322578 3.2534193,14.6322578 Z M4.86116121,16.2399997 C4.57183992,16.2399997 4.33729025,16.0054501 4.33729025,15.7161288 C4.33729025,15.4268075 4.57183992,15.1922578 4.86116121,15.1922578 C5.15048249,15.1922578 5.38503217,15.4268075 5.38503217,15.7161288 C5.38503217,16.0054501 5.15048249,16.2399997 4.86116121,16.2399997 Z M5.29059088,14.1625804 C5.00126959,14.1625804 4.76671992,13.9280307 4.76671992,13.6387094 C4.76671992,13.3493882 5.00126959,13.1148385 5.29059088,13.1148385 C5.57991216,13.1148385 5.81446184,13.3493882 5.81446184,13.6387094 C5.81446184,13.9280307 5.57991216,14.1625804 5.29059088,14.1625804 Z" id="Shape"></path>
                                </g>
                            </g>
                        </g>
                    </g>
                </g>
            </g>
        </g>
    </g>
</svg>