<?xml version="1.0" encoding="UTF-8"?>
<svg width="17px" height="26px" viewBox="0 0 17 26" version="1.1" xmlns="http://www.w3.org/2000/svg" xmlns:xlink="http://www.w3.org/1999/xlink">
    <!-- Generator: Sketch 64 (93537) - https://sketch.com -->
    <title>riders-icon</title>
    <desc>Created with Sketch.</desc>
    <g id="Page-1" stroke="none" stroke-width="1" fill="none" fill-rule="evenodd">
        <g id="riders-icon" transform="translate(0.000000, 0.833333)" fill="#78849E" fill-rule="nonzero">
            <path d="M4.44905571,0 C2.52653447,0 0.962464589,1.56406988 0.962464589,3.48659112 C0.962464589,5.40911237 2.52653447,6.97318225 4.44905571,6.97318225 C6.37157696,6.97318225 7.93564684,5.40911237 7.93564684,3.48659112 C7.93564684,1.56406988 6.37157696,0 4.44905571,0 Z" id="Path"></path>
            <path d="M7.23833805,7.67053824 L1.65977337,7.67053824 C0.762606232,7.67053824 0.0326723324,8.40042493 0.0326723324,9.29763928 L0.0326723324,14.876204 C0.0326723324,15.6944759 0.639848914,16.37356 1.4272899,16.4867328 L1.4272899,22.5467422 C1.42733711,23.4438621 2.1572238,24.1737488 3.05439093,24.1737488 L5.84367328,24.1737488 C6.74084042,24.1737488 7.47077432,23.4438621 7.47077432,22.5466478 L7.47077432,16.4866856 C8.2582153,16.3735127 8.86539188,15.6944287 8.86539188,14.8761568 L8.86539188,9.29759207 C8.86539188,8.40042493 8.13550519,7.67053824 7.23833805,7.67053824 Z" id="Path"></path>
            <g id="Group-3" transform="translate(8.829084, 2.407932)">
                <path d="M3.9049442,0 C2.36692729,0 1.11567147,1.25125583 1.11567147,2.78927273 C1.11567147,4.32728964 2.36692729,5.57854547 3.9049442,5.57854547 C5.44296111,5.57854547 6.69421693,4.32728964 6.69421693,2.78927273 C6.69421693,1.25125583 5.44296111,0 3.9049442,0 Z" id="Path"></path>
                <path d="M7.75102518,14.6266658 L6.62044923,12.3654384 C7.09920274,12.1729549 7.43805069,11.7038709 7.43805069,11.1570909 L7.43805069,7.43803544 C7.43805069,6.72030177 6.85414138,6.13635469 6.13636994,6.13635469 L1.67351846,6.13635469 C0.955784791,6.13635469 0.371875478,6.720264 0.371875478,7.43803544 L0.371875478,11.1570909 C0.371875478,11.7038709 0.710723427,12.1729549 1.18947694,12.3654384 L0.0589009921,14.6266658 C-0.0275579262,14.7995459 -0.018341685,15.0049849 0.0833013684,15.169442 C0.184944422,15.333899 0.364547811,15.4340312 0.557862247,15.4340312 L1.48760723,15.4340312 L1.48760723,18.0373549 C1.48760723,18.7550886 2.07151655,19.3390357 2.78928799,19.3390357 L5.02071373,19.3390357 C5.7384474,19.3390357 6.32239448,18.7551264 6.32239448,18.0373549 L6.32239448,15.4340312 L7.25213947,15.4340312 C7.4454539,15.4340312 7.62501952,15.333899 7.72670035,15.169442 C7.82826786,15.0049849 7.8374841,14.7995836 7.75102518,14.6266658 Z" id="Path"></path>
            </g>
        </g>
    </g>
</svg>