<?xml version="1.0" encoding="UTF-8"?>
<svg width="59px" height="59px" viewBox="0 0 59 59" version="1.1" xmlns="http://www.w3.org/2000/svg" xmlns:xlink="http://www.w3.org/1999/xlink">
    <!-- Generator: Sketch 64 (93537) - https://sketch.com -->
    <title>rider-icon-hover</title>
    <desc>Created with Sketch.</desc>
    <defs>
        <rect id="path-1" x="-6.03961325e-13" y="1.21502808e-12" width="33.3333333" height="33.3333333" rx="6.66666667"></rect>
        <filter x="-69.0%" y="-48.0%" width="238.0%" height="238.0%" filterUnits="objectBoundingBox" id="filter-2">
            <feOffset dx="0" dy="7" in="SourceAlpha" result="shadowOffsetOuter1"></feOffset>
            <feGaussianBlur stdDeviation="6.5" in="shadowOffsetOuter1" result="shadowBlurOuter1"></feGaussianBlur>
            <feColorMatrix values="0 0 0 0 0.31372549   0 0 0 0 0.788235294   0 0 0 0 0.423529412  0 0 0 0.5 0" type="matrix" in="shadowBlurOuter1"></feColorMatrix>
        </filter>
    </defs>
    <g id="Page-1" stroke="none" stroke-width="1" fill="none" fill-rule="evenodd">
        <g id="15-queckoo-web-app---admin-panel---riders" transform="translate(-37.000000, -548.000000)">
            <g id="Sidebar">
                <g id="Background">
                    <g id="tags" transform="translate(49.333333, 228.000000)">
                        <g id="rider-" transform="translate(0.000000, 326.166667)">
                            <g id="rider-icon-hover">
                                <g id="Rectangle">
                                    <use fill="black" fill-opacity="1" filter="url(#filter-2)" xlink:href="#path-1"></use>
                                    <use fill="#50C96C" fill-rule="evenodd" xlink:href="#path-1"></use>
                                </g>
                                <g id="rider" transform="translate(10.000000, 6.666667)" fill="#FFFFFF" fill-rule="nonzero">
                                    <path d="M3.7645856,0 C2.13783686,0 0.814393114,1.32344374 0.814393114,2.95019249 C0.814393114,4.57694124 2.13783686,5.90038498 3.7645856,5.90038498 C5.39133435,5.90038498 6.71477809,4.57694124 6.71477809,2.95019249 C6.71477809,1.32344374 5.39133435,0 3.7645856,0 Z" id="Path"></path>
                                    <path d="M6.12474758,6.49045544 L1.40442362,6.49045544 C0.645282197,6.49045544 0.0276458197,7.10805186 0.0276458197,7.86723324 L0.0276458197,12.5875572 C0.0276458197,13.2799412 0.54141062,13.8545507 1.20770684,13.9503123 L1.20770684,19.0780126 C1.20774679,19.8371141 1.82534321,20.4547105 2.58448464,20.4547105 L4.94464662,20.4547105 C5.70378804,20.4547105 6.32142442,19.8371141 6.32142442,19.0779327 L6.32142442,13.9502724 C6.98772064,13.8545108 7.50148544,13.2799012 7.50148544,12.5875173 L7.50148544,7.86719329 C7.50148544,7.10805186 6.88388901,6.49045544 6.12474758,6.49045544 Z" id="Path"></path>
                                    <g id="Group-3" transform="translate(7.470763, 2.037481)">
                                        <path d="M3.30418355,0 C2.00278463,0 0.944029703,1.05875493 0.944029703,2.36015385 C0.944029703,3.66155277 2.00278463,4.7203077 3.30418355,4.7203077 C4.60558247,4.7203077 5.6643374,3.66155277 5.6643374,2.36015385 C5.6643374,1.05875493 4.60558247,0 3.30418355,0 Z" id="Path"></path>
                                        <path d="M6.55855977,12.3764095 L5.60191858,10.4630632 C6.00701771,10.3001926 6.2937352,9.90327536 6.2937352,9.4406154 L6.2937352,6.2937223 C6.2937352,5.68640919 5.79965809,5.19230012 5.19231303,5.19230012 L1.41605408,5.19230012 C0.808740977,5.19230012 0.314663866,5.68637723 0.314663866,6.2937223 L0.314663866,9.4406154 C0.314663866,9.90327536 0.601381362,10.3001926 1.00648049,10.4630632 L0.049839301,12.3764095 C-0.0233182453,12.5226927 -0.0155198873,12.6965257 0.0704857733,12.8356817 C0.156491434,12.9748376 0.308463532,13.0595648 0.472037286,13.0595648 L1.25874458,13.0595648 L1.25874458,15.2623772 C1.25874458,15.8696903 1.75282169,16.3637994 2.36016676,16.3637994 L4.24829623,16.3637994 C4.85560933,16.3637994 5.34971841,15.8697223 5.34971841,15.2623772 L5.34971841,13.0595648 L6.1364257,13.0595648 C6.29999946,13.0595648 6.45193959,12.9748376 6.53797722,12.8356817 C6.62391896,12.6965257 6.63171731,12.5227246 6.55855977,12.3764095 Z" id="Path"></path>
                                    </g>
                                </g>
                            </g>
                        </g>
                    </g>
                </g>
            </g>
        </g>
    </g>
</svg>