<?xml version="1.0" encoding="UTF-8"?>
<svg width="59px" height="59px" viewBox="0 0 59 59" version="1.1" xmlns="http://www.w3.org/2000/svg" xmlns:xlink="http://www.w3.org/1999/xlink">
    <!-- Generator: Sketch 64 (93537) - https://sketch.com -->
    <title>settings-icon-hover</title>
    <desc>Created with Sketch.</desc>
    <defs>
        <rect id="path-1" x="0" y="0" width="33.3333333" height="33.3333333" rx="6.66666667"></rect>
        <filter x="-69.0%" y="-48.0%" width="238.0%" height="238.0%" filterUnits="objectBoundingBox" id="filter-2">
            <feOffset dx="0" dy="7" in="SourceAlpha" result="shadowOffsetOuter1"></feOffset>
            <feGaussianBlur stdDeviation="6.5" in="shadowOffsetOuter1" result="shadowBlurOuter1"></feGaussianBlur>
            <feColorMatrix values="0 0 0 0 0.31372549   0 0 0 0 0.788235294   0 0 0 0 0.423529412  0 0 0 0.5 0" type="matrix" in="shadowBlurOuter1"></feColorMatrix>
        </filter>
    </defs>
    <g id="Page-1" stroke="none" stroke-width="1" fill="none" fill-rule="evenodd">
        <g id="18-queckoo-web-app---admin-panel---seetings" transform="translate(-37.000000, -548.000000)">
            <g id="Sidebar">
                <g id="Background">
                    <g id="tags" transform="translate(49.333333, 228.000000)">
                        <g id="settings-icon-hover" transform="translate(0.000000, 326.166667)">
                            <g id="Rectangle">
                                <use fill="black" fill-opacity="1" filter="url(#filter-2)" xlink:href="#path-1"></use>
                                <use fill="#50C96C" fill-rule="evenodd" xlink:href="#path-1"></use>
                            </g>
                            <path d="M26.5294189,14.7227783 L24.9922485,14.3886109 C24.8585816,13.9793701 24.6930237,13.5802002 24.4975586,13.1956787 L25.3485413,11.8719788 C25.5005188,11.6354675 25.467102,11.3249512 25.2684326,11.1262817 L22.8737183,8.73156738 C22.6750488,8.53289797 22.3645325,8.49948121 22.1280213,8.65145875 L20.8043213,9.50244141 C20.4197998,9.30697633 20.0206299,9.14141844 19.6113891,9.00775148 L19.2772217,7.47058105 C19.2175598,7.19592285 18.9743347,7 18.6932678,7 L15.3067322,7 C15.0256653,7 14.7824402,7.19592285 14.7227783,7.47058105 L14.3886109,9.00775148 C13.9793701,9.14141844 13.5802002,9.30697633 13.1956787,9.50244141 L11.8719788,8.65145875 C11.6354675,8.49948121 11.3249512,8.53289797 11.1262817,8.73156738 L8.73156738,11.1262817 C8.53289797,11.3249512 8.49948121,11.6354675 8.65145875,11.8719788 L9.50244141,13.1956787 C9.30697633,13.5802002 9.14141844,13.9793701 9.00775148,14.3886109 L7.47058105,14.7227783 C7.19592285,14.7825928 7,15.0256653 7,15.3067322 L7,18.6932678 C7,18.9743347 7.19592285,19.2174072 7.47058105,19.2772217 L9.00775148,19.6113891 C9.14141844,20.0206299 9.30697633,20.4197998 9.50244141,20.8043213 L8.65145875,22.1280213 C8.49948121,22.3645325 8.53289797,22.6750488 8.73156738,22.8737183 L11.1262817,25.2684326 C11.3249512,25.467102 11.6354675,25.5005188 11.8719788,25.3485413 L13.1956787,24.4975586 C13.5802002,24.6930237 13.9793701,24.8585816 14.3886109,24.9922485 L14.7227783,26.5294189 C14.7824402,26.8040771 15.0256653,27 15.3067322,27 L18.6932678,27 C18.9743347,27 19.2175598,26.8040771 19.2772217,26.5294189 L19.6113891,24.9922485 C20.0206299,24.8585816 20.4197998,24.6930237 20.8043213,24.4975586 L22.1280213,25.3485413 C22.3645325,25.5005188 22.6750488,25.4672546 22.8737183,25.2684326 L25.2684326,22.8737183 C25.467102,22.6750488 25.5005188,22.3645325 25.3485413,22.1280213 L24.4975586,20.8043213 C24.6930237,20.4197998 24.8585816,20.0206299 24.9922485,19.6113891 L26.5294189,19.2772217 C26.8040771,19.2174072 27,18.9743347 27,18.6932678 L27,15.3067322 C27,15.0256653 26.8040771,14.7825928 26.5294189,14.7227783 Z M20.3333333,17.4761905 C20.3333333,19.5767054 18.6243244,21.2857143 16.5238095,21.2857143 C14.4232946,21.2857143 12.7142857,19.5767054 12.7142857,17.4761905 C12.7142857,15.3756756 14.4232946,13.6666667 16.5238095,13.6666667 C18.6243244,13.6666667 20.3333333,15.3756756 20.3333333,17.4761905 Z" id="Shape" fill="#FFFFFF" fill-rule="nonzero"></path>
                        </g>
                    </g>
                </g>
            </g>
        </g>
    </g>
</svg>