<?xml version="1.0" encoding="UTF-8"?>
<svg width="25px" height="25px" viewBox="0 0 25 25" version="1.1" xmlns="http://www.w3.org/2000/svg" xmlns:xlink="http://www.w3.org/1999/xlink">
    <!-- Generator: Sketch 64 (93537) - https://sketch.com -->
    <title>settings</title>
    <desc>Created with Sketch.</desc>
    <g id="Page-1" stroke="none" stroke-width="1" fill="none" fill-rule="evenodd">
        <g id="settings" transform="translate(0.666667, 0.833333)" fill="#78849E" fill-rule="nonzero">
            <path d="M23.4353027,9.26733398 L21.5906982,8.86633303 C21.4302979,8.37524414 21.2316284,7.89624023 20.9970703,7.43481445 L22.0182495,5.8463745 C22.2006225,5.56256105 22.1605224,5.18994141 21.9221191,4.95153806 L19.0484619,2.07788086 C18.8100586,1.83947756 18.437439,1.79937745 18.1536255,1.9817505 L16.5651855,3.00292969 C16.1037598,2.76837159 15.6247559,2.56970212 15.133667,2.40930178 L14.732666,0.564697266 C14.6610718,0.235107422 14.3692017,0 14.0319214,0 L9.96807863,0 C9.63079833,0 9.33892823,0.235107422 9.26733398,0.564697266 L8.86633303,2.40930178 C8.37524414,2.56970212 7.89624023,2.76837159 7.43481445,3.00292969 L5.8463745,1.9817505 C5.56256105,1.79937745 5.18994141,1.83947756 4.95153806,2.07788086 L2.07788086,4.95153806 C1.83947756,5.18994141 1.79937745,5.56256105 1.9817505,5.8463745 L3.00292969,7.43481445 C2.76837159,7.89624023 2.56970213,8.37524414 2.40930178,8.86633303 L0.564697266,9.26733398 C0.235107422,9.33911133 6.66133815e-15,9.63079833 6.66133815e-15,9.96807862 L6.66133815e-15,14.0319214 C6.66133815e-15,14.3692017 0.235107422,14.6608887 0.564697266,14.732666 L2.40930178,15.133667 C2.56970213,15.6247559 2.76837159,16.1037598 3.00292969,16.5651855 L1.9817505,18.1536255 C1.79937745,18.437439 1.83947756,18.8100586 2.07788086,19.0484619 L4.95153806,21.9221191 C5.18994141,22.1605224 5.56256105,22.2006225 5.8463745,22.0182495 L7.43481445,20.9970703 C7.89624023,21.2316284 8.37524414,21.4302979 8.86633303,21.5906982 L9.26733398,23.4353027 C9.33892823,23.7648926 9.63079833,24 9.96807863,24 L14.0319214,24 C14.3692017,24 14.6610718,23.7648926 14.732666,23.4353027 L15.133667,21.5906982 C15.6247559,21.4302979 16.1037598,21.2316284 16.5651855,20.9970703 L18.1536255,22.0182495 C18.437439,22.2006225 18.8100586,22.1607056 19.0484619,21.9221191 L21.9221191,19.0484619 C22.1605224,18.8100586 22.2006225,18.437439 22.0182495,18.1536255 L20.9970703,16.5651855 C21.2316284,16.1037598 21.4302979,15.6247559 21.5906982,15.133667 L23.4353027,14.732666 C23.7648926,14.6608887 24,14.3692017 24,14.0319214 L24,9.96807863 C24,9.63079833 23.7648926,9.33911133 23.4353027,9.26733398 Z M16.3027954,12 C16.3027954,14.3724975 14.3724975,16.3027954 12,16.3027954 C9.62750245,16.3027954 7.69720458,14.3724975 7.69720458,12 C7.69720458,9.62750245 9.62750245,7.69720458 12,7.69720458 C14.3724975,7.69720458 16.3027954,9.62750245 16.3027954,12 Z" id="Shape"></path>
        </g>
    </g>
</svg>