<?xml version="1.0" encoding="UTF-8"?>
<svg width="48px" height="36px" viewBox="0 0 48 36" version="1.1" xmlns="http://www.w3.org/2000/svg" xmlns:xlink="http://www.w3.org/1999/xlink">
    <!-- Generator: Sketch 64 (93537) - https://sketch.com -->
    <title>snacks-foods</title>
    <desc>Created with Sketch.</desc>
    <g id="Page-1" stroke="none" stroke-width="1" fill="none" fill-rule="evenodd">
        <g id="03-queckoo-web-app---admin-panel---dashboard" transform="translate(-520.000000, -1262.000000)" fill-rule="nonzero">
            <g id="Total-Items" transform="translate(466.666667, 834.666667)">
                <g id="4" transform="translate(53.333336, 427.733338)">
                    <g id="snacks-foods">
                        <g id="burger">
                            <path d="M32.4350381,27.0037882 L2.34828801,27.0037882 C1.05138227,27.0037882 0,25.9524736 0,24.6555002 L0,24.193171 C0,22.8962653 1.05138227,21.844883 2.34828801,21.844883 L32.4351059,21.844883 C33.7320116,21.844883 34.7833939,22.8962653 34.7833939,24.193171 L34.7833939,24.6555002 C34.7833939,25.9524736 33.7320116,27.0037882 32.4350381,27.0037882 Z" id="Path" fill="#E94444"></path>
                            <path d="M34.7831907,24.1929001 L34.7831907,24.6553647 C34.7831907,25.9525414 33.7322825,27.0041268 32.4351059,27.0041268 L31.0609872,27.0041268 C32.3581639,27.0041268 33.409072,25.9525414 33.409072,24.6553647 L33.409072,24.1929001 C33.409072,22.8964007 32.3581639,21.8448153 31.0609872,21.8448153 L32.4351059,21.8448153 C33.7322825,21.8448153 34.7831907,22.8964685 34.7831907,24.1929001 Z" id="Path" fill="#D83131"></path>
                            <path d="M32.4350381,27.0037882 L17.3916631,27.0037882 L2.34828801,27.0037882 C2.34828801,27.0037882 1.31072278,32.0138892 7.21507105,33.98485 C8.22649227,34.3224871 9.28241249,34.4796898 10.3413129,34.4796898 L17.3917308,34.4796898 L24.4421487,34.4796898 C25.5010491,34.4796898 26.5569693,34.3224871 27.5683905,33.98485 C33.4726034,32.0138892 32.4350381,27.0037882 32.4350381,27.0037882 L32.4350381,27.0037882 Z" id="Path" fill="#FE9738"></path>
                            <path d="M27.5682551,33.9847145 C26.5565629,34.3226903 25.5007782,34.4800962 24.4421487,34.4800962 L22.848312,34.4800962 C23.9076188,34.4800962 24.9634035,34.3226903 25.9750957,33.9847145 C31.8788344,32.0137537 30.8412691,27.0041946 30.8412691,27.0041946 L32.4351059,27.0041946 C32.4351059,27.0041946 33.4727388,32.0137537 27.5682551,33.9847145 L27.5682551,33.9847145 Z" id="Path" fill="#FE860A"></path>
                            <path d="M32.4901031,22.7802427 C32.4901031,23.9526596 31.1277696,24.5882437 30.2220081,23.8438165 C29.849693,23.5378096 29.4099859,23.295334 28.7131056,23.295334 C26.8249116,23.295334 26.8249116,24.7910291 24.9366499,24.7910291 C23.0483882,24.7910291 23.0483882,23.295334 21.1601265,23.295334 C19.2719326,23.295334 19.2719326,24.7910291 17.3837386,24.7910291 C15.4956123,24.7910291 15.4956123,23.295334 13.6074184,23.295334 C11.7191567,23.295334 11.7191567,24.7910291 9.83089498,24.7910291 C7.94270101,24.7910291 7.94270101,23.295334 6.05450704,23.295334 C5.35796543,23.295334 4.91839377,23.5376742 4.54614633,23.8435456 C3.64031714,24.5879727 2.27798364,23.9525242 2.27798364,22.7800395 L2.27798364,20.0053196 L32.4901031,20.0053196 L32.4901031,22.7802427 L32.4901031,22.7802427 Z" id="Path" fill="#BBEC6C"></path>
                            <path d="M32.490374,20.0054551 L32.490374,22.7803105 C32.490374,23.8774109 31.2974348,24.5042577 30.402578,23.970405 C30.7978538,23.7395114 31.081916,23.3161951 31.081916,22.7803105 L31.081916,20.0054551 L32.490374,20.0054551 Z" id="Path" fill="#A2E62E"></path>
                            <path d="M2.29322302,17.7820623 L2.29322302,20.0259774 L5.53210084,20.0259774 C6.20588495,20.0259774 6.75213233,20.5722248 6.75213233,21.2460089 L6.75213233,27.7085929 C6.75213233,28.5700585 7.45050266,29.2684289 8.3119683,29.2684289 C9.17343394,29.2684289 9.87173654,28.5700585 9.87173654,27.7085929 L9.87173654,21.2460089 C9.87173654,20.5722248 10.4179839,20.0259774 11.091768,20.0259774 L32.4901708,20.0259774 L32.4901708,17.7820623 L2.29322302,17.7820623 Z" id="Path" fill="#FEE45A"></path>
                            <polygon id="Path" fill="#FEDF30" points="31.0819837 17.7819268 32.4904418 17.7819268 32.4904418 20.0257743 31.0819837 20.0257743"></polygon>
                            <path d="M32.4350381,17.9356753 L2.34828801,17.9356753 C1.05138227,17.9356753 0,16.8843608 0,15.5873873 L0,15.1250582 C0,13.8281524 1.05138227,12.7767702 2.34828801,12.7767702 L32.4351059,12.7767702 C33.7320116,12.7767702 34.7833939,13.8281524 34.7833939,15.1250582 L34.7833939,15.5873873 C34.7833939,16.8843608 33.7320116,17.9356753 32.4350381,17.9356753 Z" id="Path" fill="#9E5528"></path>
                            <path d="M34.7831907,15.1249227 L34.7831907,15.5873873 C34.7831907,16.884564 33.7322825,17.9354721 32.4351059,17.9354721 L31.0609872,17.9354721 C32.3581639,17.9354721 33.409072,16.884564 33.409072,15.5873873 L33.409072,15.1249227 C33.409072,13.8284234 32.3581639,12.7768379 31.0609872,12.7768379 L32.4351059,12.7768379 C33.7322825,12.7769056 34.7831907,13.8284911 34.7831907,15.1249227 L34.7831907,15.1249227 Z" id="Path" fill="#904D24"></path>
                            <path d="M17.3916631,0.0327138851 C5.66309184,0.202446796 1.72245717,6.56458627 0.421555322,10.2612553 C-0.0242475587,11.5279532 0.926216104,12.8535767 2.26904319,12.8535767 L17.3916631,12.8535767 L32.5141475,12.8535767 C33.866931,12.8535767 34.8051354,11.5146102 34.3539818,10.2392428 C33.0452232,6.53939048 29.0970027,0.202108143 17.3916631,0.0327138851 Z" id="Path" fill="#FE9738"></path>
                            <path d="M32.5142152,12.8537121 L32.3469883,12.8537121 C32.8024767,12.3457326 32.989955,11.606182 32.736033,10.8869507 C31.4269357,7.18642101 27.4787829,0.849612783 15.7734433,0.680286256 C12.7452754,0.723633847 10.2355854,1.18054455 8.15761024,1.89767626 C10.5140936,0.815273363 13.5310182,0.0883207166 17.3917308,0.032375232 C29.0970704,0.202379065 33.0452909,6.53925502 34.3543204,10.2390396 C34.8048645,11.5145425 33.8665923,12.8537121 32.5142152,12.8537121 Z" id="Path" fill="#FE860A"></path>
                            <g id="Group" transform="translate(11.988318, 3.454261)" fill="#E57917">
                                <path d="M0.56209634,1.95673735 C0.480548684,1.95673735 0.397849608,1.93702774 0.321043096,1.89557661 C0.0742327495,1.76221503 -0.0176776894,1.45397302 0.115683883,1.20716268 L0.570901319,0.364864801 C0.704262892,0.118054455 1.0125049,0.0261440158 1.25931525,0.159505589 C1.50612559,0.292867161 1.59803603,0.601109172 1.46467446,0.847919518 L1.00945702,1.69021739 C0.917614316,1.86022123 0.742733879,1.95673735 0.56209634,1.95673735 L0.56209634,1.95673735 Z" id="Path"></path>
                                <path d="M5.397046,2.01424064 C5.11650581,2.01424064 4.88906642,1.78680125 4.88906642,1.50626106 L4.88906642,0.54882114 C4.88906642,0.26828095 5.11650581,0.0408415584 5.397046,0.0408415584 C5.67758619,0.0408415584 5.90502558,0.26828095 5.90502558,0.54882114 L5.90502558,1.50626106 C5.90502558,1.78680125 5.67758619,2.01424064 5.397046,2.01424064 Z" id="Path"></path>
                                <path d="M10.2445935,1.94969336 C10.0693745,1.94969336 9.89889651,1.85893435 9.80468323,1.69644861 L9.32433774,0.86817097 C9.18359353,0.625492191 9.26622487,0.314676418 9.50890365,0.173932209 C9.75158243,0.0331879993 10.0623982,0.115819345 10.2031424,0.358498123 L10.6834879,1.18677576 C10.8242321,1.42945454 10.7416008,1.74027032 10.498922,1.88101453 C10.4187289,1.92761319 10.3311533,1.94969336 10.2445935,1.94969336 L10.2445935,1.94969336 Z" id="Path"></path>
                            </g>
                        </g>
                        <g id="cinema" transform="translate(25.272260, 4.279980)">
                            <path d="M17.0676075,12.6599079 L15.1341437,31.2472482 L18.2530939,31.2472482 C18.383861,31.2474885 18.4961585,31.154336 18.5200831,31.0257758 L21.9644476,12.6599079 L17.0676075,12.6599079 Z" id="Path" fill="#D4E1F4"></path>
                            <path d="M4.9437161,12.6585491 L0.0468759669,12.6578698 L3.49124049,31.0257758 C3.51516512,31.154336 3.62746257,31.2474885 3.75822969,31.2472482 L6.87717989,31.2472482 L4.9437161,12.6585491 Z" id="Path" fill="#E75163"></path>
                            <polygon id="Path" fill="#D4E1F4" points="4.9437161 12.6585491 6.87717989 31.2472478 11.002265 31.2472478 11.0056618 12.6592285"></polygon>
                            <polygon id="Path" fill="#E75163" points="11.0056618 12.6592285 11.002265 31.2472478 15.1341437 31.2472478 17.0676075 12.6599079"></polygon>
                            <path d="M11.0056618,18.8896559 C12.0869465,18.8896559 13.0860947,19.4665144 13.6267371,20.4029344 C14.1673795,21.3393544 14.1673795,22.4930714 13.6267371,23.4294914 C13.0860947,24.3659114 12.0869465,24.9427699 11.0056618,24.9427699 L11.0036237,24.9427699 C9.33210243,24.9425823 7.97721879,23.5873945 7.97740639,21.9158732 C7.97759399,20.244352 9.33278179,18.8894683 11.0043031,18.8896559 L11.0056618,18.8896559 Z" id="Path" fill="#43A2FF"></path>
                            <path d="M20.7871135,9.36092677 C20.8099206,9.32820913 20.8307902,9.29418268 20.8496148,9.2590225 C21.1542896,8.70846319 21.0580284,8.02275652 20.6135398,7.57736662 C20.1690512,7.13197673 19.4835409,7.03432671 18.9323656,7.33788561 C18.3811903,7.64144451 18.0972872,8.27299729 18.2361098,8.88673221 C18.0179046,8.99816535 17.8210486,9.14718725 17.6545761,9.32695868 C16.8043287,9.18818711 15.954671,9.57783736 15.5050752,10.3127127 L15.5043959,10.3127127 L13.8005564,6.74742178 C14.6379225,6.74773793 15.3513559,7.35555214 15.4846944,8.18223398 L15.5899955,8.16321185 C17.5033118,8.16279654 19.0611325,6.62493801 19.0862224,4.71178613 C19.1113123,2.79863424 17.5943568,1.22045175 15.6817093,1.16986109 L15.68103,1.16986109 C15.4839129,0.541582313 14.9350254,0.0885067126 14.2807757,0.0140304377 C13.626526,-0.0604458371 12.98985,0.257671564 12.6565663,0.825572356 C12.3232826,1.39347315 12.3560163,2.1044468 12.7400726,2.63932074 C12.5048732,2.96961856 12.3290073,3.33836218 12.2203608,3.72901713 C11.8507927,3.52335784 11.4347131,3.4157712 11.011776,3.41651069 L11.0090586,3.41651069 C10.5978218,2.70390222 9.86188464,2.23966494 9.04163968,2.17544115 C8.22139471,2.11121737 7.42217104,2.45525418 6.90503373,3.09517254 C6.42589791,2.92593386 5.89572124,2.98460823 5.46518594,3.25451972 C5.03465064,3.52443122 4.75083045,3.97606834 4.6943903,4.48107069 C4.52814751,4.4369933 4.35685547,4.41483953 4.18486893,4.41517259 C3.27882254,4.41502898 2.48604877,5.02446422 2.25323919,5.90008958 C2.02042961,6.77571494 2.4058449,7.69840482 3.19232128,8.14826589 L3.1848483,8.16185313 C3.18423937,8.57522268 3.2867466,8.98221611 3.48308815,9.34598081 C3.3841505,9.33369782 3.28454547,9.32757177 3.1848483,9.32763804 C2.38946034,9.32783097 1.64168294,9.70670201 1.17108679,10.3479362 C0.700490639,10.9891704 0.563305204,11.8161495 0.80164697,12.5749876 L0.80164697,12.6578698 L20.1675355,12.6599079 C20.7529556,12.3615159 21.1668858,11.8084912 21.2881709,11.1627015 C21.409456,10.5169117 21.2243799,9.8513884 20.7871135,9.36092677 L20.7871135,9.36092677 Z" id="Path" fill="#F4E39A"></path>
                            <path d="M9.62655725,10.6788887 C10.1778471,11.1639981 10.3570621,11.9473455 10.0715393,12.6239017 C10.0667837,12.6361302 10.0613488,12.6476793 10.0559139,12.6592285 C9.80240795,13.2231947 9.26377816,13.6060115 8.64781646,13.6599962 C8.03185476,13.7139809 7.43484572,13.430695 7.0871027,12.9194241 C6.50042655,13.0468481 5.8943314,12.8117995 5.54696313,12.3221455 C5.19959486,11.8324914 5.17802248,11.1827732 5.49214586,10.6711558 C5.80626924,10.1595385 6.39543823,9.88480394 6.9892746,9.97303179 C7.00660662,9.86008304 7.03763286,9.74966612 7.08166781,9.64422066 C7.37461637,8.95287824 8.16836511,8.62482113 8.86392407,8.90761246 C9.55948303,9.19040378 9.89913067,9.97926246 9.62655725,10.6788887 L9.62655725,10.6788887 Z" id="Path" fill="#E6CC51"></path>
                            <path d="M15.4846944,8.18223398 C15.5518874,8.59955848 15.4620951,9.02697977 15.2326511,9.38198699 C15.4111817,9.63423037 15.5068596,9.93574626 15.5064374,10.2447765 C15.5064374,10.2671955 15.5057546,10.2902938 15.5043959,10.3127127 C15.4709246,11.0538294 14.9001281,11.6588571 14.1622138,11.7353866 C13.4242995,11.811916 12.7414911,11.3369004 12.5566449,10.6184255 C12.4458944,10.6468942 12.3319942,10.6612744 12.2176433,10.6612253 C11.4668532,10.6598314 10.8562097,10.0560184 10.8463708,9.30529142 C10.8365319,8.55456445 11.4311414,7.93495559 12.1816371,7.91388606 C12.4301712,7.16868023 13.1553946,6.68947247 13.9383726,6.75308339 C14.7213506,6.81669431 15.3597101,7.40668267 15.4846944,8.18223398 L15.4846944,8.18223398 Z" id="Path" fill="#EFD66C"></path>
                            <path d="M5.22293382,10.0069999 C5.32263098,10.0069336 5.42223602,10.0130597 5.52117366,10.0253427 C5.32483212,9.66157795 5.22232488,9.25458452 5.22293382,8.84121497 L5.2304068,8.82762773 C4.44393042,8.37776666 4.05851513,7.45507678 4.29132471,6.57945142 C4.52413429,5.70382606 5.31690806,5.09439082 6.22295444,5.09453443 C6.39494099,5.09420137 6.56623302,5.11635514 6.73247582,5.16043253 C6.78891597,4.65543018 7.07273616,4.20379306 7.50327146,3.93388156 C7.93380675,3.66397006 8.46398343,3.6052957 8.94311924,3.77453438 C9.34927781,3.27115803 9.93530526,2.94549789 10.5772562,2.86643141 C10.0735377,2.38088873 9.38908471,2.12917371 8.69080673,2.17266914 C7.99252874,2.21616457 7.34460378,2.55087283 6.90503373,3.09517254 C6.42589791,2.92593386 5.89572124,2.98460823 5.46518594,3.25451972 C5.03465064,3.52443122 4.75083045,3.97606834 4.6943903,4.48107069 C4.52814751,4.4369933 4.35685547,4.41483953 4.18486893,4.41517259 C3.27882254,4.41502898 2.48604877,5.02446422 2.25323919,5.90008958 C2.02042961,6.77571494 2.4058449,7.69840482 3.19232128,8.14826589 L3.1848483,8.16185313 C3.18423937,8.57522268 3.2867466,8.98221611 3.48308815,9.34598081 C3.3841505,9.33369782 3.28454547,9.32757177 3.1848483,9.32763804 C2.38946034,9.32783097 1.64168294,9.70670201 1.17108679,10.3479362 C0.700490639,10.9891704 0.563305204,11.8161495 0.80164697,12.5749876 L0.80164697,12.6578698 L2.73103459,12.6578698 C2.72797746,12.6071214 2.72519208,12.5559655 2.72519208,12.5048096 C2.72519208,11.1253339 3.84345816,10.0070374 5.22293382,10.0069999 L5.22293382,10.0069999 Z" id="Path" fill="#E2CF83"></path>
                            <path d="M13.0471441,4.09587253 L13.0498616,4.09587253 C13.4727986,4.09513303 13.8888782,4.20271968 14.2584463,4.40837897 C14.3670929,4.01772401 14.5429587,3.64898039 14.7781581,3.31868258 C14.4796104,2.9027099 14.3890667,2.37250236 14.5326492,1.88102698 C14.6762316,1.38955161 15.0379693,0.991476143 15.5134993,0.80164697 C15.1948717,0.283872612 14.6192885,-0.0189861594 14.012102,0.0116458802 C13.4049154,0.0422779197 12.862735,0.401526905 12.5978351,0.948739723 C12.3329352,1.49595254 12.3874641,2.14406214 12.7400726,2.63932074 C12.5871863,2.85429154 12.4591908,3.08591882 12.358543,3.32975618 C12.6387183,3.53461554 12.8732188,3.79551345 13.0471441,4.09587253 L13.0471441,4.09587253 Z" id="Path" fill="#E2CF83"></path>
                            <path d="M3.49124049,31.0257758 C3.51516512,31.154336 3.62746257,31.2474885 3.75822969,31.2472482 L5.79631521,31.2472482 C5.66554809,31.2474885 5.55325064,31.154336 5.529326,31.0257758 L2.08496148,12.6581415 L0.0468759669,12.6581415 L3.49124049,31.0257758 Z" id="Path" fill="#FF94AB"></path>
                            <path d="M10.0171903,21.9162129 C10.0175146,20.6376142 10.8209105,19.4970094 12.0247045,19.0660862 C11.6977069,18.9490514 11.3529722,18.8892974 11.0056618,18.8894518 L11.0043031,18.8894518 C9.33278179,18.8892645 7.97759399,20.2441482 7.97740639,21.9156694 C7.97721879,23.5871907 9.33210243,24.9423785 11.0036237,24.9425665 L11.0056618,24.9425665 C11.3529749,24.942752 11.6977149,24.8829971 12.0247045,24.765932 C10.8209614,24.3351772 10.0175453,23.194707 10.0171903,21.9162129 L10.0171903,21.9162129 Z" id="Path" fill="#64D0FF"></path>
                            <g id="Group" transform="translate(2.581575, 18.546578)" fill="#F4F8FC">
                                <path d="M1.60499234,7.17881655 C1.40887864,7.17857776 1.24073435,7.03871916 1.20478028,6.84592925 L0.443895025,2.79013907 C0.417051007,2.64693863 0.468642638,2.50029485 0.579235849,2.40544703 C0.689829061,2.31059921 0.842622113,2.28195699 0.98005934,2.33030961 C1.11749657,2.37866224 1.21869798,2.49666379 1.24554199,2.63986423 L2.00608757,6.69565441 C2.02829124,6.81485602 1.99633848,6.93775841 1.91888934,7.03105181 C1.8414402,7.1243452 1.72651595,7.17836737 1.60526409,7.17847687 L1.60499234,7.17881655 Z" id="Path"></path>
                                <path d="M0.548992302,1.5476542 C0.352984839,1.54744608 0.184878193,1.40776147 0.148780243,1.21510658 L0.0161688118,0.507958847 C-0.0253284391,0.286683949 0.120410139,0.0736650339 0.341685037,0.0321677831 C0.562959934,-0.00932946779 0.77597885,0.13640911 0.8174761,0.357684008 L0.950087531,1.06483175 C0.972291194,1.18403336 0.940338437,1.30693575 0.862889299,1.40022914 C0.78544016,1.49352254 0.67051591,1.5475447 0.549264047,1.5476542 L0.548992302,1.5476542 Z" id="Path"></path>
                            </g>
                        </g>
                    </g>
                </g>
            </g>
        </g>
    </g>
</svg>