<?xml version="1.0" encoding="UTF-8"?>
<svg width="24px" height="24px" viewBox="0 0 24 24" version="1.1" xmlns="http://www.w3.org/2000/svg" xmlns:xlink="http://www.w3.org/1999/xlink">
    <!-- Generator: Sketch 64 (93537) - https://sketch.com -->
    <title>subcategories-icon</title>
    <desc>Created with Sketch.</desc>
    <g id="Page-1" stroke="none" stroke-width="1" fill="none" fill-rule="evenodd">
        <g id="subcategories-icon" fill="#78849E" fill-rule="nonzero">
            <path d="M23.6175063,11.287431 C23.5933054,11.2712134 23.5683515,11.256251 23.5425941,11.2425941 L21.8399498,10.3257238 L12.3977071,15.3249038 C12.1468619,15.4577573 11.8465105,15.4577573 11.5956653,15.3249038 L2.1534728,10.3257238 L0.450778243,11.2425941 C0.0369539749,11.4622594 -0.120502092,11.9757992 0.0991631799,12.3896234 C0.112820084,12.4153305 0.127782427,12.4403347 0.144,12.4645356 L11.9966862,18.7396318 L23.8493724,12.4645356 C24.11041,12.0754644 24.0066276,11.5484686 23.6175063,11.287431 Z" id="Path"></path>
            <path d="M23.8896904,16.7310628 C23.8103096,16.584 23.6896569,16.4633473 23.5426444,16.3840167 L21.84,15.4671464 L12.3977573,20.4663264 C12.1469121,20.5991799 11.8465607,20.5991799 11.5957155,20.4663264 L2.1534728,15.4671464 L0.450778243,16.3840167 C0.034292887,16.6088033 -0.121054393,17.1286192 0.103732218,17.5451046 C0.183112971,17.6921674 0.30376569,17.8128201 0.450778243,17.8921506 L11.5905439,23.8904937 C11.8441004,24.0270126 12.1493222,24.0270126 12.4028787,23.8904937 L23.5426444,17.8921506 C23.9590795,17.667364 24.114477,17.1475481 23.8896904,16.7310628 Z" id="Path"></path>
            <path d="M23.6175063,6.14600837 C23.5933054,6.12979079 23.5683515,6.11482845 23.5425941,6.10117155 L12.4028787,0.102828452 C12.1493222,-0.0336903766 11.8441004,-0.0336903766 11.5905439,0.102828452 L0.450778243,6.10117155 C0.0369539749,6.32083682 -0.120502092,6.83437657 0.0991631799,7.24820084 C0.112820084,7.27390795 0.127782427,7.29891213 0.144,7.32311297 L11.9966862,13.5982092 L23.8493724,7.32311297 C24.11041,6.93404184 24.0066276,6.40704603 23.6175063,6.14600837 Z" id="Path"></path>
        </g>
    </g>
</svg>