<?xml version="1.0" encoding="UTF-8"?>
<svg width="33px" height="37px" viewBox="0 0 33 37" version="1.1" xmlns="http://www.w3.org/2000/svg" xmlns:xlink="http://www.w3.org/1999/xlink">
    <!-- Generator: Sketch 64 (93537) - https://sketch.com -->
    <title>toiletries</title>
    <desc>Created with Sketch.</desc>
    <g id="Page-1" stroke="none" stroke-width="1" fill="none" fill-rule="evenodd">
        <g id="03-queckoo-web-app---admin-panel---dashboard" transform="translate(-527.000000, -1448.000000)" fill-rule="nonzero">
            <g id="Total-Items" transform="translate(466.666667, 834.666667)">
                <g id="6" transform="translate(60.666670, 613.733338)">
                    <g id="toiletries">
                        <g id="Group">
                            <g opacity="0.1" transform="translate(0.400000, 2.320000)" fill="#0000CC" id="Path">
                                <path d="M30.7664812,16.6256007 L24.388321,16.6256007 L24.129201,9.05592036 C24.121841,8.84048035 23.945041,8.66960034 23.7294409,8.66960034 L23.3668809,8.66960034 L22.9315209,5.26272021 C22.9060009,5.0630402 22.7360809,4.9134402 22.5347209,4.9134402 L20.3770408,4.9134402 C20.1757608,4.9134402 20.0057608,5.0630402 19.9802408,5.26272021 L19.5448808,8.66960034 L19.1823208,8.66960034 C18.9667208,8.66960034 18.7899207,8.84040035 18.7825607,9.05592036 L18.5234407,16.6256007 L14.5134406,16.6256007 C14.2723206,16.6256007 14.0829606,16.8320807 14.1036806,17.0722407 L15.2666406,30.5562412 C15.2832006,30.7485612 15.4307206,30.8992012 15.6165606,30.9264812 L15.6165606,32.9600813 C15.6165606,33.1871213 15.8008006,33.3713613 16.0278406,33.3713613 L17.9503207,33.3713613 L19.9532808,33.3713613 L24.961441,33.3713613 L24.953201,33.1304813 C25.018081,33.2723213 25.160481,33.3713613 25.326561,33.3713613 L29.2520012,33.3713613 C29.4790412,33.3713613 29.6632812,33.1871213 29.6632812,32.9600813 L29.6632812,30.9264812 C29.8491212,30.8991212 29.9966412,30.7484812 30.0132012,30.5562412 L31.1761612,17.0722407 C31.1969612,16.8320807 31.0076012,16.6256007 30.7664812,16.6256007 L30.7664812,16.6256007 Z"></path>
                                <path d="M14.6261606,3.13768012 L11.5568005,2.31528009 C11.3166404,2.25096009 11.0697604,2.3934401 11.0053604,2.6336001 L9.87888039,6.83760027 C9.81456039,7.07776028 9.9570404,7.32464029 10.1972004,7.38904029 L12.1356005,7.90840031 L11.9272805,8.68592035 C11.8460005,8.98920036 11.6515205,9.24256037 11.3796005,9.39944037 L9.86008039,10.2764004 C9.17152036,10.6739204 8.67904034,11.3155204 8.47336034,12.0832005 L6.91896027,17.8843207 L5.30584021,17.8843207 L3.99144016,10.4301604 C3.93728016,10.1232004 4.00736016,9.80736039 4.18608017,9.55208038 L5.19216021,8.11520032 C5.64808022,7.4641603 5.82320023,6.67448027 5.68512023,5.89160023 L4.78952019,0.812560032 C4.70320019,0.322880013 4.23624017,-0.00408000016 3.74656015,0.0823200033 L0.618480025,0.633920025 C0.373680015,0.677120027 0.210160008,0.910560036 0.25336001,1.15544005 L1.00912004,5.44176022 C1.05232004,5.68656023 1.28576005,5.85008023 1.53056006,5.80688023 L3.50600014,5.45856022 L3.64576014,6.25120025 C3.70024015,6.56040026 3.63112014,6.87224027 3.45104014,7.12936028 L2.4449601,8.56624034 C1.98912008,9.21744037 1.81400007,10.0070404 1.95208008,10.7897604 L3.20304013,17.8843207 L0.822160033,17.8843207 C0.380320015,17.8843207 0.0221600009,18.2424807 0.0221600009,18.6843207 L0.0221600009,31.7713613 C0.0221600009,32.6550413 0.738480029,33.3713613 1.62216006,33.3713613 L10.6551204,33.3713613 C11.5388005,33.3713613 12.2551205,32.6550413 12.2551205,31.7713613 L12.2551205,18.6843207 C12.2551205,18.2424807 11.8969605,17.8843207 11.4551205,17.8843207 L9.06352036,17.8843207 L10.4742404,12.6192805 C10.5548804,12.3182405 10.7519204,12.0616005 11.0218404,11.9057605 L12.5413605,11.0288004 C13.2299205,10.6315204 13.7224805,9.9898404 13.9282406,9.22192037 L15.2630406,4.24032017 C15.3917606,3.76016015 15.1066406,3.26648013 14.6261606,3.13768012 Z"></path>
                            </g>
                            <g>
                                <path d="M23.7669609,9.06960036 L19.9449608,9.06960036 L20.3803208,5.66272023 C20.4058408,5.46304022 20.5757608,5.31344021 20.7771208,5.31344021 L22.9348009,5.31344021 C23.1360809,5.31344021 23.3060809,5.46304022 23.3316009,5.66272023 L23.7669609,9.06960036 Z" id="Path" fill="#FFFFFF"></path>
                                <polygon id="Path" fill="#EBEBFF" points="22.5669609 9.06960036 21.1449608 9.06960036 21.6249609 5.31336021 22.0869609 5.31336021"></polygon>
                                <g transform="translate(23.760001, 16.960001)" id="Path">
                                    <path d="M6.24352025,14.3722406 L1.61520006,14.3722406 C1.40176006,14.3722406 1.22376005,14.2089606 1.20544005,13.9963206 L0.0424800017,0.51232002 C0.0217600009,0.272080011 0.211120008,0.0656800026 0.452240018,0.0656800026 L7.40648029,0.0656800026 C7.6476003,0.0656800026 7.83696031,0.272080011 7.81624031,0.51232002 L6.65328026,13.9963206 C6.63496026,14.2088806 6.45696026,14.3722406 6.24352025,14.3722406 L6.24352025,14.3722406 Z" fill="#FFF3EE"></path>
                                    <path d="M0.132160005,1.55288006 L7.72648031,1.55288006 L7.81624031,0.51224002 C7.83696031,0.272080011 7.6476003,0.0656000026 7.40648029,0.0656000026 L0.452240018,0.0656000026 C0.211120008,0.0656000026 0.0217600009,0.272080011 0.0424800017,0.51224002 L0.132160005,1.55288006 Z" fill="#FFD6BB"></path>
                                    <polygon fill="#FF9D33" points="0.275920011 3.21912013 0.664400026 7.72408031 7.19424029 7.72408031 7.5828003 3.21912013"></polygon>
                                    <path d="M6.30336025,14.1013606 L6.30336025,16.4000807 C6.30336025,16.6271207 6.11912024,16.8113607 5.89208023,16.8113607 L1.96664008,16.8113607 C1.73960007,16.8113607 1.55536006,16.6271207 1.55536006,16.4000807 L1.55536006,14.1013606 L6.30336025,14.1013606 Z" fill="#FF9D33"></path>
                                    <polygon fill="#FF8B00" points="1.55536006 14.1013606 6.30336025 14.1013606 6.30336025 15.6083206 1.55536006 15.6083206"></polygon>
                                    <path d="M4.60512018,9.46784038 L3.25360013,9.46784038 C3.03272012,9.46784038 2.85360011,9.28880037 2.85360011,9.06784036 C2.85360011,8.84688035 3.03272012,8.66784034 3.25360013,8.66784034 L4.60512018,8.66784034 C4.82600019,8.66784034 5.0051202,8.84688035 5.0051202,9.06784036 C5.0051202,9.28880037 4.82600019,9.46784038 4.60512018,9.46784038 Z" fill="#FFD6BB"></path>
                                </g>
                                <path d="M25.361521,33.7714413 L18.3503207,33.7714413 L19.1825608,9.45592038 C19.1899208,9.24048037 19.3667208,9.06960036 19.5823208,9.06960036 L24.129441,9.06960036 C24.345041,9.06960036 24.521841,9.24048037 24.529201,9.45592038 L25.361521,33.7714413 Z" id="Path" fill="#8383FF"></path>
                                <path d="M24.669681,13.5574405 L24.529281,9.45592038 C24.521921,9.24048037 24.345121,9.06960036 24.129521,9.06960036 L19.5824008,9.06960036 C19.3668008,9.06960036 19.1900008,9.24040037 19.1826408,9.45592038 L19.0422408,13.5574405 L24.669681,13.5574405 Z" id="Path" fill="#FFAB66"></path>
                                <polygon id="Path" fill="#6C6CFF" points="19.0607208 13.0168805 18.9790408 15.4044806 24.732881 15.4044806 24.651121 13.0168805"></polygon>
                                <path d="M25.361841,33.7712013 L18.3506407,33.7712013 L18.7034407,23.4536009 C19.9330408,20.7928008 22.2058409,18.9432008 24.846641,18.7296007 L25.361841,33.7712013 Z" id="Path" fill="#FF6C6C"></path>
                                <polygon id="Path" fill="#FF4D4D" points="18.4672007 30.3609612 18.3506407 33.7712013 25.361841 33.7712013 25.245041 30.3609612"></polygon>
                                <path d="M23.5397609,32.3374413 L20.5484008,32.3374413 C20.3275208,32.3374413 20.1484008,32.1584013 20.1484008,31.9374413 C20.1484008,31.7164813 20.3275208,31.5374413 20.5484008,31.5374413 L23.5397609,31.5374413 C23.7606409,31.5374413 23.939761,31.7164813 23.939761,31.9374413 C23.939761,32.1584013 23.7606409,32.3374413 23.5397609,32.3374413 Z" id="Path" fill="#FFFFFF"></path>
                                <g>
                                    <g transform="translate(0.400000, 0.400000)" id="Path">
                                        <g transform="translate(5.760000, 2.240000)">
                                            <path d="M0.0311200012,19.8536808 L2.71344011,9.84320039 C2.91912012,9.07552036 3.41160014,8.43392034 4.10016016,8.03640032 L5.61968022,7.15944028 C5.89160023,7.00256028 6.08616024,6.74912027 6.16736025,6.44592026 L7.73520031,0.594720024 L8.86608035,0.897760036 C9.34656037,1.02648004 9.63168038,1.52016006 9.50304038,2.00048008 L8.16824032,6.98208028 C7.96248032,7.74992031 7.4699203,8.39160033 6.78136027,8.78896035 L5.26184021,9.66592038 C4.9918402,9.82176039 4.79488019,10.0784004 4.71424019,10.3794404 L2.03200008,20.3898408 L0.0311200012,19.8536808 Z" fill="#FFAB66"></path>
                                            <polygon fill="#FF8B00" transform="translate(1.872042, 17.003003) rotate(-74.991086) translate(-1.872042, -17.003003) " points="-1.3605008 15.9671601 5.10458543 15.9671601 5.10458543 18.0388456 -1.3605008 18.0388456"></polygon>
                                            <path d="M4.43736018,5.1490402 L6.37576025,5.66840023 L7.73528031,0.594640024 L5.79688023,0.075280003 C5.55672022,0.0109600004 5.30984021,0.153440006 5.24544021,0.393600016 L4.11896016,4.59760018 C4.05464016,4.83784019 4.19712017,5.0847202 4.43736018,5.1490402 L4.43736018,5.1490402 Z" fill="#FFFFFF"></path>
                                        </g>
                                        <g transform="translate(0.240000, 0.000000)">
                                            <path d="M3.51192014,20.9959208 L1.71232007,10.7897604 C1.57432006,10.0070404 1.74936007,9.21744037 2.20520009,8.56624034 L3.21128013,7.12936028 C3.39136013,6.87224027 3.46048014,6.56040026 3.40600014,6.25120025 L2.35416009,0.285600011 L3.50672014,0.0824000033 C3.99640016,-0.00392000016 4.46328018,0.323040013 4.54968018,0.812640032 L5.44528022,5.89168023 C5.58336022,6.67456027 5.40824021,7.4642403 4.9523202,8.11528032 L3.94624016,9.55216038 C3.76752015,9.80744039 3.69744015,10.1232804 3.75160015,10.4302404 L5.55120022,20.6364008 L3.51192014,20.9959208 Z" fill="#FF6C6C"></path>
                                            <polygon fill="#FF4D4D" transform="translate(3.979529, 17.634035) rotate(-10.017934) translate(-3.979529, -17.634035) " points="2.94394948 14.4010655 5.01510819 14.4010655 5.01510819 20.8670049 2.94394948 20.8670049"></polygon>
                                            <path d="M1.29080005,5.80688023 L3.26624013,5.45856022 L2.35416009,0.285600011 L0.378720015,0.633920025 C0.133920005,0.677120027 -0.0296000012,0.910560036 0.0136000005,1.15536005 L0.769360031,5.44168022 C0.812480032,5.68656023 1.04592004,5.85008023 1.29080005,5.80688023 L1.29080005,5.80688023 Z" fill="#FFFFFF"></path>
                                        </g>
                                        <g transform="translate(0.000000, 17.840001)">
                                            <path d="M10.6551204,15.5314406 L1.62216006,15.5314406 C0.738480029,15.5314406 0.0221600009,14.8151206 0.0221600009,13.9314406 L0.0221600009,0.844320034 C0.0221600009,0.402480016 0.380320015,0.0443200018 0.822160033,0.0443200018 L11.4551205,0.0443200018 C11.8969605,0.0443200018 12.2551205,0.402480016 12.2551205,0.844320034 L12.2551205,13.9313606 C12.2551205,14.8151206 11.5388005,15.5314406 10.6551204,15.5314406 L10.6551204,15.5314406 Z" fill="#8383FF"></path>
                                            <path d="M4.04168016,5.1382402 L0.0221600009,5.1382402 L0.0221600009,2.28512009 L4.04160016,2.28512009 C4.26248017,2.28512009 4.4416002,2.4642401 4.4416002,2.68512011 L4.4416002,4.73824019 C4.44168018,4.9592002 4.26256017,5.1382402 4.04168016,5.1382402 L4.04168016,5.1382402 Z" fill="#FF4D4D"></path>
                                            <path d="M0.0221600009,11.5073605 L0.0221600009,13.9314406 C0.0221600009,14.8151206 0.738480029,15.5314406 1.62216006,15.5314406 L10.6551204,15.5314406 C11.5388005,15.5314406 12.2551205,14.8151206 12.2551205,13.9314406 L12.2551205,11.5073605 L0.0221600009,11.5073605 Z" fill="#6C6CFF"></path>
                                        </g>
                                    </g>
                                    <g>
                                        <g>
                                            <path d="M20.7646408,31.0613612 L20.7646408,33.3600813 C20.7646408,33.5871213 20.5804008,33.7713613 20.3533608,33.7713613 L16.4279207,33.7713613 C16.2008806,33.7713613 16.0166406,33.5871213 16.0166406,33.3600813 L16.0166406,31.0613612 L20.7646408,31.0613612 Z" id="Path" fill="#FF4D4D"></path>
                                            <polygon id="Path" fill="#FF2C2C" points="16.0166406 31.0613612 20.7646408 31.0613612 20.7646408 32.5683213 16.0166406 32.5683213"></polygon>
                                            <path d="M20.7048008,31.3322412 L16.0764006,31.3322412 C15.8629606,31.3322412 15.6849606,31.1689612 15.6666406,30.9563212 L14.5036806,17.4723207 C14.4829606,17.2320807 14.6723206,17.0256807 14.9134406,17.0256807 L21.8676809,17.0256807 C22.1088009,17.0256807 22.2981609,17.2320807 22.2774409,17.4723207 L21.1144808,30.9563212 C21.0962408,31.1688812 20.9182408,31.3322412 20.7048008,31.3322412 Z" id="Path" fill="#FFFFFF"></path>
                                            <path d="M14.5934406,18.5128807 L22.1877609,18.5128807 L22.2775209,17.4722407 C22.2982409,17.2320807 22.1088809,17.0256007 21.8677609,17.0256007 L14.9135206,17.0256007 C14.6724006,17.0256007 14.4830406,17.2320807 14.5037606,17.4722407 L14.5934406,18.5128807 Z" id="Path" fill="#FFD9D9"></path>
                                            <polygon id="Path" fill="#FF4D4D" points="14.7372006 20.1791208 15.1256806 24.684081 21.6555209 24.684081 22.0440809 20.1791208"></polygon>
                                            <g fill="#0000CC" id="Shape">
                                                <path d="M31.7642413,16.8884007 C31.6109613,16.7213607 31.3931212,16.6256007 31.1664812,16.6256007 L27.6360811,16.6256007 C27.4152011,16.6256007 27.2360811,16.8046407 27.2360811,17.0256007 C27.2360811,17.2465607 27.4152011,17.4256007 27.6360811,17.4256007 L31.1664812,17.4256007 C31.1685612,17.4256007 31.1714412,17.4256007 31.1748012,17.4292807 C31.1781612,17.4329607 31.1779212,17.4357607 31.1777612,17.4378407 L30.0148012,30.9218412 C30.0143212,30.9276812 30.0094412,30.9321612 30.0035212,30.9321612 L25.664561,30.9321612 L24.929041,9.44224038 C24.914161,9.00896036 24.562961,8.66960034 24.129521,8.66960034 L24.119041,8.66960034 L23.7283209,5.61200022 C23.6774409,5.21368021 23.3363209,4.9134402 22.9348009,4.9134402 L20.7770408,4.9134402 C20.3755208,4.9134402 20.0344008,5.21376021 19.9835208,5.61200022 L19.5928008,8.66960034 L19.5824008,8.66960034 C19.1489608,8.66960034 18.7976807,9.00896036 18.7828807,9.44224038 L18.5370407,16.6256007 L14.9135206,16.6256007 C14.6868806,16.6256007 14.4689606,16.7213607 14.3157606,16.8884007 C14.1625606,17.0554407 14.0857606,17.2807207 14.1052806,17.5066407 L15.2682406,30.9905612 C15.2900006,31.2429612 15.4230406,31.4576013 15.6166406,31.5902413 L15.6166406,33.3601613 C15.6166406,33.8075213 15.9805606,34.1715214 16.4280007,34.1715214 L19.9408008,34.1715214 L20.3533608,34.1715214 L25.361601,34.1715214 C25.413521,34.1715214 25.464241,34.1608014 25.511441,34.1417614 C25.580641,34.1606414 25.652641,34.1715214 25.726721,34.1715214 L29.6520812,34.1715214 C30.0994412,34.1715214 30.4634412,33.8075213 30.4634412,33.3601613 L30.4634412,31.5902413 C30.6570412,31.4576813 30.7901612,31.2430412 30.8119212,30.9907212 L31.9748813,17.5067207 C31.9942413,17.2808007 31.9175213,17.0554407 31.7642413,16.8884007 L31.7642413,16.8884007 Z M20.7770408,5.71344023 L22.9348009,5.71344023 L23.3125609,8.66960034 L20.3992808,8.66960034 L20.7770408,5.71344023 Z M14.9022406,17.4379207 C14.9020806,17.4358407 14.9018406,17.4329607 14.9052006,17.4293607 C14.9085606,17.4256807 14.9114406,17.4256807 14.9135206,17.4256807 L21.8678409,17.4256807 C21.8699209,17.4256807 21.8728009,17.4256807 21.8761609,17.4293607 C21.8795209,17.4330407 21.8792809,17.4358407 21.8791209,17.4379207 L20.7161608,30.9220012 C20.7156808,30.9277612 20.7108008,30.9322412 20.7048808,30.9322412 L16.0765606,30.9322412 C16.0706406,30.9322412 16.0658406,30.9277612 16.0652806,30.9219212 L14.9022406,17.4379207 Z M19.9407208,33.3714413 L16.4279207,33.3714413 C16.4216807,33.3714413 16.4165607,33.3664013 16.4165607,33.3600813 L16.4165607,31.7321613 L20.3645608,31.7321613 L20.3645608,33.3600813 C20.3645608,33.3663213 20.3595208,33.3714413 20.3532808,33.3714413 L19.9407208,33.3714413 Z M21.1640008,33.3714413 C21.1640808,33.3676013 21.1645608,33.3639213 21.1645608,33.3600813 L21.1645608,31.5902413 C21.3582408,31.4576813 21.4912809,31.2429612 21.5130409,30.9906412 L22.6760009,17.5066407 C22.6954409,17.2808007 22.6187209,17.0554407 22.4655209,16.8884007 C22.3123209,16.7213607 22.0944009,16.6256007 21.8677609,16.6256007 L19.3374408,16.6256007 L19.5824008,9.46960038 L19.9442408,9.46960038 C19.9446408,9.46960038 19.9450408,9.46960038 19.9454408,9.46960038 C19.9457608,9.46960038 19.9460008,9.46960038 19.9463208,9.46960038 L24.129521,9.46960038 L24.947601,33.3714413 L21.1640008,33.3714413 L21.1640008,33.3714413 Z M29.6520012,33.3714413 L25.748001,33.3714413 L25.691921,31.7322413 L29.6633612,31.7322413 L29.6633612,33.3601613 C29.6633612,33.3663213 29.6583212,33.3714413 29.6520012,33.3714413 L29.6520012,33.3714413 Z"></path>
                                                <path d="M16.0495206,4.74392019 C16.2350406,4.05136016 15.8224806,3.33696013 15.1296806,3.15128013 L12.0604005,2.32904009 C11.8409605,2.27008009 11.6119205,2.30040009 11.4152805,2.4139201 C11.2186404,2.5275201 11.0779204,2.71088011 11.0191204,2.93024012 L9.89264039,7.13416028 C9.83384039,7.35352029 9.86400039,7.5826403 9.9776004,7.77936031 C10.0911204,7.97600032 10.2744804,8.11672032 10.4938404,8.17544032 L10.4938404,8.17552032 L12.0458405,8.59136034 L11.9410405,8.98248036 C11.8874405,9.18248036 11.7592005,9.34960037 11.5796805,9.45312038 L10.0601604,10.3300804 C9.27904037,10.7810404 8.72032035,11.5088805 8.48696034,12.3797605 L7.01200028,17.8844807 L6.04136024,17.8844807 L4.78528019,10.7608804 C4.74936019,10.5569604 4.79496019,10.3513604 4.9136802,10.1817604 L5.91976024,8.74488035 C6.43696026,8.00624032 6.63560026,7.11040028 6.47896026,6.22240025 L5.58352022,1.14320005 C5.45904022,0.437280017 4.78400019,-0.0360800014 4.07720016,0.0884000035 L0.949280038,0.640080025 C0.725600029,0.679440027 0.530720021,0.803600032 0.400400016,0.989600039 C0.270160011,1.17560005 0.220160009,1.40128006 0.25960001,1.62480006 L1.01544004,5.91120023 C1.05488004,6.13480024 1.17896005,6.32968025 1.36504005,6.45992026 C1.50960006,6.56112026 1.67800007,6.61384026 1.85080007,6.61384026 C1.90040008,6.61384026 1.95040008,6.60952026 2.00024008,6.60072026 L3.58184014,6.32192025 L3.65216015,6.72064027 C3.68808015,6.92464028 3.64248014,7.13032028 3.52376014,7.29984029 L2.5176001,8.73680035 C2.00048008,9.47552038 1.80192007,10.3713604 1.95848008,11.2591204 L3.12664012,17.8842407 L1.22216005,17.8842407 C0.560480022,17.8842407 0.0221600009,18.4225607 0.0221600009,19.0842408 L0.0221600009,32.1712813 C0.0221600009,33.2740813 0.919360037,34.1712814 2.02216,34.1712814 L11.0551204,34.1712814 C12.1579205,34.1712814 13.0551205,33.2740813 13.0551205,32.1712813 L13.0551205,28.5688811 C13.0551205,28.3479211 12.8760005,28.1688811 12.6551205,28.1688811 C12.4342405,28.1688811 12.2551205,28.3479211 12.2551205,28.5688811 L12.2551205,32.1712813 C12.2551205,32.8329613 11.7168005,33.3712813 11.0551204,33.3712813 L2.02216,33.3712813 C1.36048005,33.3712813 0.822160033,32.8329613 0.822160033,32.1712813 L0.822160033,19.0844008 C0.822160033,18.8638407 1.00160004,18.6844007 1.22216005,18.6844007 L11.8551205,18.6844007 C12.0756805,18.6844007 12.2551205,18.8638407 12.2551205,19.0844008 L12.2551205,25.665841 C12.2551205,25.886801 12.4342405,26.065841 12.6551205,26.065841 C12.8760005,26.065841 13.0551205,25.886801 13.0551205,25.665841 L13.0551205,19.0844008 C13.0551205,18.4227207 12.5168005,17.8844007 11.8551205,17.8844007 L9.9848004,17.8844007 L11.2606404,13.1228805 C11.3142404,12.9228805 11.4424805,12.7557605 11.6218405,12.6522405 L13.1413605,11.7753605 C13.9225606,11.3245604 14.4812806,10.5966404 14.7147206,9.72552039 L16.0495206,4.74392019 Z M12.2528805,7.81848031 L10.7008804,7.40264029 L10.7008804,7.40272029 C10.6875204,7.39912029 10.6772804,7.39120029 10.6703204,7.37928029 C10.6634404,7.36736029 10.6617604,7.35448029 10.6652804,7.34112029 L11.7917605,3.13712012 C11.7953605,3.12376012 11.8032005,3.11352012 11.8151205,3.10656012 C11.8271205,3.09968012 11.8398405,3.09808012 11.8532805,3.10160012 L13.4053605,3.51736014 L13.3544005,3.70752015 L12.2528805,7.81848031 Z M1.86136007,5.81296023 C1.84768007,5.81520023 1.83520007,5.81248023 1.82392007,5.80464023 C1.81264007,5.79672023 1.80568007,5.78584023 1.80328007,5.77232023 L1.04744004,1.48592006 C1.04504004,1.47232006 1.04784004,1.45976006 1.05576004,1.44848006 C1.06368004,1.43720006 1.07456004,1.43024006 1.08816004,1.42784006 L2.66968011,1.14896005 L3.44288014,5.53408022 L1.86136007,5.81296023 Z M2.74624011,11.1203204 C2.6268001,10.4428804 2.77832011,9.75936039 3.17288013,9.19568037 L4.17896017,7.75888031 C4.42040018,7.41424029 4.51304018,6.99624028 4.43992018,6.58176026 L3.45752014,1.01008004 L4.21608017,0.876240035 C4.48776018,0.828400033 4.74776019,1.01048004 4.79576019,1.28208005 L5.69128023,6.36112025 C5.81080023,7.03872028 5.65920022,7.72224031 5.26456021,8.28584033 L4.25848017,9.72280039 C4.01712016,10.0674404 3.92448016,10.4853604 3.99760016,10.8996804 L5.22912021,17.8844007 L3.93888016,17.8844007 L2.74624011,11.1203204 Z M12.7415205,11.0824004 L11.2219204,11.9593605 C10.8574404,12.1697605 10.5968004,12.5094405 10.4879204,12.9158405 L9.15664036,17.8843207 L7.84032031,17.8843207 L9.25984037,12.5866405 C9.43784038,11.9222405 9.86416039,11.3668005 10.4601604,11.0227204 L11.9796005,10.1458404 C12.3441605,9.93552039 12.6048805,9.59584038 12.7138405,9.18936037 L14.1781606,3.72440015 L14.9226406,3.92392016 C15.1892806,3.99536016 15.3481606,4.27024017 15.2768006,4.53672018 L13.9419206,9.51840038 C13.7638405,10.1831204 13.3375205,10.7384804 12.7415205,11.0824004 L12.7415205,11.0824004 Z"></path>
                                            </g>
                                        </g>
                                        <path d="M19.0664008,26.4278411 L17.7148807,26.4278411 C17.4940007,26.4278411 17.3148807,26.248801 17.3148807,26.027841 C17.3148807,25.806881 17.4940007,25.627841 17.7148807,25.627841 L19.0664008,25.627841 C19.2872808,25.627841 19.4664008,25.806881 19.4664008,26.027841 C19.4664008,26.248801 19.2872808,26.4278411 19.0664008,26.4278411 Z" id="Path" fill="#FFB3B3"></path>
                                    </g>
                                </g>
                            </g>
                        </g>
                    </g>
                </g>
            </g>
        </g>
    </g>
</svg>