<?xml version="1.0" encoding="UTF-8"?>
<svg width="60px" height="60px" viewBox="0 0 60 60" version="1.1" xmlns="http://www.w3.org/2000/svg" xmlns:xlink="http://www.w3.org/1999/xlink">
    <!-- Generator: Sketch 64 (93537) - https://sketch.com -->
    <title>users-icon-hover</title>
    <desc>Created with Sketch.</desc>
    <defs>
        <filter x="-114.7%" y="-114.7%" width="329.4%" height="329.4%" filterUnits="objectBoundingBox" id="filter-1">
            <feOffset dx="0" dy="7" in="SourceAlpha" result="shadowOffsetOuter1"></feOffset>
            <feGaussianBlur stdDeviation="6.5" in="shadowOffsetOuter1" result="shadowBlurOuter1"></feGaussianBlur>
            <feColorMatrix values="0 0 0 0 0.31372549   0 0 0 0 0.788235294   0 0 0 0 0.423529412  0 0 0 0.5 0" type="matrix" in="shadowBlurOuter1" result="shadowMatrixOuter1"></feColorMatrix>
            <feMerge>
                <feMergeNode in="shadowMatrixOuter1"></feMergeNode>
                <feMergeNode in="SourceGraphic"></feMergeNode>
            </feMerge>
        </filter>
    </defs>
    <g id="Page-1" stroke="none" stroke-width="1" fill="none" fill-rule="evenodd">
        <g id="13-queckoo-web-app---admin-panel---users" transform="translate(-36.000000, -478.000000)">
            <g id="Sidebar">
                <g id="Background">
                    <g id="tags" transform="translate(49.333333, 228.000000)">
                        <g id="users" transform="translate(0.000000, 256.666667)">
                            <g id="users-icon-hover" filter="url(#filter-1)">
                                <rect id="Rectangle" fill="#50C96C" x="0" y="0" width="33.3333333" height="33.3333333" rx="6.66666667"></rect>
                                <g id="team" transform="translate(5.333333, 7.333333)" fill="#FFFFFF" fill-rule="nonzero">
                                    <path d="M18.8820805,10.1425077 L17.1754566,10.1425077 C17.3494119,10.6187728 17.4444495,11.1327512 17.4444495,11.6684525 L17.4444495,18.1185047 C17.4444495,18.3418536 17.4055724,18.5562376 17.3348438,18.7556224 L20.1562729,18.7556224 C21.2102196,18.7556224 22.0676262,17.8981728 22.0676262,16.8442692 L22.0676262,13.3280533 C22.0676262,11.5715617 20.6386153,10.1425077 18.8820805,10.1425077 Z" id="Path"></path>
                                    <path d="M4.62321981,11.6684956 C4.62321981,11.1327512 4.71825733,10.6188159 4.89221263,10.1425508 L3.18558874,10.1425508 C1.42905399,10.1425508 0,11.5716048 0,13.3281395 L0,16.8443554 C0,17.898259 0.857406532,18.7557086 1.91135324,18.7557086 L4.73282544,18.7557086 C4.66209684,18.5562376 4.62321981,18.3418967 4.62321981,18.1185478 L4.62321981,11.6684956 Z" id="Path"></path>
                                    <path d="M12.9846252,8.48290689 L9.08304405,8.48290689 C7.3265093,8.48290689 5.89745531,9.91196087 5.89745531,11.6684956 L5.89745531,18.1185478 C5.89745531,18.4703806 6.18269717,18.7556655 6.53457306,18.7556655 L15.5330962,18.7556655 C15.8849721,18.7556655 16.170214,18.4704237 16.170214,18.1185478 L16.170214,11.6684956 C16.170214,9.91196087 14.74116,8.48290689 12.9846252,8.48290689 Z" id="Path"></path>
                                    <path d="M11.0338346,0.0362047699 C8.92137251,0.0362047699 7.20276656,1.75481072 7.20276656,3.86731594 C7.20276656,5.30020591 7.99362528,6.55164102 9.16157392,7.20867139 C9.71555,7.52029102 10.3542194,7.698384 11.0338346,7.698384 C11.7134499,7.698384 12.3521193,7.52029102 12.9060953,7.20867139 C14.0740871,6.55164102 14.8649027,5.30016281 14.8649027,3.86731594 C14.8649027,1.75485382 13.1462968,0.0362047699 11.0338346,0.0362047699 Z" id="Path"></path>
                                    <path d="M4.30655738,3.6070726 C2.72669328,3.6070726 1.44142395,4.89234193 1.44142395,6.47220603 C1.44142395,8.05207012 2.72669328,9.33733946 4.30655738,9.33733946 C4.7073097,9.33733946 5.08892521,9.25432709 5.43558589,9.10511172 C6.03494723,8.84706653 6.52914234,8.39028302 6.83494334,7.81811835 C7.04958591,7.41654711 7.1716908,6.95842747 7.1716908,6.47220603 C7.1716908,4.89238503 5.88642147,3.6070726 4.30655738,3.6070726 Z" id="Path"></path>
                                    <path d="M17.7611119,3.6070726 C16.1812478,3.6070726 14.8959785,4.89234193 14.8959785,6.47220603 C14.8959785,6.95847057 15.0180834,7.41659021 15.2327259,7.81811835 C15.5385269,8.39032612 16.032722,8.84710963 16.6320834,9.10511172 C16.978744,9.25432709 17.3603596,9.33733946 17.7611119,9.33733946 C19.340976,9.33733946 20.6262453,8.05207012 20.6262453,6.47220603 C20.6262453,4.89234193 19.340976,3.6070726 17.7611119,3.6070726 Z" id="Path"></path>
                                </g>
                            </g>
                        </g>
                    </g>
                </g>
            </g>
        </g>
    </g>
</svg>