<?xml version="1.0" encoding="UTF-8"?>
<svg width="26px" height="22px" viewBox="0 0 26 22" version="1.1" xmlns="http://www.w3.org/2000/svg" xmlns:xlink="http://www.w3.org/1999/xlink">
    <!-- Generator: Sketch 64 (93537) - https://sketch.com -->
    <title>users-icon</title>
    <desc>Created with Sketch.</desc>
    <g id="Page-1" stroke="none" stroke-width="1" fill="none" fill-rule="evenodd">
        <g id="users-icon" transform="translate(0.333333, 0.166667)" fill="#78849E" fill-rule="nonzero">
            <path d="M21.7035407,11.6580547 L19.7419041,11.6580547 C19.9418527,12.2054859 20.0510912,12.7962657 20.0510912,13.4120143 L20.0510912,20.8258673 C20.0510912,21.0825903 20.006405,21.3290086 19.9251077,21.5581866 L23.1681297,21.5581866 C24.3795627,21.5581866 25.3650874,20.5726123 25.3650874,19.3612288 L25.3650874,15.3196014 C25.3650874,13.3006455 23.7225462,11.6580547 21.7035407,11.6580547 Z" id="Path"></path>
            <path d="M5.31404573,13.4120639 C5.31404573,12.7962657 5.42328426,12.2055355 5.62323288,11.6581043 L3.66159623,11.6581043 C1.64259078,11.6581043 0,13.3006951 0,15.3197005 L0,19.3613279 C0,20.5727114 0.985524745,21.5582857 2.19695774,21.5582857 L5.44002921,21.5582857 C5.35873197,21.3290086 5.31404573,21.0826398 5.31404573,20.8259169 L5.31404573,13.4120639 Z" id="Path"></path>
            <path d="M14.9248565,9.75046763 L10.4402805,9.75046763 C8.42127501,9.75046763 6.77868422,11.3930584 6.77868422,13.4120639 L6.77868422,20.8259169 C6.77868422,21.2303224 7.10654844,21.5582361 7.51100347,21.5582361 L17.8541335,21.5582361 C18.2585885,21.5582361 18.5864527,21.2303719 18.5864527,20.8259169 L18.5864527,13.4120639 C18.5864527,11.3930584 16.9438619,9.75046763 14.9248565,9.75046763 Z" id="Path"></path>
            <path d="M12.6825685,0.0416146778 C10.2544511,0.0416146778 8.27904198,2.0170238 8.27904198,4.44519071 C8.27904198,6.09219066 9.18807499,7.53062182 10.5305447,8.28582914 C11.1672988,8.64401262 11.9014015,8.8487172 12.6825685,8.8487172 C13.4637354,8.8487172 14.1978382,8.64401262 14.8345923,8.28582914 C16.1771115,7.53062182 17.086095,6.09214112 17.086095,4.44519071 C17.086095,2.01707334 15.1106858,0.0416146778 12.6825685,0.0416146778 Z" id="Path"></path>
            <path d="M4.95006592,4.14606044 C3.13413019,4.14606044 1.65680913,5.6233815 1.65680913,7.43931723 C1.65680913,9.25525297 3.13413019,10.732574 4.95006592,10.732574 C5.41070077,10.732574 5.84933929,10.6371575 6.24779983,10.4656456 C6.93672092,10.1690419 7.50476127,9.64400341 7.85625667,8.98634288 C8.10297226,8.52476675 8.24332272,7.99819245 8.24332272,7.43931723 C8.24332272,5.62343104 6.76600166,4.14606044 4.95006592,4.14606044 Z" id="Path"></path>
            <path d="M20.415071,4.14606044 C18.5991353,4.14606044 17.1218142,5.6233815 17.1218142,7.43931723 C17.1218142,7.99824199 17.2621647,8.52481629 17.5088803,8.98634288 C17.8603757,9.64405296 18.428416,10.1690915 19.1173371,10.4656456 C19.5157976,10.6371575 19.9544362,10.732574 20.415071,10.732574 C22.2310068,10.732574 23.7083278,9.25525297 23.7083278,7.43931723 C23.7083278,5.6233815 22.2310068,4.14606044 20.415071,4.14606044 Z" id="Path"></path>
        </g>
    </g>
</svg>