<?xml version="1.0" encoding="UTF-8"?>
<svg width="21px" height="14px" viewBox="0 0 21 14" version="1.1" xmlns="http://www.w3.org/2000/svg" xmlns:xlink="http://www.w3.org/1999/xlink">
    <!-- Generator: Sketch 64 (93537) - https://sketch.com -->
    <title>view-icon</title>
    <desc>Created with Sketch.</desc>
    <g id="Page-1" stroke="none" stroke-width="1" fill="none" fill-rule="evenodd">
        <g id="07-queckoo-web-app---admin-panel---products" transform="translate(-1690.000000, -369.000000)" fill="#272C37" fill-rule="nonzero">
            <g id="orders" transform="translate(466.666667, 212.000000)">
                <g id="Group-11">
                    <g id="order-1" transform="translate(0.000000, 132.000000)">
                        <g id="view-icon" transform="translate(1224.000000, 25.333333)">
                            <path d="M9.98582979,4.11348936 C8.48340426,4.11348936 7.26242553,5.33446809 7.26242553,6.83689362 C7.26242553,8.33931915 8.48340426,9.56029787 9.98582979,9.56029787 C11.4882553,9.56029787 12.709234,8.33931915 12.709234,6.83689362 C12.709234,5.33446809 11.4882128,4.11348936 9.98582979,4.11348936 Z" id="Path"></path>
                            <path d="M9.98582979,0.0283829787 C5.44680851,0.0283829787 1.57051064,2.85161702 0,6.83689362 C1.57051064,10.8221277 5.44680851,13.6454043 9.98582979,13.6454043 C14.5293617,13.6454043 18.4011489,10.8221277 19.9716596,6.83689362 C18.4011489,2.85161702 14.5293617,0.0283829787 9.98582979,0.0283829787 Z M9.98582979,11.3758723 C7.48029787,11.3758723 5.44680851,9.34238298 5.44680851,6.83685106 C5.44680851,4.33131915 7.48029787,2.29787234 9.98582979,2.29787234 C12.4913617,2.29787234 14.5248511,4.3313617 14.5248511,6.83689362 C14.5248511,9.34242553 12.4913617,11.3758723 9.98582979,11.3758723 Z" id="Shape"></path>
                        </g>
                    </g>
                </g>
            </g>
        </g>
    </g>
</svg>